<svg width="128" height="128" viewBox="0 0 128 128" fill="none" xmlns="http://www.w3.org/2000/svg">
<path d="M104 80C90.7573 80 80 90.7467 80 104C80 117.253 90.7573 128 104 128C117.243 128 128 117.253 128 104C128 90.7467 117.243 80 104 80ZM117.333 106.667H90.6667V101.333H117.333V106.667ZM79.04 128H0.0266667L0 121.381C0 107.941 1.06133 100.181 16.9493 96.512C34.896 92.368 52.6187 88.656 44.096 72.9493C18.8533 26.3947 36.896 0 64 0C100.005 0 104.032 40.5067 83.4133 72.9547C76.5227 83.7867 69.3333 92.3147 69.3333 104C69.3333 113.317 73.0453 121.765 79.04 128Z" fill="white"/>
</svg>
