<svg width="52" height="65" viewBox="0 0 52 65" fill="none" xmlns="http://www.w3.org/2000/svg">
<path d="M47.1679 1.00006H4.95724C2.77544 1.00006 1 2.7755 1 4.9573V60.3587C1 62.5405 2.77544 64.3159 4.95724 64.3159H47.1678C49.3496 64.3159 51.125 62.5405 51.125 60.3587V4.9573C51.1251 2.7755 49.3496 1.00006 47.1679 1.00006ZM41.8915 8.91454C42.6197 8.91454 43.2107 9.50553 43.2107 10.2337C43.2107 10.9618 42.6197 11.5527 41.8915 11.5527C41.1634 11.5527 40.5724 10.9617 40.5724 10.2335C40.5724 9.50541 41.1634 8.91454 41.8915 8.91454ZM31.3389 8.91454C32.0671 8.91454 32.6581 9.50553 32.6581 10.2337C32.6581 10.9618 32.0671 11.5528 31.3389 11.5528C30.6108 11.5528 30.0198 10.9618 30.0198 10.2337C30.0198 9.50553 30.6108 8.91454 31.3389 8.91454ZM20.7862 8.91454C21.5143 8.91454 22.1053 9.50553 22.1053 10.2337C22.1053 10.9618 21.5143 11.5528 20.7862 11.5528C20.0581 11.5528 19.4671 10.9618 19.4671 10.2337C19.4671 9.50553 20.0581 8.91454 20.7862 8.91454ZM10.2336 8.91454C10.9617 8.91454 11.5527 9.50553 11.5527 10.2337C11.5527 10.9618 10.9617 11.5527 10.2336 11.5527C9.50547 11.5527 8.91448 10.9617 8.91448 10.2335C8.91448 9.50541 9.50547 8.91454 10.2336 8.91454ZM48.4869 60.3587C48.4869 61.0868 47.8959 61.6778 47.1678 61.6778H4.95724C4.22911 61.6778 3.63812 61.0868 3.63812 60.3587V4.9573C3.63812 4.22917 4.22911 3.63818 4.95724 3.63818H8.91448V6.51905C7.38179 7.06515 6.27636 8.51622 6.27636 10.2337C6.27636 12.4155 8.0518 14.1909 10.2336 14.1909C12.4154 14.1909 14.1908 12.4155 14.1908 10.2337C14.1908 8.51622 13.0854 7.06528 11.5527 6.51918V3.63818H19.4672V6.51905C17.9344 7.06515 16.8291 8.5161 16.8291 10.2335C16.8291 12.4153 18.6045 14.1908 20.7863 14.1908C22.9681 14.1908 24.7436 12.4153 24.7436 10.2335C24.7436 8.5161 23.6381 7.06515 22.1055 6.51905V3.63818H30.0199V6.51905C28.4871 7.06515 27.3818 8.5161 27.3818 10.2335C27.3818 12.4153 29.1573 14.1908 31.3391 14.1908C33.5209 14.1908 35.2963 12.4153 35.2963 10.2335C35.2963 8.5161 34.1909 7.06515 32.6582 6.51905V3.63818H40.5727V6.51905C39.0397 7.06515 37.9343 8.51622 37.9343 10.2337C37.9343 12.4155 39.7097 14.1909 41.8915 14.1909C44.0733 14.1909 45.8488 12.4155 45.8488 10.2337C45.8488 8.51622 44.7433 7.06528 43.2107 6.51918V3.63818H47.1679C47.896 3.63818 48.487 4.22917 48.487 4.9573V60.3587H48.4869Z" fill="white" stroke="white"/>
<path d="M36.6152 51.1251H15.51C14.7819 51.1251 14.1909 51.7161 14.1909 52.4442C14.1909 53.1723 14.7819 53.7633 15.51 53.7633H36.6154C37.3435 53.7633 37.9345 53.1723 37.9345 52.4442C37.9344 51.7161 37.3434 51.1251 36.6152 51.1251Z" fill="white" stroke="white"/>
<path d="M31.339 56.4014H20.7864C20.0583 56.4014 19.4673 56.9924 19.4673 57.7205C19.4673 58.4487 20.0583 59.0397 20.7864 59.0397H31.339C32.0671 59.0397 32.6581 58.4487 32.6581 57.7205C32.6581 56.9924 32.0671 56.4014 31.339 56.4014Z" fill="white" stroke="white"/>
<path d="M35.1244 37.5437L31.1646 36.5544L30.9984 35.8922C32.0273 34.7578 32.7554 33.3121 33.0587 31.8083C33.7605 31.4469 34.2723 30.7531 34.3779 29.9221L34.6654 27.6269C34.7524 26.933 34.5362 26.2313 34.0771 25.7037C33.9347 25.5401 33.771 25.3976 33.5943 25.2789L33.663 23.8806L33.9057 23.6379C34.5864 22.915 35.507 21.3717 34.0482 19.145C33.3569 18.0899 31.9323 16.8289 29.0804 16.8289C28.2414 16.8289 26.3445 16.8289 24.5005 17.9819C19.0711 18.1744 18.4327 21.1002 18.4327 23.3083C18.4327 23.7436 18.5118 24.5588 18.5856 25.2394C18.3904 25.3635 18.211 25.5138 18.0554 25.6906C17.5884 26.2208 17.3694 26.9252 17.4565 27.6296L17.744 29.9248C17.8522 30.7849 18.3983 31.4972 19.2028 31.848C19.5036 33.2859 20.1895 34.6788 21.1524 35.7841L20.9598 36.5597L17 37.5491C13.792 38.351 11.5522 41.2214 11.5522 44.5296C11.5522 44.8805 11.6894 45.2182 11.9375 45.4635C12.1854 45.7089 12.5205 45.8487 12.8714 45.8487L39.2529 45.8408C39.9811 45.8408 40.5721 45.2498 40.5721 44.5217C40.5722 41.2135 38.3324 38.3458 35.1244 37.5437ZM14.3832 43.2079C14.8396 41.7042 16.0531 40.5065 17.636 40.1054L22.3636 38.9236C22.8358 38.8075 23.2078 38.4382 23.3238 37.9659L23.8857 35.7156C24.0044 35.2513 23.8567 34.7606 23.5084 34.4335C22.4821 33.4705 21.8015 32.0591 21.6907 30.6583C21.6353 29.9723 21.0496 29.5951 20.3611 29.5951L20.0233 27.4952C20.4032 27.4952 20.762 27.3343 21.0127 27.0494C21.2633 26.7671 21.3793 26.3899 21.3318 26.0126C21.2315 25.2158 21.0706 23.7754 21.0706 23.3111C21.0706 21.9445 21.0706 20.6545 24.925 20.6149C25.1941 20.6123 25.4606 20.5278 25.6795 20.3696C26.9379 19.4699 28.3809 19.4699 29.0748 19.4699C31.1009 19.4699 31.6549 20.3167 31.8369 20.5938C32.3751 21.4143 32.1535 21.6464 32.0085 21.8047L31.4333 22.3771C31.2012 22.6092 31.0639 22.9206 31.0481 23.2477L30.9082 26.1181C30.8924 26.4768 30.9373 26.7275 31.1826 26.9887C31.4306 27.2498 31.6866 27.3026 32.0453 27.3052L31.8738 29.4501C31.1852 29.4501 30.6128 29.9777 30.5574 30.6636C30.4466 32.0856 29.7159 33.5603 28.6553 34.51C28.2913 34.8371 28.1383 35.3384 28.257 35.8133L28.7978 37.9686C28.9165 38.4382 29.2859 38.8102 29.758 38.9263L34.4856 40.1081C36.0738 40.5065 37.2873 41.7043 37.741 43.2106L14.3832 43.2079Z" fill="white" stroke="white"/>
</svg>
