<svg width="94" height="81" viewBox="0 0 94 81" fill="none" xmlns="http://www.w3.org/2000/svg">
<path fill-rule="evenodd" clip-rule="evenodd" d="M33.3376 70.0972L24.4027 62.4045H18.2523C16.1027 62.4045 14.3433 60.8884 14.3433 59.0361V53.3013H10.6178V60.0117C10.6178 61.4421 9.25618 62.6155 7.59619 62.6155H3.02165C1.36165 62.6155 0 61.4421 0 60.0117V37.27C0 35.8396 1.36165 34.6663 3.02165 34.6663H7.59619C9.25618 34.6663 10.6178 35.8396 10.6178 37.27V43.9805H14.3433V37.8105C14.3433 35.9583 16.1027 34.4421 18.2523 34.4421H24.7852L34.0184 25.9849C35.0894 25.1807 36.5122 24.8972 38.1722 24.9565H76.2144C77.5301 25.0818 78.5322 25.5168 79.1442 26.3342C79.7562 27.1384 79.6567 27.5933 79.6567 28.4963V43.9805H83.3822V37.27C83.3822 35.8396 84.7438 34.6663 86.4038 34.6663H90.9784C92.6383 34.6663 94 35.8396 94 37.27V60.0117C94 61.4421 92.6383 62.6155 90.9784 62.6155H86.4038C84.7438 62.6155 83.3822 61.4421 83.3822 60.0117V53.3013H79.6567V53.9077C79.6567 55.7073 79.7179 56.7949 78.3869 58.2847C78.1344 58.5681 77.8514 58.8384 77.5378 59.0889L63.8983 70.5981C63.2174 71.2507 62.1847 71.6067 60.8231 71.6726H37.5679C35.8314 71.6067 34.4162 71.0925 33.3376 70.0972ZM48.7365 50.0449L39.0672 49.2605L47.0841 34.1257H58.0462L51.827 42.8071L63.0109 43.875L42.479 65.1138L48.7365 50.0449ZM39.7633 9.3208H66.1549C67.8149 9.3208 69.1766 10.4941 69.1766 11.9246V15.8665C69.1766 17.2969 67.8149 18.4702 66.1549 18.4702H58.3675V21.7859H47.5508V18.4702H39.7633C38.1034 18.4702 36.7417 17.2969 36.7417 15.8665V11.9246C36.7417 10.4941 38.1034 9.3208 39.7633 9.3208Z" fill="white"/>
</svg>
