<svg width="79" height="78" viewBox="0 0 79 78" fill="none" xmlns="http://www.w3.org/2000/svg">
<path fill-rule="evenodd" clip-rule="evenodd" d="M72.4167 26.9537C72.4167 38.2499 63.1039 47.4074 51.6157 47.4074C49.5195 47.4074 44.7466 46.9316 42.4247 45.0291L39.5221 47.8832C37.8157 49.5612 38.2765 50.0552 39.0356 50.869C39.3522 51.2086 39.7212 51.6038 40.006 52.1641C40.006 52.1641 42.4247 55.4938 40.006 58.8234C38.5547 60.7259 34.4911 63.3896 29.8474 58.8234L28.8799 59.7747C28.8799 59.7747 31.7823 63.1043 29.3636 66.4339C27.9124 68.3368 24.0425 70.2393 20.6563 66.9097L17.2701 70.2393C14.9481 72.5225 12.1102 71.1906 10.9816 70.2393L8.07914 67.3852C5.37017 64.7215 6.9504 61.8358 8.07914 60.7259L33.2337 35.9915C33.2337 35.9915 30.815 32.186 30.815 26.9537C30.815 15.6574 40.1278 6.5 51.6157 6.5C63.1039 6.5 72.4167 15.6574 72.4167 26.9537ZM51.6167 34.0889C55.6239 34.0889 58.8725 30.8945 58.8725 26.954C58.8725 23.0134 55.6239 19.819 51.6167 19.819C47.6091 19.819 44.3605 23.0134 44.3605 26.954C44.3605 30.8945 47.6091 34.0889 51.6167 34.0889Z" fill="white"/>
</svg>
