<svg width="124" height="49" viewBox="0 0 124 49" fill="none" xmlns="http://www.w3.org/2000/svg">
<g clip-path="url(#clip0_399_5)">
<path d="M117.612 49H6.38753C2.86518 49 0 46.136 0 42.6151V6.38485C0 2.86398 2.86518 0 6.38753 0H117.612C121.135 0 124 2.86398 124 6.38485V42.6151C124 46.136 121.135 49 117.612 49ZM6.38753 2.37576C4.17596 2.37576 2.37675 4.17421 2.37675 6.38485V42.6151C2.37675 44.8258 4.17596 46.6242 6.38753 46.6242H117.612C119.824 46.6242 121.623 44.8258 121.623 42.6151V6.38485C121.623 4.17421 119.824 2.37576 117.612 2.37576H6.38753ZM111.457 40.5857H98.6917C96.2591 40.5857 94.2799 38.6078 94.2799 36.1763V36.1115C94.2799 33.6799 96.2591 31.7015 98.6917 31.7015H111.457C113.89 31.7015 115.869 33.6799 115.869 36.1115V36.1763C115.869 38.6078 113.89 40.5857 111.457 40.5857ZM106.263 38.2099H111.457C112.58 38.2099 113.492 37.2976 113.492 36.1763V36.1115C113.492 34.9896 112.58 34.0773 111.457 34.0773H106.263V38.2099ZM98.6917 34.0773C97.5693 34.0773 96.6566 34.9896 96.6566 36.1115V36.1763C96.6566 37.2976 97.5693 38.2099 98.6917 38.2099H103.886V34.0773H98.6917ZM86.4544 40.5857H10.1012C9.44522 40.5857 8.91283 40.0535 8.91283 39.3978V23.7576C8.91283 23.1019 9.44522 22.5697 10.1012 22.5697H86.4544C87.1104 22.5697 87.6428 23.1019 87.6428 23.7576V39.3978C87.6428 40.0541 87.1104 40.5857 86.4544 40.5857ZM11.2896 38.2099H85.266V24.9455H11.2896V38.2099ZM74.0674 36.6015H70.0566C69.4006 36.6015 68.8682 36.0693 68.8682 35.4136C68.8682 34.7579 69.4006 34.2258 70.0566 34.2258H74.0674C74.7234 34.2258 75.2557 34.7579 75.2557 35.4136C75.2557 36.0693 74.724 36.6015 74.0674 36.6015ZM64.2306 36.6015H60.2198C59.5638 36.6015 59.0314 36.0693 59.0314 35.4136C59.0314 34.7579 59.5638 34.2258 60.2198 34.2258H64.2306C64.8866 34.2258 65.419 34.7579 65.419 35.4136C65.419 36.0693 64.8866 36.6015 64.2306 36.6015ZM54.3932 36.6015H50.3824C49.7264 36.6015 49.1941 36.0693 49.1941 35.4136C49.1941 34.7579 49.7264 34.2258 50.3824 34.2258H54.3932C55.0492 34.2258 55.5816 34.7579 55.5816 35.4136C55.5816 36.0693 55.0492 36.6015 54.3932 36.6015ZM44.5558 36.6015H40.545C39.8891 36.6015 39.3567 36.0693 39.3567 35.4136C39.3567 34.7579 39.8891 34.2258 40.545 34.2258H44.5558C45.2118 34.2258 45.7442 34.7579 45.7442 35.4136C45.7442 36.0693 45.2124 36.6015 44.5558 36.6015ZM34.719 36.6015H30.7083C30.0523 36.6015 29.5199 36.0693 29.5199 35.4136C29.5199 34.7579 30.0523 34.2258 30.7083 34.2258H34.719C35.375 34.2258 35.9074 34.7579 35.9074 35.4136C35.9074 36.0693 35.375 36.6015 34.719 36.6015ZM24.8822 36.6015H20.8715C20.2155 36.6015 19.6831 36.0693 19.6831 35.4136C19.6831 34.7579 20.2155 34.2258 20.8715 34.2258H24.8822C25.5382 34.2258 26.0706 34.7579 26.0706 35.4136C26.0706 36.0693 25.5382 36.6015 24.8822 36.6015ZM64.2306 33.3598H60.2198C59.5638 33.3598 59.0314 32.8276 59.0314 32.1719C59.0314 31.5162 59.5638 30.984 60.2198 30.984H64.2306C64.8866 30.984 65.419 31.5162 65.419 32.1719C65.419 32.8276 64.8866 33.3598 64.2306 33.3598ZM54.3932 33.3598H50.3824C49.7264 33.3598 49.1941 32.8276 49.1941 32.1719C49.1941 31.5162 49.7264 30.984 50.3824 30.984H54.3932C55.0492 30.984 55.5816 31.5162 55.5816 32.1719C55.5816 32.8276 55.0492 33.3598 54.3932 33.3598ZM44.5558 33.3598H40.545C39.8891 33.3598 39.3567 32.8276 39.3567 32.1719C39.3567 31.5162 39.8891 30.984 40.545 30.984H44.5558C45.2118 30.984 45.7442 31.5162 45.7442 32.1719C45.7442 32.8276 45.2124 33.3598 44.5558 33.3598ZM34.719 33.3598H30.7083C30.0523 33.3598 29.5199 32.8276 29.5199 32.1719C29.5199 31.5162 30.0523 30.984 30.7083 30.984H34.719C35.375 30.984 35.9074 31.5162 35.9074 32.1719C35.9074 32.8276 35.375 33.3598 34.719 33.3598ZM64.2306 30.1181H60.2198C59.5638 30.1181 59.0314 29.5859 59.0314 28.9302C59.0314 28.2745 59.5638 27.7423 60.2198 27.7423H64.2306C64.8866 27.7423 65.419 28.2745 65.419 28.9302C65.419 29.5859 64.8866 30.1181 64.2306 30.1181ZM44.5558 30.1181H40.545C39.8891 30.1181 39.3567 29.5859 39.3567 28.9302C39.3567 28.2745 39.8891 27.7423 40.545 27.7423H44.5558C45.2118 27.7423 45.7442 28.2745 45.7442 28.9302C45.7442 29.5859 45.2124 30.1181 44.5558 30.1181ZM105.075 29.697C99.1219 29.697 94.2799 24.857 94.2799 18.9069C94.2799 12.9574 99.1219 8.11737 105.075 8.11737C111.027 8.11737 115.869 12.9574 115.869 18.9069C115.869 24.857 111.026 29.697 105.075 29.697ZM105.075 10.4931C100.433 10.4931 96.6566 14.267 96.6566 18.9069C96.6566 23.5467 100.433 27.3212 105.075 27.3212C109.716 27.3212 113.492 23.5467 113.492 18.9069C113.492 14.267 109.716 10.4931 105.075 10.4931ZM105.075 24.6045C101.932 24.6045 99.3745 22.0482 99.3745 18.9069C99.3745 15.7655 101.932 13.2098 105.075 13.2098C108.217 13.2098 110.775 15.7655 110.775 18.9069C110.775 22.0482 108.217 24.6045 105.075 24.6045ZM105.075 15.5856C103.242 15.5856 101.751 17.0758 101.751 18.9069C101.751 20.7386 103.242 22.2288 105.075 22.2288C106.907 22.2288 108.398 20.7386 108.398 18.9069C108.398 17.0758 106.907 15.5856 105.075 15.5856ZM86.4544 19.6H74.3728C73.7168 19.6 73.1844 19.0678 73.1844 18.4121V14.6507C73.1844 13.995 73.7168 13.4628 74.3728 13.4628H86.4544C87.1104 13.4628 87.6428 13.995 87.6428 14.6507V18.4121C87.6428 19.0684 87.1104 19.6 86.4544 19.6ZM75.5612 17.2242H85.266V15.8386H75.5612V17.2242ZM65.031 19.6H52.9487C52.2927 19.6 51.7604 19.0678 51.7604 18.4121V14.6507C51.7604 13.995 52.2927 13.4628 52.9487 13.4628H65.031C65.6869 13.4628 66.2193 13.995 66.2193 14.6507V18.4121C66.2193 19.0684 65.6875 19.6 65.031 19.6ZM54.1371 17.2242H63.8426V15.8386H54.1371V17.2242ZM43.6075 19.6H31.5253C30.8693 19.6 30.3369 19.0678 30.3369 18.4121V14.6507C30.3369 13.995 30.8693 13.4628 31.5253 13.4628H43.6075C44.2635 13.4628 44.7959 13.995 44.7959 14.6507V18.4121C44.7959 19.0684 44.2635 19.6 43.6075 19.6ZM32.7136 17.2242H42.4191V15.8386H32.7136V17.2242ZM22.1834 19.6H10.1012C9.44522 19.6 8.91283 19.0678 8.91283 18.4121V14.6507C8.91283 13.995 9.44522 13.4628 10.1012 13.4628H22.1834C22.8394 13.4628 23.3718 13.995 23.3718 14.6507V18.4121C23.3718 19.0684 22.8394 19.6 22.1834 19.6ZM11.2896 17.2242H20.9951V15.8386H11.2896V17.2242ZM86.4544 10.4931H10.1012C9.44522 10.4931 8.91283 9.96096 8.91283 9.30525C8.91283 8.64954 9.44522 8.11737 10.1012 8.11737H86.4544C87.1104 8.11737 87.6428 8.64954 87.6428 9.30525C87.6428 9.96096 87.1104 10.4931 86.4544 10.4931Z" fill="white"/>
</g>
<defs>
<clipPath id="clip0_399_5">
<rect width="124" height="49" fill="white"/>
</clipPath>
</defs>
</svg>
