<svg width="172" height="128" viewBox="0 0 172 128" fill="none" xmlns="http://www.w3.org/2000/svg">
<path d="M142.919 68.2168C141.913 65.1804 140.678 62.2151 139.236 59.3848L121.718 67.2497C123.267 70.0515 124.502 73.0097 125.408 76.0817L142.919 68.2168ZM53.1672 61.7955C55.1017 59.2782 57.3075 56.9955 59.7275 54.9902L46.2358 40.9884C43.8944 43.0791 41.6886 45.3617 39.6827 47.7937L53.1672 61.7955ZM65.4097 51.0222C68.1152 49.4506 70.9848 48.2062 73.9615 47.3031L66.5804 29.0346C63.6536 30.0444 60.784 31.296 58.0285 32.7609L65.4097 51.0222ZM45.7147 76.7359C46.5784 73.6426 47.7705 70.6631 49.2696 67.8471L31.6448 60.2666C30.2385 63.1324 29.0464 66.1119 28.0898 69.1555L45.7147 76.7359ZM113.059 32.6471C110.296 31.1893 107.419 29.952 104.493 28.9564L97.1829 47.2533C100.16 48.1422 103.036 49.3795 105.749 50.944L113.059 32.6471ZM131.626 47.7937C129.613 45.3617 127.414 43.0791 125.073 40.9884L111.581 54.9902C114.001 56.9955 116.2 59.2853 118.134 61.7955L131.626 47.7937ZM90.2872 26.0409C88.7239 25.9129 87.1677 25.856 85.6543 25.856C84.141 25.856 82.5777 25.92 81.0143 26.0409V45.8382C82.5562 45.6604 84.1124 45.568 85.6543 45.568C87.1962 45.568 88.7524 45.6533 90.2872 45.8382V26.0409ZM85.6615 128C76.4243 128 68.9361 120.54 68.9361 111.339C68.9361 105.059 72.4268 99.591 77.5736 96.7537L85.6615 56.8888L93.7493 96.7466C98.9033 99.5839 102.387 105.052 102.387 111.331C102.387 120.54 94.8986 128 85.6615 128ZM171.323 85.3333C171.323 100.864 167.14 115.435 159.83 127.993L147.438 120.86C153.512 110.4 157.046 98.2897 157.046 85.3333C157.046 46.0586 125.087 14.2222 85.6615 14.2222C46.2358 14.2222 14.2769 46.0586 14.2769 85.3333C14.2769 98.2897 17.8104 110.4 23.8853 120.86L11.4929 127.993C4.18314 115.435 0 100.864 0 85.3333C0 38.2791 38.4263 0 85.6615 0C132.897 0 171.323 38.2791 171.323 85.3333Z" fill="white"/>
</svg>
