<svg width="98" height="66" viewBox="0 0 98 66" fill="none" xmlns="http://www.w3.org/2000/svg">
<path d="M13.9413 45.5944L10.0245 41.6774C6.18703 37.8399 3.76287 32.7537 3.19918 27.3558C3.1073 26.4748 2.31775 25.8353 1.43728 25.9274C0.556238 26.0196 -0.0832504 26.8082 0.00881606 27.6893C0.648879 33.8162 3.40053 39.5896 7.75656 43.9456L11.6733 47.8623C11.9864 48.1755 12.397 48.3322 12.8074 48.3322C13.2178 48.3322 13.6283 48.1757 13.9415 47.8623C14.5677 47.236 14.5677 46.2206 13.9413 45.5944Z" fill="white"/>
<path d="M65.7865 21.113C65.1596 20.4867 64.1444 20.4869 63.5181 21.1133L56.6987 27.9354C56.0726 28.5619 56.0728 29.5773 56.6991 30.2036C57.0124 30.5168 57.4228 30.6731 57.8332 30.6731C58.2435 30.6731 58.6541 30.5164 58.9674 30.203L65.7869 23.3809C66.4131 22.7545 66.4129 21.7391 65.7865 21.113Z" fill="white"/>
<path d="M70.5884 27.7829C69.9615 27.1562 68.9459 27.1566 68.3202 27.783L57.1955 38.9103C56.5692 39.5365 56.5692 40.5521 57.1957 41.1784C57.509 41.4916 57.9192 41.6479 58.3296 41.6479C58.7402 41.6479 59.1507 41.4914 59.4639 41.178L70.5886 30.0508C71.2151 29.4245 71.2151 28.4089 70.5884 27.7829Z" fill="white"/>
<path d="M96.5625 15.3178C95.6818 15.2248 94.8925 15.8652 94.8008 16.7463C94.2365 22.1443 91.8126 27.2306 87.9749 31.0681L68.4401 50.6026C67.9771 51.0656 67.3617 51.3206 66.7069 51.3206C66.0521 51.3206 65.437 51.0656 64.9738 50.6024C64.5108 50.1394 64.2558 49.524 64.2558 48.8692C64.2558 48.2144 64.5108 47.5989 64.9738 47.136C64.9768 47.133 64.9791 47.1299 64.9818 47.127L77.5233 34.5855C78.1496 33.9593 78.1496 32.9437 77.5233 32.3174C76.8967 31.6911 75.8814 31.6911 75.255 32.3174L60.5044 47.0679C60.2328 46.2902 59.787 45.5604 59.1665 44.9398L51.6986 37.4721L55.5455 33.6253C56.1718 32.999 56.1718 31.9834 55.5455 31.3571C54.9192 30.731 53.9038 30.7304 53.2771 31.3571L49.4304 35.2038L37.1488 22.9224C37.1177 22.8912 37.0531 22.8267 37.1048 22.7013C37.1565 22.5761 37.2482 22.5759 37.292 22.5759L44.1805 22.565C47.4764 22.5599 50.1536 19.8742 50.1482 16.5782C50.143 13.2862 47.4622 10.6106 44.1712 10.6106C44.1692 10.6106 44.1671 10.6106 44.1654 10.6106L17.3295 10.6358C16.4435 10.6366 15.7263 11.3555 15.727 12.2412C15.7278 13.1264 16.4458 13.8436 17.3308 13.8436C17.3312 13.8436 17.332 13.8436 17.3324 13.8436L44.1683 13.8183C44.1692 13.8183 44.17 13.8183 44.1708 13.8183C45.6955 13.8183 46.9377 15.0583 46.9404 16.5834C46.9427 18.1104 45.7022 19.355 44.1754 19.3573L37.287 19.3682C35.9039 19.3703 34.6686 20.1977 34.1403 21.4761C33.6119 22.7545 33.9026 24.2125 34.8807 25.1907L56.8981 47.2082C57.8513 48.1614 57.8535 49.7099 56.906 50.6663L56.8976 50.6748C56.896 50.6763 56.8951 50.6778 56.8936 50.6792C56.4309 51.1395 55.8175 51.3933 55.1646 51.3933C54.5098 51.3933 53.8944 51.1383 53.4314 50.6753L34.4803 31.7242C33.854 31.0975 32.8384 31.0979 32.2121 31.7242C31.5858 32.3505 31.5858 33.3661 32.2121 33.9924L54.7741 56.5546C55.73 57.5103 55.73 59.0656 54.7741 60.0213C54.3111 60.4843 53.6957 60.7393 53.0409 60.7393C52.3861 60.7393 51.7706 60.4843 51.3077 60.0213L29.6788 38.3922C29.0526 37.7659 28.037 37.7659 27.4107 38.3922C26.7844 39.0185 26.7844 40.0341 27.4107 40.6604L44.5687 57.8184C45.5238 58.7743 45.5236 60.3291 44.5679 61.2844C43.6121 62.2401 42.0569 62.2401 41.1012 61.2844L22.7436 42.9268C22.1175 42.3005 21.1019 42.3005 20.4754 42.9268C19.8492 43.5531 19.8492 44.5687 20.4754 45.195L33.0262 57.7459C33.9817 58.7018 33.9815 60.2567 33.026 61.2122C32.5629 61.6753 31.9474 61.9302 31.2926 61.9302C30.6378 61.9302 30.022 61.6753 29.559 61.2122L17.9669 49.6195C17.3406 48.9933 16.325 48.9933 15.6987 49.6195C15.0724 50.2458 15.0724 51.2614 15.6987 51.8877L27.291 63.48C28.3599 64.549 29.781 65.1376 31.2926 65.1376C32.8041 65.1376 34.2253 64.549 35.2941 63.48C35.9147 62.8595 36.3608 62.1297 36.6322 61.3516L38.833 63.5524C39.9363 64.6556 41.3856 65.2071 42.8346 65.2071C44.2837 65.2071 45.7328 64.6553 46.8361 63.5524C47.4566 62.9318 47.9028 62.2016 48.1742 61.4238L49.0394 62.2889C50.1082 63.3577 51.5294 63.9463 53.0409 63.9463C54.5527 63.9463 55.9738 63.3577 57.0427 62.2887C59.249 60.0822 59.249 56.492 57.0427 54.2856L57.0398 54.2828C57.8311 54.0058 58.5561 53.5529 59.1665 52.9425C59.1721 52.937 59.177 52.9313 59.1826 52.9257L61.365 50.7433C61.642 51.5346 62.095 52.2602 62.7054 52.8704C63.7742 53.9394 65.1954 54.528 66.7069 54.528C68.2187 54.528 69.6399 53.9394 70.7087 52.8704L90.2434 33.3358C94.5992 28.98 97.3507 23.2066 97.991 17.0795C98.083 16.1987 97.4435 15.4099 96.5625 15.3178Z" fill="white"/>
<path d="M86.1034 18.6341C85.7843 17.808 84.8562 17.3965 84.0295 17.7156C81.5511 18.672 78.8795 18.8646 76.3022 18.2733C75.4388 18.075 74.5782 18.6142 74.3801 19.4775C74.182 20.3407 74.721 21.2015 75.5842 21.3996C76.7993 21.6786 78.0304 21.8174 79.2594 21.8174C81.2705 21.8174 83.2744 21.4455 85.1846 20.708C86.0111 20.3889 86.4222 19.4606 86.1034 18.6341Z" fill="white"/>
<path d="M80.6698 0.0253952L53.7802 -6.10352e-05C53.7783 -6.10352e-05 53.7766 -6.10352e-05 53.7749 -6.10352e-05C50.5133 -6.10352e-05 47.8564 2.65206 47.8512 5.91363L47.851 6.02139C47.8486 7.60355 48.4622 9.09212 49.5794 10.2126C50.6963 11.3339 52.1829 11.9523 53.7653 11.9546L61.1957 11.9663L46.4722 26.6898C45.8459 27.3161 45.8459 28.3317 46.4722 28.958C46.7853 29.2711 47.1959 29.4279 47.6062 29.4279C48.0166 29.4279 48.4272 29.2713 48.7403 28.958L64.5874 13.1109C65.9822 15.5969 67.9835 17.6591 70.4733 19.1459C70.731 19.2998 71.0144 19.3731 71.2943 19.3731C71.8402 19.3731 72.3725 19.0942 72.6728 18.5914C73.1268 17.831 72.8786 16.8462 72.1181 16.392C69.5577 14.863 67.6352 12.5801 66.5585 9.79056C66.5574 9.7875 66.5553 9.7852 66.5543 9.78214C66.3206 9.18744 65.7427 8.76519 65.0648 8.76424L53.7703 8.74644C53.0447 8.74529 52.3634 8.46163 51.851 7.94789C51.3388 7.43396 51.0577 6.7516 51.0588 6.02694L51.059 5.91918C51.0613 4.42353 52.2794 3.20752 53.7749 3.20752C53.7756 3.20752 53.7766 3.20752 53.7774 3.20752L80.6669 3.23298C80.6673 3.23298 80.668 3.23298 80.6684 3.23298C81.5535 3.23298 82.2714 2.51578 82.2722 1.63053C82.273 0.744892 81.5556 0.0263522 80.6698 0.0253952Z" fill="white"/>
</svg>
