<svg width="139" height="128" viewBox="0 0 139 128" fill="none" xmlns="http://www.w3.org/2000/svg">
<path d="M84.1309 0.00275907C80.0659 -0.08466 75.9994 1.90894 73.6266 5.46093C71.9288 8.00247 71.4334 10.9618 71.8904 13.7781L60.8652 19.5829L51.4895 10.3126C49.8463 8.67273 47.6741 7.88678 45.4995 7.88678C43.3248 7.88678 41.1526 8.67273 39.5094 10.3126C39.509 10.3415 39.509 10.3704 39.5094 10.3993L31.3491 18.6298C22.5871 17.8896 13.9711 20.2915 7.82294 26.4272C-4.25813 38.7931 -1.94432 59.9984 11.9899 73.9046C25.9185 87.8052 47.3528 89.8376 59.4762 77.5434V77.4568H59.563C66.0409 71.5165 68.1656 62.8506 67.3761 54.1512L75.4497 45.834H75.3629V45.7474C78.5888 42.462 78.629 37.1377 75.3629 33.8781L65.0322 23.6548L73.9739 18.9764C74.8233 20.172 75.9178 21.2516 77.1859 22.0953C77.4852 22.3509 77.8355 22.5401 78.2136 22.6502C78.5917 22.7604 78.989 22.7891 79.3791 22.7343C79.7691 22.6796 80.143 22.5427 80.4761 22.3328C80.8091 22.1228 81.0935 21.8446 81.3106 21.5166C81.5276 21.1885 81.6723 20.8182 81.735 20.4301C81.7978 20.042 81.7771 19.6451 81.6744 19.2656C81.5716 18.8861 81.3892 18.5327 81.1392 18.2289C80.8892 17.9251 80.5774 17.6779 80.2244 17.5035C79.7327 17.1764 79.2984 16.7283 78.9222 16.2906L80.3112 15.5975C80.9065 15.3262 81.3867 14.8539 81.6672 14.2638C81.9477 13.6737 82.0105 13.0037 81.8444 12.3719C81.6784 11.7402 81.2942 11.1872 80.7596 10.8104C80.225 10.4337 79.5743 10.2574 78.9222 10.3126C78.4957 10.3334 78.0799 10.452 77.7068 10.6592L77.3595 10.8325C77.4942 10.0453 77.7744 9.2584 78.2277 8.57988C80.168 5.67522 84.3536 4.71386 87.1693 6.58721C87.2528 6.64981 87.3398 6.70766 87.4298 6.76049C87.3228 6.7071 89.4091 7.99074 91.0759 9.0997C91.85 9.61475 92.5282 10.1176 93.1594 10.5725C93.6767 10.9454 94.1027 11.2214 94.6352 11.5256C97.5457 13.462 98.5958 17.6392 96.7187 20.4492C96.6877 20.506 96.6588 20.5638 96.6319 20.6225C96.1628 21.4027 95.1894 22.2087 93.8539 22.8751C93.5135 23.0308 93.2082 23.2535 92.9563 23.5299C92.7044 23.8063 92.5111 24.1307 92.388 24.4836C92.2648 24.8364 92.2144 25.2104 92.2397 25.5832C92.2651 25.956 92.3656 26.3198 92.5354 26.6528C92.7052 26.9859 92.9406 27.2812 93.2277 27.5211C93.5147 27.761 93.8473 27.9406 94.2056 28.049C94.5639 28.1574 94.9404 28.1924 95.3126 28.1519C95.6848 28.1114 96.045 27.9963 96.3714 27.8134C98.2965 26.8528 100.035 25.4455 101.233 23.5682H101.32C101.357 23.5122 101.37 23.4513 101.407 23.3949C104.938 17.9046 103.129 10.5055 97.7604 6.93377C97.6769 6.87117 97.59 6.81332 97.5 6.76049C97.7191 6.86984 97.0772 6.51351 96.4582 6.06739C95.8393 5.62126 95.007 5.01519 94.1143 4.42128C92.5786 3.39954 91.4308 2.60419 90.2946 1.99542C90.183 1.9212 90.0605 1.89192 89.9473 1.82215C88.6615 1.02917 87.2784 0.417725 85.8671 0.176034C85.2914 0.0774262 84.7116 0.0152476 84.1309 0.00275907ZM45.4995 13.4316C46.2417 13.4316 47.0038 13.7199 47.5829 14.298L71.4563 37.8634C72.6147 39.0194 72.6147 40.7793 71.4563 41.9353C71.4559 41.9642 71.4559 41.9931 71.4563 42.022L62.5147 51.1189C62.2402 51.4204 62.0357 51.7786 61.9156 52.1679C61.7956 52.5572 61.763 52.9682 61.8202 53.3715C62.8496 61.3337 61.0488 68.658 55.7433 73.4714C55.6844 73.4983 55.6265 73.5272 55.5697 73.5581C46.0089 83.3442 28.1343 82.0459 15.9833 69.9193C3.80441 57.7649 2.22903 40.1392 11.8163 30.3259C16.9641 25.1884 24.2972 23.1548 32.2172 24.1746C32.6417 24.2339 33.0741 24.1944 33.4808 24.0591C33.8874 23.9238 34.2572 23.6965 34.5611 23.3949L43.416 14.298L43.5028 14.2113C44.068 13.69 44.7945 13.4316 45.4995 13.4316ZM91.6836 14.4712C91.3103 14.543 90.9557 14.6904 90.6418 14.9044C88.4576 16.15 86.3588 17.8725 85.1727 20.5359L85.0858 20.4492C85.0594 20.5017 85.1111 20.5698 85.0858 20.6225C83.6393 23.628 83.6569 27.014 84.7386 29.8927C84.7632 29.9807 84.7922 30.0675 84.8254 30.1526C84.7719 30.0459 85.5044 32.0044 86.0408 33.8781C86.6215 35.9067 87.3224 37.5253 87.777 38.4698C87.8099 38.5382 87.8339 38.7567 87.8638 38.8164L88.0375 38.7298C89.4567 42.3289 92.4297 44.9391 95.9374 45.9207L94.722 55.5374L79.6167 58.0499C79.6162 58.0788 79.6162 58.1077 79.6167 58.1366C75.1615 58.945 72.1875 63.0445 72.5849 67.4068C72.6095 67.4948 72.6385 67.5816 72.6717 67.6667L74.4079 78.9296C68.6987 85.428 65.5943 93.7396 66.7685 102.235C66.768 102.264 66.768 102.293 66.7685 102.322C69.5561 119.323 87.9529 129.707 107.483 126.754C127.09 123.789 141.456 107.696 138.649 90.8856C137.192 82.1625 131.422 75.5332 124.065 71.0456L122.328 59.5228C122.299 59.5223 122.27 59.5223 122.241 59.5228C121.431 55.0766 117.324 52.1086 112.953 52.5051C112.866 52.5011 112.779 52.5011 112.692 52.5051L100.452 54.5844L101.58 46.1806C102.229 46.0348 102.795 45.8774 103.316 45.7474C103.374 45.7492 103.432 45.7492 103.49 45.7474C106.869 44.6234 109.03 41.9674 110.348 39.3362C111.874 36.2917 111.883 32.8218 110.782 29.8927C110.729 29.8029 110.671 29.7161 110.609 29.6328C110.661 29.7373 110.012 27.9143 109.48 26.0807C109.471 26.0452 109.489 26.0292 109.48 25.994C109.095 24.512 108.422 23.2583 108.265 22.7884C108.198 22.3939 108.046 22.0184 107.82 21.6879C107.594 21.3573 107.299 21.0795 106.956 20.8735C106.612 20.6675 106.228 20.5381 105.829 20.4944C105.43 20.4506 105.027 20.4935 104.647 20.6201C104.266 20.7466 103.918 20.9538 103.625 21.2275C103.333 21.5011 103.103 21.8347 102.952 22.2054C102.801 22.576 102.732 22.9749 102.75 23.3746C102.768 23.7744 102.872 24.1655 103.056 24.5212C103.451 25.7036 103.926 26.6932 104.098 27.3802C104.097 27.4091 104.097 27.438 104.098 27.4669C104.641 29.3631 105.02 30.7153 105.574 31.8854C106.14 33.3921 106.097 35.4324 105.4 36.8237C104.623 38.3754 103.64 39.4801 102.361 40.116L102.622 38.4698C102.691 38.0484 102.662 37.6166 102.536 37.2082C102.411 36.7999 102.193 36.426 101.899 36.1157C101.604 35.8054 101.243 35.5671 100.841 35.4194C100.439 35.2717 100.009 35.2186 99.5835 35.2643C98.9488 35.3192 98.3522 35.5902 97.8939 36.0319C97.4356 36.4735 97.1432 37.059 97.0659 37.6901L96.7187 40.3759C95.0797 39.6818 93.6204 38.3373 92.9858 36.5638C92.9611 36.4758 92.9322 36.3891 92.8989 36.3039C92.7868 36.0801 91.9115 34.0245 91.4231 32.3186C90.8806 30.4236 90.4135 29.1563 89.8605 27.9867H89.9473C89.3812 26.48 89.4239 24.3531 90.121 22.9617C90.1228 22.904 90.1228 22.8462 90.121 22.7884C90.6147 21.6386 91.7473 20.6233 93.4198 19.6695C93.97 19.3672 94.4013 18.8877 94.6434 18.3094C94.8855 17.731 94.9241 17.0878 94.7529 16.4848C94.5817 15.8817 94.2108 15.3543 93.7007 14.9886C93.1906 14.623 92.5713 14.4406 91.944 14.4712C91.8572 14.4672 91.7703 14.4672 91.6836 14.4712ZM54.7016 27.1203C53.6945 27.1203 52.7049 27.5882 52.0104 28.4199C51.177 29.2516 50.9686 30.0833 50.9686 31.1923L49.5796 32.5785C48.4684 33.6875 48.4684 35.2816 49.5796 36.3905C50.6908 37.4995 52.2882 37.4995 53.3994 36.3905L54.7884 35.0043C55.6218 35.0043 56.733 34.7964 57.5664 33.9647C59.2332 32.3012 59.2332 29.8061 57.5664 28.4199C56.733 27.5882 55.7086 27.1203 54.7016 27.1203ZM27.0953 29.8061C22.8667 30.0428 18.8476 31.5393 15.8965 34.4845C11.9474 38.4257 10.6943 44.2002 11.5559 49.906C12.4174 55.6119 15.3457 61.399 20.0635 66.1072C20.0924 66.1077 20.1213 66.1077 20.1503 66.1072C24.872 70.6675 30.6765 73.5185 36.3842 74.3378C42.0918 75.1571 47.8008 73.9471 51.7499 70.0059C55.699 66.0648 56.9521 60.2903 56.0905 54.5844C55.229 48.8786 52.3007 43.0915 47.5829 38.3832C42.8546 33.6644 37.0715 30.7617 31.3491 29.9794C29.9184 29.7838 28.5048 29.7272 27.0953 29.8061ZM27.3557 35.3509C28.3802 35.3025 29.4634 35.3732 30.5677 35.5242C34.985 36.128 39.7929 38.4063 43.6764 42.2819C47.5704 46.1681 49.955 51.0374 50.6214 55.4508C51.2878 59.8642 50.2837 63.6719 47.8434 66.1072C45.4031 68.5426 41.5975 69.5158 37.1655 68.8796C32.7335 68.2434 27.8601 65.8789 23.97 62.1219C20.107 58.2446 17.7753 53.4333 17.1119 49.0396C16.4455 44.6262 17.3628 40.8186 19.803 38.3832C21.6439 36.546 24.2822 35.496 27.3557 35.3509ZM113.387 58.0499C113.418 58.0472 113.442 58.0521 113.473 58.0499C115.123 57.9377 116.431 58.8457 116.772 60.3892L118.769 72.865C118.834 73.2805 118.993 73.6758 119.233 74.0211C119.474 74.3663 119.79 74.6524 120.158 74.8576C127.114 78.7142 131.95 84.3907 133.18 91.752C135.373 104.883 123.679 118.715 106.615 121.295C89.5108 123.882 74.584 114.905 72.3244 101.455C72.3205 101.426 72.3283 101.398 72.3244 101.369C71.3756 94.2864 74.0516 87.1615 79.3562 81.6154C79.6431 81.3041 79.8548 80.9315 79.9751 80.5261C80.0955 80.1206 80.1214 79.6931 80.0507 79.2761L78.1409 66.9736C78.1381 66.9419 78.143 66.9184 78.1409 66.887V66.8003C78.0662 65.1541 78.9757 63.7977 80.5716 63.5081V63.5947L113.387 58.0499ZM97.5868 63.5947C95.3644 63.872 94.0101 66.0553 94.2879 68.2732C94.5657 69.3821 95.104 70.2312 95.9374 70.7857C95.9374 71.3401 96.1978 72.1545 96.1978 72.4318C96.4756 73.818 97.8472 74.9616 99.2362 74.6844C100.625 74.4071 101.771 73.0382 101.493 71.652C101.493 71.3748 101.233 70.5604 101.233 70.0059C102.066 69.1742 102.292 67.9959 102.014 66.887C101.736 64.669 99.8092 63.3175 97.5868 63.5947ZM104.792 76.7637C103.196 76.7762 101.567 76.931 99.9307 77.1968C93.3826 78.2607 87.6958 81.3191 83.6968 85.4274C79.6978 89.5358 77.3711 94.8583 78.2277 100.329C79.0776 105.927 82.9297 110.398 88.0375 113.065C93.1452 115.731 99.5487 116.727 106.094 115.664C112.643 114.6 118.416 111.628 122.415 107.52C126.414 103.412 128.741 98.0025 127.884 92.5317C127.034 86.9336 123.095 82.549 117.988 79.8826C115.434 78.5494 112.537 77.5689 109.48 77.1102C107.952 76.8809 106.388 76.7511 104.792 76.7637ZM104.792 82.3085C108.734 82.2902 112.443 83.1993 115.383 84.7343C119.304 86.781 121.789 89.8472 122.328 93.3981C122.861 96.799 121.507 100.452 118.422 103.621C115.337 106.791 110.624 109.329 105.226 110.206C99.8266 111.083 94.5626 110.173 90.6418 108.126C86.7211 106.08 84.2359 103.014 83.6968 99.4627C83.1644 96.0618 84.6053 92.4087 87.6902 89.2395C90.7751 86.0703 95.4016 83.5319 100.799 82.655C102.149 82.4357 103.478 82.3145 104.792 82.3085Z" fill="white"/>
</svg>
