<svg width="65" height="65" viewBox="0 0 65 65" fill="none" xmlns="http://www.w3.org/2000/svg">
<path d="M40.5811 2.22266C40.3465 0.935482 39.2251 9.15527e-05 37.9167 9.15527e-05C17.0664 9.15527e-05 0 14.4413 0 32.5001C0 50.5589 17.0664 65.0001 37.9167 65.0001C39.2251 65.0001 40.3465 64.0647 40.5811 62.7775L40.8547 61.2771C44.1585 41.8358 44.1599 22.3616 40.8569 3.73594L40.5811 2.22266ZM35.6572 59.519C18.6838 58.5482 5.41671 46.7229 5.41671 32.5001C5.41671 18.2756 18.687 6.44918 35.6632 5.48078C38.6708 22.9751 38.6694 41.2623 35.6572 59.519Z" fill="white"/>
<path d="M51.4583 10.8333H62.2916C63.7875 10.8333 65 9.62082 65 8.12505C65 6.62929 63.7875 5.41676 62.2917 5.41676H51.4584C49.9625 5.41676 48.75 6.62929 48.75 8.12505C48.75 9.62082 49.9625 10.8333 51.4583 10.8333Z" fill="white"/>
<path d="M62.2917 21.6668H51.4584C49.9625 21.6668 48.75 22.8793 48.75 24.3751C48.75 25.8708 49.9625 27.0833 51.4583 27.0833H62.2916C63.7873 27.0833 64.9999 25.8708 64.9999 24.3751C64.9999 22.8793 63.7875 21.6668 62.2917 21.6668Z" fill="white"/>
<path d="M62.2917 37.9168H51.4584C49.9625 37.9168 48.75 39.1293 48.75 40.6251C48.75 42.1208 49.9625 43.3333 51.4583 43.3333H62.2916C63.7873 43.3333 64.9999 42.1208 64.9999 40.6251C64.9999 39.1293 63.7875 37.9168 62.2917 37.9168Z" fill="white"/>
<path d="M62.2917 54.1668H51.4584C49.9625 54.1668 48.75 55.3793 48.75 56.8751C48.75 58.3708 49.9625 59.5833 51.4583 59.5833H62.2916C63.7873 59.5833 64.9999 58.3708 64.9999 56.8751C65 55.3793 63.7875 54.1668 62.2917 54.1668Z" fill="white"/>
</svg>
