<svg width="75" height="128" viewBox="0 0 75 128" fill="none" xmlns="http://www.w3.org/2000/svg">
<path fill-rule="evenodd" clip-rule="evenodd" d="M54.1507 26.632C54.1507 26.632 63.1946 37.4179 66.2733 41.0719C72.7569 48.8537 74.6811 53.3758 74.8308 63.235V117.181C74.7506 123.008 70.2394 127.626 64.5415 127.828C46.5394 128.057 28.5373 128.057 10.5351 127.828C4.79986 127.626 0.0374154 122.944 0 117.181V63.203C0.0481055 52.3372 3.13755 47.6446 10.4122 39.1916C13.5711 35.5217 20.7869 26.632 20.7869 26.632H54.1507ZM64.1407 106.528H10.6901V117.181H64.1407V106.528ZM42.7604 69.2432H32.0703V79.896H21.3802V90.5488H32.0703V101.202H42.7604V90.5488H53.5735L53.4506 79.896H42.7604V69.2432ZM49.415 37.2848H25.5921C22.2034 41.4767 19.0498 45.3916 17.6333 47.1759C12.1493 54.1002 10.7222 56.8007 10.6901 63.9168H64.1407C64.0712 56.7474 63.1572 54.5583 58.0633 47.895C56.6309 46.0147 53.0978 41.7323 49.415 37.2848ZM58.7956 21.3056H16.0352V5.3264C16.0352 2.38623 18.4298 0 21.3802 0H53.4506C56.401 0 58.7956 2.38623 58.7956 5.3264V21.3056Z" fill="white"/>
</svg>
