<svg width="30" height="30" viewBox="0 0 30 30" fill="none" xmlns="http://www.w3.org/2000/svg">
<rect width="30" height="30" rx="10" fill="#F19920"/>
<path d="M18.6028 17.5778L16.6922 16.6226C16.512 16.5324 16.4 16.3512 16.4 16.1496V15.4734C16.4458 15.4174 16.494 15.3536 16.5438 15.2832C16.7916 14.9332 16.9902 14.5436 17.1346 14.1234C17.4168 13.994 17.6 13.715 17.6 13.4V12.6C17.6 12.4074 17.528 12.2208 17.4 12.075V11.0112C17.4112 10.9012 17.4552 10.2464 16.9816 9.7062C16.5708 9.2376 15.9042 9 15 9C14.0958 9 13.4292 9.2376 13.0184 9.706C12.5448 10.2462 12.5888 10.9012 12.6 11.0112V12.075C12.472 12.2208 12.4 12.4074 12.4 12.6V13.4C12.4 13.6434 12.5106 13.8704 12.6994 14.0218C12.8826 14.7472 13.266 15.2938 13.4 15.4692V16.131C13.4 16.3246 13.2944 16.5022 13.1246 16.595L11.3404 17.5682C10.7602 17.8848 10.4 18.4916 10.4 19.1524V19.8C10.4 20.7492 13.409 21 15 21C16.591 21 19.6 20.7492 19.6 19.8V19.1914C19.6 18.5038 19.2178 17.8854 18.6028 17.5778Z" fill="white"/>
</svg>
