<svg width="136" height="128" viewBox="0 0 136 128" fill="none" xmlns="http://www.w3.org/2000/svg">
<path d="M121.176 25.9915L108.307 0H46.5715L33.7014 25.9915H0V62.983H11.7207C13.6811 70.3244 20.3864 75.749 28.3374 75.749C36.2884 75.749 42.9937 70.3247 44.9541 62.983H52.1269L62.5183 74.8043L48.2306 91.0584L62.5183 107.313L52.1269 119.135H36.0816V128H100.759V119.135H84.7131L74.3216 107.313L88.6094 91.0584L74.3216 74.8043L84.7131 62.983H91.8859C93.8463 70.3244 100.552 75.749 108.503 75.749C116.454 75.749 123.159 70.3247 125.119 62.983H135.933V25.9915H121.176ZM81.8715 8.86535H102.804L111.284 25.9918H81.8715V8.86535ZM52.0738 8.86535H73.0064V25.9918H43.5935L52.0738 8.86535ZM28.3372 66.8836C23.742 66.8836 20.0036 63.1455 20.0036 58.5503C20.0036 53.9551 23.742 50.2167 28.3372 50.2167C32.9323 50.2167 36.6707 53.9551 36.6707 58.5503C36.6707 63.1455 32.932 66.8836 28.3372 66.8836ZM63.9297 119.135L68.4197 114.027L72.9092 119.135H63.9297ZM76.8056 91.0581L68.4195 100.599L60.0333 91.0581L68.4195 81.5181L76.8056 91.0581ZM63.93 62.983H72.9092L68.4197 68.0905L63.93 62.983ZM108.502 66.8836C103.907 66.8836 100.168 63.1455 100.168 58.5503C100.168 53.9551 103.907 50.2167 108.502 50.2167C113.097 50.2167 116.836 53.9551 116.836 58.5503C116.836 63.1455 113.097 66.8836 108.502 66.8836ZM127.067 54.1179H125.118C123.158 46.7765 116.453 41.3516 108.502 41.3516C100.551 41.3516 93.8455 46.7762 91.8851 54.1179H44.9536C42.9932 46.7765 36.2879 41.3516 28.3369 41.3516C20.3859 41.3516 13.6806 46.7762 11.7202 54.1179H8.86508V34.8569H36.4522H39.2038H115.674H118.425H127.067V54.1179Z" fill="white"/>
</svg>
