<svg width="154" height="128" viewBox="0 0 154 128" fill="none" xmlns="http://www.w3.org/2000/svg">
<path d="M38.4 32L89.6 0V128L38.4 96V32ZM0 96H25.6V32H0V96ZM129.69 11.1104L120.109 20.6912C131.93 32.1024 139.2 47.296 139.2 64C139.2 80.704 131.936 95.8976 120.109 107.302L129.696 116.89C144.448 103.11 153.6 84.5376 153.6 64C153.6 43.4624 144.448 24.896 129.69 11.1104ZM126.56 64C126.56 50.6624 120.704 38.6112 111.302 29.4976L101.683 39.1168C108.154 45.8304 112.16 54.4832 112.16 64C112.16 73.5232 108.173 82.1824 101.702 88.9024L111.322 98.5216C120.717 89.408 126.56 77.344 126.56 64Z" fill="white"/>
</svg>
