<svg width="140" height="129" viewBox="0 0 140 129" fill="none" xmlns="http://www.w3.org/2000/svg">
<path d="M104.204 59.182C103.881 69.4836 92.2172 75.8761 58.9828 75.8761C25.6786 75.8761 14.0359 69.4516 13.7616 59.1126C21.8712 59.1126 37.3106 48.6562 58.9828 48.6562C80.1012 48.6508 97.4013 59.182 104.204 59.182ZM58.9882 81.0242C47.8994 81.0242 38.8755 80.3246 31.6802 78.9041C32.0136 81.868 34.2023 96.6448 44.6351 96.6448C53.8901 96.6448 53.632 89.6169 59.2679 89.6169C64.8983 89.6169 65.5544 96.6448 74.6051 96.6448C85.8446 96.6448 87.8343 80.2872 88.0172 78.5462C80.5583 80.2071 70.9752 81.0242 58.9882 81.0242ZM93.4325 77.067C93.2174 88.6609 89.5767 102.535 81.1713 111.443C75.5355 117.419 68.3885 120.452 59.9347 120.452C51.4648 120.452 44.3501 117.606 38.7949 112.004C29.9431 103.069 26.4154 88.7998 25.9099 77.4995C23.0973 76.6558 20.4784 75.6464 17.9293 74.1458C17.8433 87.3472 21.7152 105.878 33.0999 117.371C40.2038 124.532 49.233 128.169 59.9347 128.169C70.5396 128.169 79.8968 124.19 87.0008 116.671C98.4607 104.533 101.843 86.3432 101.311 73.3554C98.8425 75.0002 96.2343 76.1377 93.4325 77.067ZM59.8917 18.4083L58.2085 21.7353L54.4387 22.2694L57.1652 24.8595L56.5252 28.5176L59.8917 26.7873L63.2635 28.5176L62.6182 24.8595L65.3447 22.2694L61.5803 21.7353L59.8917 18.4083ZM98.6704 17.3082C98.6704 17.3082 85.0271 13.6447 59.1549 0C33.2773 13.6447 19.6394 17.3082 19.6394 17.3082C19.6394 17.3082 12.6753 30.1251 0 44.0955L12.1859 54.2849C20.43 53.4038 37.1385 43.1663 59.1549 43.1663C81.1713 43.1663 97.8799 53.4038 106.124 54.2903L118.31 44.0955C105.635 30.1251 98.6704 17.3082 98.6704 17.3082ZM64.5488 34.4721C61.7201 35.1717 61.2953 35.4761 59.8433 36.619C58.3967 35.4761 57.9665 35.1717 55.1378 34.4721C51.2067 33.4948 48.948 30.9688 48.948 27.535C48.948 25.6178 49.7385 23.8448 50.6581 21.4149C51.6907 18.6753 51.1045 17.8102 50.0182 16.7047L49.0986 15.7648L54.4064 11.391C54.9334 11.9144 55.6702 12.8756 57.02 12.8756C58.3536 12.8756 59.2571 11.9411 59.8594 11.4284C60.4079 11.909 61.3006 12.8756 62.672 12.8756C64.0056 12.8756 64.7209 11.9624 65.307 11.375L70.5933 15.7701L69.6684 16.71C68.5821 17.8155 67.9959 18.6806 69.0284 21.4202C69.9426 23.8501 70.7385 25.6178 70.7385 27.5403C70.7385 30.9635 68.4799 33.4948 64.5488 34.4721Z" fill="white"/>
<path d="M140 97.359H127.43V84.7886H119.049V97.359H106.479V105.739H119.049V118.31H127.43V105.739H140V97.359Z" fill="white"/>
</svg>
