<svg width="138" height="129" viewBox="0 0 138 129" fill="none" xmlns="http://www.w3.org/2000/svg">
<path d="M102.623 51.4582C102.623 51.4582 108.204 47.2145 103.956 42.9708C99.7073 38.7271 95.5773 44.2034 95.5773 44.2034L52.8719 86.9179C52.8719 86.9179 42.8699 99.8264 35.2649 92.0213C27.669 84.207 40.3637 74.4097 40.3637 74.4097L96.3596 18.4183C96.3596 18.4183 109.427 4.02247 121.713 16.2987C133.98 28.5795 119.543 41.6745 119.543 41.6745L56.6244 104.593C56.6244 104.593 36.493 127.849 17.858 109.21C-0.776998 90.5703 22.7066 70.6663 22.7066 70.6663L70.4744 22.8849C70.4744 22.8849 75.8234 18.4183 71.8162 14.3975C67.7908 10.3812 63.3334 15.7393 63.3334 15.7393L8.52003 70.5526C8.52003 70.5526 -12.1709 93.2448 10.9353 116.346C34.0414 139.462 56.7472 118.771 56.7472 118.771L132.083 43.4257C132.083 43.4257 147.157 26.8011 129.186 8.82108C111.215 -9.15893 94.5857 5.91462 94.5857 5.91462L29.7613 70.73C29.7613 70.73 13.1594 84.2343 28.2239 99.2897C43.2884 114.363 56.5471 97.5158 56.5471 97.5158L102.623 51.4582Z" fill="white"/>
<path d="M138 121.88L124.339 108.394L137.811 94.788L131.737 88.7144L118.246 102.38L104.594 88.9033L98.5712 94.926L112.241 108.463L98.7601 122.12L104.783 128.143L118.315 114.478L131.926 127.954L138 121.88Z" fill="white"/>
</svg>
