<svg width="66" height="66" viewBox="0 0 66 66" fill="none" xmlns="http://www.w3.org/2000/svg">
<path d="M25.5547 28.32C25.44 29.7574 24.7013 31.248 23.6293 32.2106C23.2639 32.5386 23.1067 33.0453 23.2267 33.5253L23.7707 35.7039C23.8907 36.1813 24.2613 36.5545 24.7413 36.6745L29.5173 37.8665C30.1759 38.0291 30.7893 38.3465 31.3413 38.8105C31.9067 39.2825 32.7467 39.2105 33.2213 38.6425C33.6907 38.0771 33.6159 37.2371 33.0533 36.7625C32.1893 36.0399 31.2187 35.5411 30.1653 35.2745L26.1627 34.2771L25.9947 33.6051C27.032 32.4585 27.7707 30.9945 28.0747 29.4745C28.7867 29.1065 29.3067 28.4051 29.4107 27.5651L29.6987 25.2505C29.7867 24.5491 29.5707 23.8371 29.104 23.3065C28.96 23.1411 28.7947 22.9971 28.616 22.8771L28.6854 21.4611L28.928 21.2157C29.616 20.4877 30.5467 18.9251 29.0747 16.6771C28.376 15.6105 26.9387 14.3331 24.0507 14.3331C23.2 14.3331 21.2827 14.3331 19.4213 15.5037C13.9333 15.6957 13.2879 18.6531 13.2879 20.8851C13.2879 21.3251 13.3679 22.1491 13.4425 22.8371C13.2451 22.9625 13.0665 23.1171 12.9065 23.2957C12.4319 23.8317 12.2131 24.5464 12.3039 25.2504L12.5919 27.5704C12.7013 28.4398 13.2533 29.1598 14.0665 29.5144C14.3651 30.9704 15.0639 32.3758 16.0371 33.4958L15.8425 34.2798L11.8399 35.2771C8.59988 36.0878 6.33325 38.9891 6.33325 42.3332C6.33325 43.0692 6.93063 43.6665 7.66663 43.6665H26.4853C27.2213 43.6665 27.8187 43.0692 27.8187 42.3332C27.8187 41.5972 27.2214 41 26.4854 41L9.20001 40.9974C9.65601 39.4748 10.8854 38.264 12.4906 37.864L17.2693 36.672C17.7466 36.552 18.1199 36.1814 18.2399 35.7014L18.8079 33.4268C18.9253 32.9601 18.7785 32.4641 18.4239 32.1334C17.3865 31.1548 16.7013 29.728 16.5865 28.3148C16.5305 27.6214 15.9385 27.2401 15.2425 27.2401L14.8985 25.1147C15.2825 25.1147 15.6451 24.9494 15.8985 24.6641C16.1519 24.3735 16.2691 23.9947 16.2211 23.6135C16.1198 22.8081 15.9571 21.3549 15.9571 20.8829C15.9571 19.5042 15.9571 18.2002 19.8558 18.1602C20.1278 18.1576 20.3944 18.0722 20.6184 17.9096C21.888 17 23.3494 17 24.0507 17C26.0987 17 26.656 17.8534 26.8507 18.1386C27.392 18.9706 27.1707 19.2052 27.0213 19.3652L26.4427 19.9439C26.208 20.1785 26.0693 20.4905 26.0533 20.8212L25.9093 23.7252C25.8933 24.0879 25.9359 24.3386 26.1867 24.6052C26.4347 24.8692 26.6933 24.9199 27.056 24.9252L26.8827 27.0906C26.1867 27.0906 25.6107 27.624 25.5547 28.32Z" fill="white" stroke="white"/>
<path d="M39.6666 22.3334H47.6666C48.4026 22.3334 49 21.736 49 21C49 20.264 48.4026 19.6667 47.6666 19.6667H39.6666C38.9306 19.6667 38.3333 20.264 38.3333 21C38.3333 21.736 38.9306 22.3334 39.6666 22.3334Z" fill="white" stroke="white"/>
<path d="M58.3335 1H7.66664C3.98938 1 1 3.98938 1 7.66664V42.3333C1 46.0107 3.98938 49.0001 7.66664 49.0001H27.3947C28.1333 49.0001 28.7281 48.4027 28.7281 47.6667C28.7281 46.9307 28.1307 46.3333 27.3947 46.3333H7.66664C5.46126 46.3333 3.66663 44.5387 3.66663 42.3333V11.6666H62.3334V37.8267C62.3334 38.5627 62.9307 39.1601 63.6667 39.1601C64.4027 39.1601 65.0001 38.5627 65.0001 37.8267V7.66664C65.0001 3.98938 62.0107 1 58.3335 1ZM62.3335 9.00002H3.66663V7.66664C3.66663 5.46126 5.46126 3.66663 7.66664 3.66663H58.3334C60.5387 3.66663 62.3334 5.46126 62.3334 7.66664V9.00002H62.3335Z" fill="white" stroke="white"/>
<path d="M58.3335 22.3334C59.0695 22.3334 59.6669 21.736 59.6669 21C59.6669 20.264 59.0695 19.6667 58.3335 19.6667H53.0001C52.2641 19.6667 51.6667 20.264 51.6667 21C51.6667 21.736 52.2641 22.3334 53.0001 22.3334H58.3335Z" fill="white" stroke="white"/>
<path d="M64.9999 43.6667C64.9999 42.552 64.1706 41.7733 62.9839 41.7733C62.3146 41.7733 61.1679 42.1173 60.1813 42.6853C58.8773 39.9333 56.7439 37.4933 55.2159 36.7333C54.2053 36.2293 50.7625 35.6667 47.6665 35.6667C44.5705 35.6667 41.1279 36.2293 40.1145 36.7333C38.5919 37.4933 36.4585 39.9333 35.1519 42.6853C34.1625 42.1173 33.0159 41.7733 32.3465 41.7733C31.8399 41.7733 31.4051 41.9039 31.0559 42.1679C30.5919 42.5173 30.3333 43.0505 30.3333 43.6665C30.3333 45.7465 31.9466 47.1892 32.1333 47.3466C32.2773 47.4692 32.4426 47.5466 32.6133 47.5999C31.9759 49.3679 31.6666 51.3306 31.6666 52.9999C31.6666 54.9919 31.8506 58.3893 33 60.1253V62.3333C33 63.8293 34.1706 65 35.6666 65H38.3333C39.8293 65 40.9999 63.8293 40.9999 62.3333V61.4293C42.6105 61.832 45.1225 62.3333 47.6665 62.3333C50.2105 62.3333 52.7225 61.832 54.3332 61.4293V62.3333C54.3332 63.8293 55.5038 65 56.9998 65H59.6664C61.1624 65 62.3331 63.8293 62.3331 62.3333V60.1253C63.4824 58.3893 63.6664 54.9919 63.6664 52.9999C63.6664 51.3306 63.3571 49.3679 62.7198 47.5999C62.8904 47.5493 63.0558 47.4719 63.1998 47.3466C63.3866 47.1894 64.9999 45.7467 64.9999 43.6667ZM41.3013 39.1227C41.7999 38.8933 44.6453 38.3333 47.6667 38.3333C50.688 38.3333 53.5333 38.8933 54.024 39.1173C55.0347 39.6239 57.3814 42.2827 58.3147 45.1813C55.8081 45.5333 49.8827 46.3333 47.6667 46.3333C45.4507 46.3333 39.5226 45.5333 37.016 45.1813C37.9493 42.2827 40.2959 39.624 41.3013 39.1227ZM33.7705 45.2267C33.6851 45.1413 33.5545 45.0027 33.3999 44.776C33.5759 44.8587 33.7439 44.952 33.9013 45.0454C33.8585 45.1067 33.8133 45.1627 33.7705 45.2267ZM38.3333 62.3335H35.6666V61.0001H38.3333V62.3335ZM59.6666 62.3335H56.9999V61.0001H59.6666V62.3335ZM60.2799 58.3334H55.6665C55.5252 58.3334 55.3839 58.3575 55.2452 58.4001C55.2078 58.4135 51.3892 59.6667 47.6665 59.6667C43.9439 59.6667 40.1251 58.4133 40.0879 58.4027C40.0425 58.3893 39.9973 58.4001 39.9519 58.3921C39.8585 58.3707 39.7679 58.3334 39.6665 58.3334H35.0479C34.6985 57.5361 34.3305 55.6988 34.3305 53.0028C34.3305 52.5788 34.3625 52.1282 34.4105 51.6722C36.2025 51.7228 38.3331 52.3282 38.3331 53.0002C38.3331 53.7362 38.9305 54.3336 39.6665 54.3336C40.4025 54.3336 40.9999 53.7361 40.9999 53.0001C40.9999 49.7414 36.5999 49.1414 34.9333 49.0294C35.0826 48.5414 35.2613 48.0828 35.4639 47.6508C35.4665 47.6508 35.4693 47.6534 35.4719 47.6534C35.8453 47.7094 44.6479 49.0001 47.6665 49.0001C50.6852 49.0001 59.4879 47.7094 59.8612 47.6534C59.8638 47.6534 59.8638 47.6508 59.8666 47.6508C60.0692 48.0828 60.2479 48.5414 60.3972 49.0294C58.7306 49.1414 54.3332 49.7441 54.3332 53.0001C54.3332 53.7361 54.9305 54.3334 55.6665 54.3334C56.4026 54.3334 56.9999 53.7361 56.9999 53.0001C56.9999 52.3147 59.1173 51.7281 60.9199 51.6721C60.9679 52.1281 60.9999 52.5787 60.9999 53.0001C60.9999 55.6987 60.6293 57.5361 60.2799 58.3334ZM61.5599 45.224C61.5173 45.1627 61.4746 45.104 61.4293 45.0454C61.5867 44.952 61.7573 44.856 61.9307 44.7734C61.7999 44.9707 61.6666 45.1174 61.5599 45.224Z" fill="white" stroke="white"/>
<path d="M39.6666 30.3334H58.3333C59.0693 30.3334 59.6667 29.736 59.6667 29C59.6667 28.264 59.0693 27.6667 58.3333 27.6667H39.6666C38.9306 27.6667 38.3333 28.264 38.3333 29C38.3333 29.736 38.9306 30.3334 39.6666 30.3334Z" fill="white" stroke="white"/>
<path d="M50.3335 51.6667H45.0001C44.2641 51.6667 43.6667 52.264 43.6667 53C43.6667 53.736 44.2641 54.3334 45.0001 54.3334H50.3335C51.0695 54.3334 51.6669 53.736 51.6669 53C51.6668 52.264 51.0695 51.6667 50.3335 51.6667Z" fill="white" stroke="white"/>
</svg>
