<svg width="109" height="128" viewBox="0 0 109 128" fill="none" xmlns="http://www.w3.org/2000/svg">
<path d="M54.2053 31.7815C63.072 31.7815 71.71 34.5951 78.8757 39.8172C86.0414 45.0394 91.3652 52.4006 94.0807 60.8413C96.7961 69.282 96.7631 78.3666 93.9863 86.7873C91.2096 95.2079 85.8324 102.53 78.6289 107.7C71.4254 112.87 62.7672 115.621 53.9007 115.556C45.0343 115.492 36.417 112.615 29.2894 107.341L54.2053 73.6695V31.7815Z" fill="white"/>
<path d="M62.9496 1.2925V10.12C62.9499 10.2898 62.9168 10.4581 62.8519 10.615C62.7871 10.772 62.6919 10.9146 62.5718 11.0347C62.4518 11.1548 62.3091 11.25 62.1521 11.3148C61.9952 11.3797 61.8269 11.4129 61.6571 11.4125H60.6671V15.7025C58.5216 15.4585 56.3639 15.3392 54.2046 15.345C52.2945 15.3399 50.3854 15.4317 48.4846 15.62V11.4125H47.5221C47.3523 11.4129 47.184 11.3797 47.0271 11.3148C46.8701 11.25 46.7275 11.1548 46.6074 11.0347C46.4873 10.9146 46.3921 10.772 46.3273 10.615C46.2624 10.4581 46.2293 10.2898 46.2296 10.12V1.2925C46.2293 1.12267 46.2624 0.954432 46.3273 0.797455C46.3921 0.640478 46.4873 0.49785 46.6074 0.377759C46.7275 0.257667 46.8701 0.162476 47.0271 0.09765C47.184 0.0328242 47.3523 -0.000359571 47.5221 2.93833e-06H61.6571C61.8269 -0.000359571 61.9952 0.0328242 62.1521 0.09765C62.3091 0.162476 62.4518 0.257667 62.5718 0.377759C62.6919 0.49785 62.7871 0.640478 62.8519 0.797455C62.9168 0.954432 62.9499 1.12267 62.9496 1.2925Z" fill="white"/>
<path d="M20.7376 25.9602C18.1323 27.7547 15.6933 29.7795 13.4501 32.0102L11.8551 30.0027L11.4701 30.3327C11.2029 30.5453 10.8628 30.6443 10.5232 30.6082C10.1836 30.5722 9.87181 30.4041 9.6551 30.1402L6.74011 26.5927C6.62877 26.463 6.54513 26.3119 6.49432 26.1487C6.4435 25.9855 6.42659 25.8137 6.44462 25.6437C6.46264 25.4737 6.51522 25.3092 6.59914 25.1603C6.68306 25.0114 6.79654 24.8812 6.93261 24.7777L15.0176 18.2327C15.2848 18.0202 15.625 17.9212 15.9645 17.9572C16.3041 17.9932 16.6159 18.1613 16.8326 18.4252L19.7476 21.9452C19.8589 22.0776 19.9424 22.231 19.9931 22.3963C20.0438 22.5616 20.0606 22.7354 20.0427 22.9074C20.0247 23.0793 19.9723 23.2459 19.8885 23.3972C19.8047 23.5484 19.6913 23.6813 19.5551 23.7877L19.1976 24.0627L20.7376 25.9602Z" fill="white"/>
<path d="M102.386 26.5927L99.4983 30.1402C99.2812 30.4035 98.9694 30.5712 98.6301 30.6071C98.2907 30.6431 97.9508 30.5446 97.6833 30.3327L97.2983 30.0027L95.3733 32.3952C93.1636 30.1818 90.7719 28.158 88.2233 26.3452L89.9283 24.0627L89.5708 23.7877C89.3069 23.565 89.1394 23.2487 89.1035 22.9052C89.0676 22.5618 89.1661 22.2177 89.3783 21.9452L92.2933 18.4252C92.51 18.1613 92.8218 17.9932 93.1614 17.9572C93.5009 17.9212 93.841 18.0202 94.1083 18.2327L102.221 24.7777C102.353 24.8848 102.462 25.0172 102.541 25.1671C102.621 25.317 102.67 25.4813 102.686 25.6505C102.701 25.8196 102.682 25.9901 102.631 26.1519C102.579 26.3137 102.496 26.4636 102.386 26.5927Z" fill="white"/>
<path d="M54.5784 70.3943C53.93 70.3943 53.2961 70.5866 52.757 70.9469C52.2179 71.3072 51.7977 71.8193 51.5497 72.4185C51.3017 73.0176 51.2369 73.6769 51.3636 74.3128C51.4903 74.9487 51.8028 75.5328 52.2615 75.9912C52.7202 76.4495 53.3045 76.7615 53.9406 76.8876C54.5766 77.0138 55.2358 76.9485 55.8348 76.7C56.4337 76.4514 56.9454 76.0309 57.3053 75.4914C57.6652 74.952 57.857 74.318 57.8564 73.6695C57.8542 72.8011 57.5081 71.9689 56.8937 71.355C56.2794 70.7412 55.4469 70.3957 54.5784 70.3943Z" fill="white"/>
<path d="M54.2052 19.4646C43.4845 19.4646 33.0044 22.6437 24.0904 28.5998C15.1764 34.556 8.22881 43.0217 4.12614 52.9264C0.0234795 62.8311 -1.04996 73.7299 1.04156 84.2447C3.13308 94.7595 8.29563 104.418 15.8764 111.999C23.4571 119.579 33.1155 124.742 43.6303 126.833C54.1451 128.925 65.044 127.852 74.9487 123.749C84.8534 119.646 93.3191 112.699 99.2752 103.785C105.231 94.8706 108.41 84.3906 108.41 73.6698C108.41 66.5515 107.008 59.5028 104.284 52.9264C101.56 46.3499 97.5675 40.3744 92.5341 35.3409C87.5007 30.3075 81.5252 26.3148 74.9487 23.5907C68.3722 20.8667 61.3236 19.4646 54.2052 19.4646ZM94.1105 96.7093C94.0967 96.7313 94.072 96.7368 94.0582 96.7588C90.0189 103.699 84.246 109.471 77.3052 113.509C77.2777 113.528 77.2639 113.559 77.2337 113.575C77.2034 113.592 77.1925 113.575 77.176 113.592C70.1962 117.648 62.2671 119.785 54.1942 119.785C46.1213 119.785 38.1923 117.648 31.2125 113.592C31.196 113.592 31.174 113.592 31.1547 113.575C31.1355 113.559 31.1107 113.528 31.0832 113.509C24.1464 109.469 18.3775 103.698 14.3413 96.7588C14.3413 96.7368 14.3028 96.7313 14.289 96.7093C14.2753 96.6873 14.289 96.6598 14.2643 96.635C10.2143 89.6601 8.08111 81.7381 8.08111 73.6726C8.08111 65.6071 10.2143 57.685 14.2643 50.7101C14.2643 50.6853 14.2643 50.6606 14.289 50.6358C14.3138 50.6111 14.3358 50.5918 14.355 50.5616C18.397 43.6294 24.1685 37.8646 31.1052 33.8306C31.1327 33.8113 31.1465 33.7811 31.1768 33.7646C31.207 33.7481 31.2263 33.7646 31.251 33.7398C38.2265 29.6915 46.1483 27.5593 54.2135 27.5593C62.2786 27.5593 70.2004 29.6915 77.176 33.7398C77.2007 33.7398 77.2255 33.7398 77.2502 33.7646C77.275 33.7893 77.2942 33.8113 77.3217 33.8306C84.2497 37.8661 90.0133 43.6287 94.0499 50.5561C94.0692 50.5863 94.0994 50.6001 94.1159 50.6303C94.1324 50.6606 94.116 50.6798 94.1407 50.7046C98.1907 57.6795 100.324 65.6016 100.324 73.667C100.324 81.7325 98.1907 89.6546 94.1407 96.6295C94.1215 96.6625 94.1242 96.6873 94.1105 96.7093Z" fill="white"/>
<path d="M26.4706 62.243H20.978C20.2819 62.243 19.7108 61.6561 19.7108 60.9255C19.7108 60.5961 19.8308 60.2684 20.0589 60.0179C22.9057 56.9079 27.9861 51.3538 30.3125 48.8115C30.6318 48.4611 31.0762 48.2649 31.5374 48.2649C32.0003 48.2649 32.443 48.4611 32.7623 48.8115C35.0888 51.3538 40.1708 56.9079 43.0143 60.0179C43.244 60.2684 43.364 60.5961 43.364 60.9255C43.364 61.6561 42.7946 62.243 42.0969 62.243H36.6043V78.0469C36.6043 78.9772 35.8102 79.8025 34.9147 79.8025H28.1601C27.2646 79.8025 26.4706 78.9772 26.4706 78.0469V62.243Z" fill="white"/>
</svg>
