<svg width="128" height="128" viewBox="0 0 128 128" fill="none" xmlns="http://www.w3.org/2000/svg">
<path fill-rule="evenodd" clip-rule="evenodd" d="M10.0591 79.0699L23.5743 101.684L20.0061 102.511C16.4327 103.332 13.8619 105.332 12.7739 108.122C11.9152 110.341 12.1125 112.789 13.3019 114.517C14.5819 116.394 16.7153 117.466 19.1528 117.466C23.4623 117.466 27.6865 114.079 28.9398 109.871C29.4839 108.063 29.7292 105.258 27.8411 102.186L12.8912 77.3525L10.0591 79.0699ZM19.1528 122.8C14.9286 122.8 11.1898 120.885 8.90703 117.551C6.73627 114.373 6.31492 110.031 7.80832 106.196C9.14171 102.767 11.8351 100.063 15.4193 98.4467L2.75745 77.2618L14.6993 70.0135L32.3907 99.4121C34.6627 103.092 35.2548 107.364 34.0494 111.402C32.5773 116.341 27.1798 122.8 19.1528 122.8ZM96.1319 128C97.5986 127.947 98.7507 126.72 98.7027 125.237C98.3987 116.549 100.617 114.895 106.042 114.293C114.053 113.386 115.162 108.511 115.962 104.948C116.821 101.177 117.386 98.676 125.456 98.2494C126.923 98.1747 128.053 96.9266 127.968 95.4439C127.904 93.9772 126.672 92.8305 125.173 92.9265C113.999 93.5078 111.983 98.3934 110.767 103.77C110.026 107.018 109.695 108.511 105.45 108.986C94.3825 110.229 93.1025 117.626 93.3691 125.424C93.4225 126.864 94.6065 128 96.0359 128H96.1319ZM110.346 69.1602L114.671 71.2296L114.042 66.4667L117.349 62.9839L112.623 62.1092L110.346 57.885L108.058 62.1092L103.338 62.9839L106.644 66.4667L106.01 71.2296L110.346 69.1602ZM121.258 80.2913L110.346 75.0751L99.4281 80.2913L101.023 68.2908L92.6811 59.5224L104.58 57.325L110.346 46.6792L116.106 57.325L128 59.5224L119.669 68.2908L121.258 80.2913ZM69.9389 5.33355C68.3868 5.33355 66.8827 5.66423 65.464 6.32026C60.0878 8.79502 57.725 15.19 60.1945 20.5715C62.5892 25.7824 69.1815 28.2572 74.4404 25.8464C77.0485 24.641 79.0272 22.5023 80.0193 19.8088C81.0166 17.1154 80.8993 14.1979 79.7046 11.5898C77.9552 7.79232 74.1257 5.33355 69.9389 5.33355ZM69.9602 32.1666C63.7039 32.1666 57.965 28.4918 55.3516 22.8063C51.6554 14.7473 55.1863 5.17888 63.2346 1.47206C65.3573 0.49602 67.6134 0 69.9389 0C76.2004 0 81.9393 3.67482 84.5474 9.36038C86.3395 13.2592 86.5049 17.6274 85.0221 21.6542C83.5341 25.6917 80.5686 28.8972 76.6698 30.6893C74.547 31.6706 72.2909 32.1666 69.9602 32.1666ZM30.5772 18.6408C35.4361 26.4811 49.634 47.2553 49.634 47.2553L45.4472 65.384C44.1831 70.1095 44.7538 73.1336 45.6979 76.8991L56.7703 122.72L58.8291 81.9447L82.0513 92.5265C82.0513 92.5265 78.8406 108.964 77.7632 114.581C77.7632 114.581 85.3848 96.5266 87.2142 92.0304C87.9502 90.2064 87.6089 89.113 85.6088 86.9049C81.854 82.7287 72.0136 72.4723 72.0136 72.4723L76.2324 54.0769C76.2324 54.0769 98.6174 38.4069 105.402 33.212C105.743 32.956 105.738 32.7587 105.684 32.604L105.204 32.252C100.468 34.0334 92.1744 37.6282 85.8435 40.3696L79.6299 43.0578C77.6778 43.8898 75.4964 44.0658 73.443 43.5378L55.7089 39.0789C53.7462 38.5882 51.9115 37.6229 50.3967 36.2735L30.5772 18.6408ZM56.8237 127.936C54.6849 127.925 52.0715 126.613 51.1754 122.938C48.5193 112.09 40.5137 78.1632 40.5137 78.1632C39.4629 73.9444 38.7109 69.9495 40.2736 64.0933L43.9111 48.3326C41.1323 44.2631 30.3532 28.4545 26.1024 21.9956C24.913 20.1822 24.7743 18.0381 25.7344 16.2513C27.3184 13.3125 31.6066 12.4165 34.1134 14.6513L53.9382 32.284C54.8129 33.0574 55.8743 33.6227 57.005 33.9054L74.7444 38.3642C75.6671 38.6042 76.6538 38.5242 77.5338 38.1456L83.7314 35.4734C90.1103 32.7107 98.4787 29.0839 102.788 27.3878C106.074 26.0864 109.674 27.7505 110.741 30.8919C111.546 33.2867 110.725 35.8628 108.639 37.4575C102.458 42.1831 85.0648 54.4022 80.974 57.277L77.8592 70.8562C80.2913 73.4003 86.5529 79.9766 89.561 83.3207C91.9344 85.9342 94.0945 89.257 92.1531 94.0518C90.3237 98.5587 87.0436 106.308 84.6008 112.101L82.6487 116.719C81.134 120.32 75.9124 121.184 73.5923 118.373C72.5523 117.114 72.1736 115.402 72.5256 113.583C73.3523 109.268 75.1924 99.8334 76.0084 95.6412L63.8266 90.089C63.4693 98.3933 62.6532 117.311 62.3652 122.49C62.1892 125.642 59.8584 127.936 56.8237 127.936ZM15.6486 31.996L0 47.6606L15.6486 63.3252L31.3026 47.6606L15.6486 31.996ZM15.6486 39.5429L23.761 47.6606L15.6486 55.7783L7.54164 47.6606L15.6486 39.5429Z" fill="white"/>
</svg>
