<svg width="158" height="128" viewBox="0 0 158 128" fill="none" xmlns="http://www.w3.org/2000/svg">
<path d="M153.423 121.102L151.717 119.138L143.601 127.209C142.691 128.115 141.217 128.128 140.306 127.235L132.036 119.24L123.946 126.98C123.061 127.898 121.599 127.936 120.663 127.069L112.073 119.177L104.277 127.158C104.239 127.209 104.188 127.26 104.136 127.311C103.213 128.23 101.726 128.23 100.803 127.311L92.6225 119.177L84.1858 127.171C83.2627 128.038 81.801 128.025 80.9035 127.133L72.8771 119.075L71.2103 120.987C70.7872 121.561 70.082 121.931 69.3127 121.931C68.0177 121.931 66.9535 120.873 66.9535 119.585V88.308C67.4921 88.3973 68.0434 88.4356 68.5819 88.4483C69.6204 88.4611 70.6718 88.3335 71.6719 88.0403V113.541C72.5053 113.108 73.5439 113.197 74.3003 113.847C74.3516 113.885 74.3901 113.924 74.4286 113.975L82.6088 122.186L91.0326 114.217C91.9686 113.337 93.4174 113.363 94.3149 114.255L102.431 122.313L110.278 114.268C111.175 113.363 112.624 113.324 113.56 114.179L122.215 122.122L130.421 114.293C131.344 113.414 132.806 113.426 133.703 114.319L141.922 122.262L150.179 114.051C150.884 113.337 151.974 113.184 152.846 113.592V49.9804H109.329C109.483 49.2281 109.547 48.4631 109.534 47.6981C109.521 46.8948 109.419 46.0788 109.227 45.2882H155.179C156.474 45.2882 157.538 46.3338 157.538 47.6343V119.572C157.538 120.222 157.256 120.873 156.718 121.344C155.756 122.186 154.269 122.084 153.423 121.102ZM113.355 77.687C112.329 77.687 111.509 76.8709 111.509 75.8509C111.509 74.8309 112.329 74.0149 113.355 74.0149H140.319C141.345 74.0149 142.165 74.8309 142.165 75.8509C142.165 76.8709 141.345 77.687 140.319 77.687H113.355ZM104.765 80.1988L97.9178 81.2698C97.5716 80.4156 97.2639 79.8163 96.9947 79.4848C96.7126 79.1533 96.2766 78.8218 95.6356 78.4902V83.7689C99.341 84.7507 101.828 85.7962 103.085 86.8928C104.739 88.3718 105.56 90.2334 105.56 92.5029C105.56 93.829 105.265 95.0403 104.675 96.1495C104.085 97.2588 103.316 98.1768 102.405 98.9291C101.482 99.6686 100.495 100.204 99.4564 100.548C98.4179 100.88 97.1485 101.084 95.6356 101.135V103.621H92.9558V101.135C91.1608 100.982 89.6991 100.701 88.5708 100.281C87.4554 99.8599 86.4809 99.2861 85.6731 98.5466C84.8654 97.8071 84.2371 97.0166 83.8012 96.1623C83.3652 95.308 83.0319 94.2752 82.8139 93.0639L90.2248 92.2097C90.4428 93.4082 90.7505 94.2752 91.1223 94.798C91.4942 95.3335 92.1096 95.8053 92.9687 96.2133V89.7616C90.4941 89.0731 88.7375 88.4865 87.699 87.9893C86.6732 87.492 85.7757 86.6887 85.0064 85.5922C84.2499 84.4829 83.8653 83.1569 83.8653 81.5631C83.8653 79.3955 84.6346 77.585 86.1475 76.1314C87.6733 74.6779 89.9427 73.8746 92.9558 73.7088V71.911H95.6356V73.7088C98.3794 73.8746 100.469 74.5249 101.931 75.6469C103.38 76.7307 104.329 78.2607 104.765 80.1988ZM92.9558 78.3882C92.1737 78.6432 91.6224 78.962 91.3147 79.3445C91.007 79.7143 90.8531 80.1605 90.8531 80.6706C90.8531 81.2061 91.007 81.6651 91.3275 82.0604C91.6352 82.4556 92.1865 82.7871 92.9558 83.0549V78.3882ZM95.6356 96.379C96.6741 96.1495 97.4306 95.7543 97.905 95.2315C98.3922 94.696 98.6358 94.1095 98.6358 93.4464C98.6358 92.8727 98.4307 92.3499 98.0204 91.8654C97.6101 91.3809 96.8152 90.9346 95.6227 90.5266V96.379H95.6356ZM80.3906 21.8148C82.9421 24.3521 82.9934 28.445 80.506 30.9186L79.1598 32.2573L89.9556 42.8147L62.6326 69.004L52.1189 58.1661L11.1025 98.9546C8.61506 101.428 4.48649 101.377 1.9478 98.8399C-0.603703 96.3025 -0.65499 92.2224 1.83241 89.7361L43.0027 48.7946L34.7712 40.2773L60.6068 14.088L69.8512 23.1026L71.2616 21.7C73.7234 19.2392 77.8391 19.2775 80.3906 21.8148ZM59.4657 1.54166C61.4915 3.55623 61.53 6.80757 59.5555 8.78388L29.4374 38.7473C27.4501 40.7108 24.1805 40.6726 22.1547 38.658C20.1289 36.6435 20.0904 33.3794 22.065 31.4158L52.183 1.45241C54.1575 -0.523898 57.4399 -0.472896 59.4657 1.54166ZM102.29 44.128C104.316 46.1425 104.367 49.4066 102.38 51.3702L72.2489 81.3463C70.2615 83.3099 67.0048 83.2716 64.9662 81.2571C62.9404 79.2425 62.8891 75.9784 64.8764 74.0149L95.0073 44.0514C96.9947 42.0751 100.264 42.1006 102.29 44.128ZM130.382 97.0166C131.344 97.0166 132.113 97.7816 132.113 98.7379C132.113 99.6941 131.344 100.472 130.382 100.472H113.599C112.637 100.472 111.868 99.6941 111.868 98.7379C111.868 97.7816 112.637 97.0166 113.599 97.0166H130.382ZM140.229 85.503C141.191 85.503 141.973 86.2807 141.973 87.237C141.973 88.1933 141.191 88.9583 140.229 88.9583H113.599C112.637 88.9583 111.868 88.1933 111.868 87.237C111.868 86.2807 112.637 85.503 113.599 85.503H140.229Z" fill="white"/>
</svg>
