<svg width="49" height="65" viewBox="0 0 49 65" fill="none" xmlns="http://www.w3.org/2000/svg">
<path d="M40.625 27.0833V16.25C40.625 7.27729 33.3477 0 24.375 0C15.4023 0 8.125 7.27729 8.125 16.25V27.0833H0V65H48.75V27.0833H40.625ZM27.0833 47.9998V54.1667H21.6667V47.9998C20.0552 47.06 18.9583 45.3348 18.9583 43.3333C18.9583 40.3433 21.385 37.9167 24.375 37.9167C27.365 37.9167 29.7917 40.3433 29.7917 43.3333C29.7917 45.3321 28.6975 47.06 27.0833 47.9998ZM13.5417 27.0833V16.25C13.5417 10.2754 18.4004 5.41667 24.375 5.41667C30.3469 5.41667 35.2083 10.2754 35.2083 16.25V27.0833H13.5417Z" fill="white"/>
</svg>
