<svg width="102" height="128" viewBox="0 0 102 128" fill="none" xmlns="http://www.w3.org/2000/svg">
<path d="M1.56834 39.1783L7.83346 55.6387H6.74594C3.72588 55.6387 1.27833 58.0862 1.27833 61.1063V122.532C1.27833 125.553 3.72713 128 6.74594 128H83.6787C86.6987 128 89.1463 125.553 89.1463 122.532V61.1063C89.1463 58.0862 86.6975 55.6387 83.6787 55.6387H19.4849L11.7873 35.2883C9.24724 28.6156 12.6098 21.1217 19.2812 18.5817L37.1365 11.7853C43.8092 9.24526 51.3031 12.6078 53.8431 19.2792L57.1619 27.9994L61.0507 38.2183L71.2697 34.3295L64.0608 15.3916C59.3695 3.06639 45.5729 -3.12373 33.2465 1.56886L15.3924 8.36524C3.06587 13.0566 -3.123 26.8531 1.56834 39.1783ZM34.6902 83.0817C34.6902 77.2603 39.4091 72.5427 45.2304 72.5427C51.0518 72.5427 55.7694 77.2616 55.7694 83.0817C55.7694 87.1543 53.4556 90.6806 50.0743 92.4356L55.1919 109.758C55.7031 111.488 54.5731 113.281 52.9706 113.281H45.2304H44.7442H37.004C35.4015 113.281 34.2715 111.49 34.7827 109.758L39.9691 92.2044C36.8165 90.3831 34.6902 86.9843 34.6902 83.0817Z" fill="white"/>
<path d="M85.811 42.135C86.5948 43.1563 88.0598 43.3488 89.0811 42.565L96.6287 36.7711C97.65 35.9874 97.8425 34.5223 97.0587 33.5011L96.945 33.3536C96.1599 32.3323 94.6962 32.1398 93.6749 32.9236L86.1273 38.7174C85.106 39.5012 84.9135 40.9662 85.6972 41.9875L85.811 42.135Z" fill="white"/>
<path d="M80.0225 38.8094L80.2088 38.8244C81.4925 38.9294 82.6188 37.9731 82.7238 36.6893L83.4988 27.2054C83.6038 25.9216 82.6476 24.7954 81.3638 24.6904L81.1775 24.6754C79.8938 24.5704 78.7675 25.5266 78.6625 26.8104L77.8875 36.2943C77.7837 37.5781 78.7387 38.7044 80.0225 38.8094Z" fill="white"/>
<path d="M87.2651 47.545L87.2501 47.7313C87.1451 49.0151 88.1013 50.1413 89.3851 50.2463L98.869 51.0213C100.153 51.1263 101.279 50.1701 101.384 48.8863L101.399 48.7C101.504 47.4163 100.548 46.29 99.264 46.185L89.7801 45.41C88.4963 45.305 87.3701 46.2613 87.2651 47.545Z" fill="white"/>
</svg>
