<svg width="154" height="128" viewBox="0 0 154 128" fill="none" xmlns="http://www.w3.org/2000/svg">
<path d="M129.969 3.93848C116.919 3.93848 106.339 14.5192 106.339 27.5692C106.339 40.6193 116.919 51.2 129.969 51.2C143.019 51.2 153.6 40.6193 153.6 27.5692C153.6 14.5192 143.019 3.93848 129.969 3.93848ZM143.754 31.5077H116.185V23.6308H143.754V31.5077Z" fill="white"/>
<path d="M0.673477 120.064L66.2347 2.73067C67.1776 1.04533 68.9569 0 70.8923 0C72.8206 0 74.6071 1.04533 75.5428 2.73067L141.104 120.064C141.558 120.882 141.785 121.778 141.785 122.674C141.785 125.412 139.594 128 136.454 128H5.3311C2.21184 128 0 125.44 0 122.674C0 121.778 0.219766 120.882 0.673477 120.064ZM14.3911 117.333H127.386L70.8852 16.2204L14.3911 117.333ZM70.9065 71.1324C67.9715 71.1324 65.5896 73.5218 65.5896 76.4658V101.355C65.5896 104.299 67.9715 106.688 70.9065 106.688C73.8414 106.688 76.2234 104.299 76.2234 101.355V76.4658C76.2234 73.5218 73.8414 71.1324 70.9065 71.1324ZM70.8923 49.7991C74.8056 49.7991 77.9815 52.9849 77.9815 56.9102C77.9815 60.8356 74.8056 64.0213 70.8923 64.0213C66.9791 64.0213 63.8031 60.8356 63.8031 56.9102C63.8031 52.9849 66.9791 49.7991 70.8923 49.7991Z" fill="white"/>
</svg>
