<svg width="110" height="128" viewBox="0 0 110 128" fill="none" xmlns="http://www.w3.org/2000/svg">
<path d="M24.8381 0.232136C24.2651 0.362354 21.9212 1.40411 19.6293 2.57608C15.8269 4.47728 15.2019 4.71168 12.8579 5.07629C11.4255 5.28464 9.99308 5.51904 9.65451 5.57113C8.95133 5.70135 8.03979 7.10771 8.03979 8.07134C8.03979 8.51408 8.97737 10.1548 10.6442 12.7071L13.2486 16.6137V18.9056C13.2746 24.6352 14.4726 28.047 17.4677 30.8337C20.3065 33.4901 23.0671 34.584 26.8174 34.584C30.3073 34.584 33.4326 33.2818 35.9849 30.7555C38.8757 27.8647 40.0737 24.6613 40.0737 19.6348V16.7439L42.6781 12.8374C45.6471 8.38386 45.8815 7.55046 44.5533 6.22222C43.9803 5.62321 43.5376 5.46695 42.1052 5.33673C39.1882 5.07629 37.235 4.4252 33.5888 2.49795C28.927 0.0498276 27.3904 -0.340828 24.8381 0.232136ZM30.724 7.10771C32.6252 8.04529 34.9952 9.061 36.0109 9.37353C37.0266 9.66001 37.9121 9.9465 37.9642 9.99858C38.0163 10.0507 37.3652 11.1706 36.4797 12.4988C35.6202 13.827 34.8389 15.1813 34.7347 15.4938C34.5785 16.0668 34.4743 16.0928 31.0105 16.0928H27.4425L28.1457 15.4938C29.0832 14.6865 29.4739 13.827 29.2916 12.8895C28.7707 10.2851 25.3069 9.92045 24.2912 12.3686C23.7703 13.5926 24.187 14.8948 25.3329 15.598L26.1403 16.0928H22.4681C18.7959 16.0928 18.7699 16.0928 18.6136 15.4678C18.5355 15.1292 17.7542 13.827 16.8947 12.5509C16.0353 11.3008 15.3321 10.1809 15.3321 10.1028C15.3321 9.99858 16.0873 9.7121 16.9728 9.47771C17.8844 9.21727 20.3325 8.20156 22.39 7.21189C24.4474 6.22222 26.4007 5.41486 26.7132 5.41486C27.0258 5.41486 28.8488 6.17014 30.724 7.10771ZM21.1399 23.1507C22.2597 23.4633 24.187 23.7497 25.8798 23.8279C28.4321 23.9581 29.0832 23.906 31.5834 23.2809C33.12 22.8903 34.4483 22.6038 34.5004 22.6819C34.8129 22.9945 33.4065 25.8332 32.4429 26.8229C30.8021 28.5158 29.1614 29.1929 26.7914 29.2189C24.4735 29.245 22.8067 28.5939 21.244 27.0834C20.1502 26.0416 18.9782 23.9841 18.9782 23.1247C18.9782 22.4996 18.848 22.4996 21.1399 23.1507Z" fill="white"/>
<path d="M79.9734 19.2183C77.317 19.9215 75.6501 20.8851 73.6708 22.8644C70.233 26.2762 68.8527 30.7818 69.608 36.0687L69.8163 37.449H68.6704C63.8783 37.449 58.6435 41.3035 56.8725 46.1216L56.4037 47.3717L51.4033 42.4234L46.4289 37.449H40.1003C36.6364 37.449 33.5893 37.5532 33.3549 37.6834C33.1205 37.8136 31.5579 39.7409 29.9171 41.9806C28.2764 44.1944 26.844 46.0174 26.7398 46.0435C26.6356 46.0435 25.1251 44.1683 23.4062 41.8765C21.3487 39.1419 20.0726 37.6574 19.6559 37.5532C19.3173 37.475 16.5306 37.449 13.4835 37.5011L7.88403 37.5792L6.13909 38.4387C3.01383 39.9753 0.878234 42.7619 0.227138 46.1737C0.018787 47.2936 -0.0333007 53.3358 0.018787 67.0609L0.0969186 86.3594L0.669883 86.9844C0.98241 87.323 3.3524 88.6252 5.93074 89.9274L10.6447 92.2713V107.767C10.6447 122.664 10.6707 123.29 11.1656 124.097C11.5041 124.644 11.9729 125.008 12.6501 125.191C13.9523 125.555 39.319 125.581 40.6212 125.217C41.142 125.061 41.7931 124.696 42.0536 124.409C42.5224 123.889 42.5484 122.821 42.6786 91.6983L42.8088 59.5081L49.8667 65.6024C55.7006 70.6549 57.0548 71.9571 57.8101 73.2333C59.4769 76.0981 63.071 78.9369 65.7795 79.5098L66.6129 79.6661L66.6911 100.423L66.7692 121.18L67.4463 122.638C68.7485 125.399 71.2487 127.248 74.4782 127.847C76.8482 128.264 78.6712 127.847 80.8589 126.363L82.5778 125.191L83.4633 125.868C83.9581 126.232 85.0259 126.858 85.8593 127.248C87.0834 127.821 87.7085 127.925 89.4794 127.925C91.3806 127.925 91.7973 127.821 93.5683 126.962C95.6779 125.894 96.954 124.644 97.9437 122.638L98.5427 121.44L98.6208 100.579L98.6729 79.6921L99.5063 79.5359C101.173 79.1973 103.751 77.6868 105.34 76.0981C107.189 74.275 108.674 71.4883 109.117 69.1444C109.273 68.1808 109.351 63.9616 109.299 57.6851C109.195 48.1791 109.169 47.6582 108.622 46.1997C107.059 41.9806 103.465 38.7512 99.2459 37.6834C98.2302 37.449 98.126 37.3448 98.2823 36.85C98.725 35.3394 98.725 32.0058 98.3083 30.0525C96.4331 21.6925 88.4898 17.0046 79.9734 19.2183ZM87.8908 24.7136C92.4745 26.4064 94.6361 32.6048 92.4224 37.6313C91.7192 39.22 89.9743 40.991 88.2814 41.7983C86.9792 42.4494 86.5625 42.5275 84.0884 42.5275C81.51 42.5275 81.2496 42.4755 79.5828 41.6681C73.176 38.5168 73.0978 28.3076 79.4526 25.0521C81.7965 23.8541 85.1822 23.7239 87.8908 24.7136ZM21.0622 47.6061C23.1197 50.3407 25.0209 52.7367 25.3334 52.9451C26.0887 53.492 27.3909 53.4399 28.1462 52.8149C28.5108 52.5284 30.438 50.1324 32.4173 47.4759L36.0374 42.6578H40.0742H44.111L50.049 48.5958L55.961 54.5338L55.9089 59.1175L55.8308 63.6752L50.4136 59.0394C44.9705 54.3775 44.1892 53.8566 42.288 53.8566C41.142 53.8566 39.319 54.8723 38.4074 56.0183L37.6001 57.034L37.5219 83.182L37.4699 109.33H34.7352H31.9746L32.0527 111.987L32.1309 114.669L34.8134 114.747L37.4699 114.825V117.404V120.008H33.4331H29.3963V103.991V87.9741H26.6617H23.927V103.991V120.008H20.0205H16.1139V117.404V114.799H18.7183H21.3227V112.065V109.33H18.7183H16.1139V83.9373C16.1139 56.0183 16.192 57.1642 14.5513 56.3308C13.4835 55.7839 12.2334 55.9922 11.4 56.8777L10.7749 57.5549L10.6968 71.9832L10.6447 86.4375L8.0403 85.0572L5.43591 83.6768V81.7756V79.9005H6.7381H8.0403V77.2961V74.6917H6.7381H5.43591V60.7062C5.43591 47.0331 5.43591 46.6946 5.98283 45.6007C6.5558 44.4027 7.67568 43.413 8.95183 42.9703C9.39458 42.814 11.452 42.6838 13.5355 42.6838L17.364 42.6578L21.0622 47.6061ZM73.775 44.0902C76.3533 46.5904 79.9995 47.9707 84.0884 47.9447C88.1252 47.9186 91.615 46.5904 94.2975 44.0381L95.8081 42.5796L97.2665 42.7619C100.887 43.1786 103.335 45.6789 103.882 49.4813C104.22 51.721 104.194 66.2014 103.882 67.9464C103.595 69.4829 102.84 71.0977 101.98 72.0613C101.381 72.7124 99.2459 74.1708 98.8813 74.1708C98.7771 74.1708 98.6729 70.4726 98.6729 65.941V57.7111L97.7874 56.8256C97.1884 56.2266 96.6675 55.9401 96.1467 55.9401C95.157 55.9401 93.7767 56.8256 93.5944 57.5549C93.5162 57.8934 93.4381 72.0613 93.386 89.0679C93.3339 119.956 93.3339 119.982 92.787 120.711C90.9379 123.185 87.6303 123.237 85.9896 120.789L85.3905 119.93V103.705C85.3905 91.6723 85.3124 87.2969 85.078 86.8021C84.3748 85.2655 82.2392 84.9269 80.911 86.125L80.0516 86.8802L79.9213 103.392C79.7911 119.279 79.7651 119.904 79.2702 120.763C77.916 123.055 74.6084 123.211 72.8114 121.076L72.1082 120.216V89.3804C72.1082 63.3105 72.0561 58.3883 71.7436 57.633C71.0143 55.8881 68.7225 55.4714 67.3942 56.8777L66.7692 57.5549L66.639 65.8368L66.5088 74.1448L65.5972 73.702C64.3992 73.1291 62.8887 71.5925 62.1594 70.2122C61.5604 69.1183 61.5604 68.936 61.4823 59.2217C61.4042 48.153 61.4823 47.528 63.1491 45.5486C64.894 43.5433 66.9515 42.7099 70.3372 42.6838L72.3165 42.6578L73.775 44.0902Z" fill="white"/>
</svg>
