<?xml version="1.0" encoding="UTF-8"?>
<!DOCTYPE svg PUBLIC "-//W3C//DTD SVG 1.1//EN" "http://www.w3.org/Graphics/SVG/1.1/DTD/svg11.dtd">
<svg xmlns="http://www.w3.org/2000/svg" version="1.1" width="64px" height="64px" style="shape-rendering:geometricPrecision; text-rendering:geometricPrecision; image-rendering:optimizeQuality; fill-rule:evenodd; clip-rule:evenodd" xmlns:xlink="http://www.w3.org/1999/xlink">
<g><path style="opacity:0.726" fill="#2b4467" d="M 25.5,1.5 C 49.9752,1.14128 61.8085,13.1413 61,37.5C 55.7673,55.2052 43.9339,63.0385 25.5,61C 7.79479,55.7673 -0.0385467,43.9339 2,25.5C 5.34904,12.9853 13.1824,4.98533 25.5,1.5 Z M 27.5,8.5 C 41.4411,8.28767 50.4411,14.7877 54.5,28C 53.1667,28.6667 51.8333,28.6667 50.5,28C 45.2667,14.0261 35.6,9.69278 21.5,15C 17.0313,18.1217 14.1979,22.2883 13,27.5C 11.6124,28.5536 10.1124,28.7203 8.5,28C 11.0151,17.6528 17.3485,11.1528 27.5,8.5 Z M 9.5,38.5 C 12.0893,37.9631 14.7559,38.4631 17.5,40C 21.9918,43.3221 24.9918,47.6555 26.5,53C 22.2921,52.7329 18.6254,51.0662 15.5,48C 12.8373,45.1574 10.8373,41.9907 9.5,38.5 Z M 51.5,37.5 C 52.2389,37.369 52.9056,37.5357 53.5,38C 50.7577,46.5071 45.091,51.5071 36.5,53C 39.053,45.2827 44.053,40.1161 51.5,37.5 Z"/></g>
<g><path style="opacity:1" fill="#a4abc0" d="M 25.5,3.5 C 33.3379,2.58552 40.5046,4.25219 47,8.5C 47.6667,9.83333 47.6667,11.1667 47,12.5C 36.5049,4.5311 26.0049,4.5311 15.5,12.5C 14.1667,11.1667 14.1667,9.83333 15.5,8.5C 18.7772,6.53277 22.1105,4.8661 25.5,3.5 Z"/></g>
<g><path style="opacity:1" fill="#666f82" d="M 19.5,56.5 C 17.502,54.4002 15.3353,52.4002 13,50.5C 11.9055,48.9221 11.0722,47.2554 10.5,45.5C 21.7394,58.2586 34.4061,59.7586 48.5,50C 59.0757,37.4481 59.0757,24.9481 48.5,12.5C 48.8076,11.6919 49.3076,11.0253 50,10.5C 61.0234,22.1061 62.3568,34.7728 54,48.5C 44.3127,59.573 32.8127,62.2397 19.5,56.5 Z"/></g>
<g><path style="opacity:1" fill="#9ab3ba" d="M 47.5,26.5 C 45.7211,28.3435 43.3878,29.0102 40.5,28.5C 40.0339,23.0359 37.0339,20.3692 31.5,20.5C 25.9661,20.3692 22.9661,23.0359 22.5,28.5C 19.6122,29.0102 17.2789,28.3435 15.5,26.5C 20.5766,14.967 28.9099,11.8004 40.5,17C 43.8483,19.5014 46.1816,22.6681 47.5,26.5 Z"/></g>
<g><path style="opacity:1" fill="#525867" d="M 7.5,28.5 C 6.16667,31.1667 6.16667,33.8333 7.5,36.5C 8.21336,39.5939 9.21336,42.5939 10.5,45.5C 11.0722,47.2554 11.9055,48.9221 13,50.5C 15.3353,52.4002 17.502,54.4002 19.5,56.5C 7.23282,49.9373 2.06616,39.604 4,25.5C 5.12178,19.92 7.78845,15.2533 12,11.5C 12.6924,12.0253 13.1924,12.6919 13.5,13.5C 10.0943,17.9723 8.0943,22.9723 7.5,28.5 Z"/></g>
<g><path style="opacity:1" fill="#3d5676" d="M 24.5,17.5 C 25.3764,17.3691 26.0431,17.7025 26.5,18.5C 22.8333,20.1667 20.1667,22.8333 18.5,26.5C 17.479,25.9984 17.3123,25.3317 18,24.5C 19.6941,21.6424 21.8607,19.309 24.5,17.5 Z"/></g>
<g><path style="opacity:1" fill="#9db8dd" d="M 49.5,36.5 C 40.8783,39.4571 35.8783,45.4571 34.5,54.5C 32.396,54.7989 30.396,54.4656 28.5,53.5C 26.66,44.9961 21.66,39.3294 13.5,36.5C 14.8775,35.7656 16.3775,35.0989 18,34.5C 18.6838,33.2161 18.5171,32.0495 17.5,31C 19.4727,30.5045 21.4727,30.3379 23.5,30.5C 23.3489,24.9849 26.0155,21.9849 31.5,21.5C 36.9845,21.9849 39.6511,24.9849 39.5,30.5C 41.5273,30.3379 43.5273,30.5045 45.5,31C 44.4829,32.0495 44.3162,33.2161 45,34.5C 46.6225,35.0989 48.1225,35.7656 49.5,36.5 Z"/></g>
<g><path style="opacity:0.983" fill="#3f5b7c" d="M 47.5,26.5 C 48.404,27.209 48.7373,28.209 48.5,29.5C 50.7354,29.2053 52.7354,29.5386 54.5,30.5C 53.7611,30.369 53.0944,30.5357 52.5,31C 53.8333,32.3333 53.8333,33.6667 52.5,35C 53.0944,35.4643 53.7611,35.631 54.5,35.5C 53.0813,36.4511 51.4147,36.7845 49.5,36.5C 48.1225,35.7656 46.6225,35.0989 45,34.5C 44.3162,33.2161 44.4829,32.0495 45.5,31C 43.5273,30.5045 41.5273,30.3379 39.5,30.5C 39.6511,24.9849 36.9845,21.9849 31.5,21.5C 26.0155,21.9849 23.3489,24.9849 23.5,30.5C 21.4727,30.3379 19.4727,30.5045 17.5,31C 18.5171,32.0495 18.6838,33.2161 18,34.5C 16.3775,35.0989 14.8775,35.7656 13.5,36.5C 11.5853,36.7845 9.91866,36.4511 8.5,35.5C 9.23891,35.631 9.90558,35.4643 10.5,35C 9.78297,33.3476 9.44964,31.8476 9.5,30.5C 8.57131,31.6888 8.23798,33.0222 8.5,34.5C 7.66175,34.8417 7.32842,35.5084 7.5,36.5C 6.16667,33.8333 6.16667,31.1667 7.5,28.5C 9.60737,29.4682 11.9407,29.8016 14.5,29.5C 14.2627,28.209 14.596,27.209 15.5,26.5C 17.2789,28.3435 19.6122,29.0102 22.5,28.5C 22.9661,23.0359 25.9661,20.3692 31.5,20.5C 37.0339,20.3692 40.0339,23.0359 40.5,28.5C 43.3878,29.0102 45.7211,28.3435 47.5,26.5 Z"/></g>
<g><path style="opacity:1" fill="#395378" d="M 29.5,24.5 C 36.8211,25.3193 38.1545,28.486 33.5,34C 26.075,33.4845 24.7416,30.3178 29.5,24.5 Z"/></g>
<g><path style="opacity:1" fill="#7d96b3" d="M 29.5,26.5 C 34.1585,26.0146 35.4919,27.848 33.5,32C 28.7282,32.8104 27.3948,30.9771 29.5,26.5 Z"/></g>
<g><path style="opacity:1" fill="#a0bbe0" d="M 54.5,30.5 C 54.5,32.1667 54.5,33.8333 54.5,35.5C 53.7611,35.631 53.0944,35.4643 52.5,35C 53.8333,33.6667 53.8333,32.3333 52.5,31C 53.0944,30.5357 53.7611,30.369 54.5,30.5 Z"/></g>
<g><path style="opacity:1" fill="#9bb7db" d="M 8.5,35.5 C 8.5,35.1667 8.5,34.8333 8.5,34.5C 8.23798,33.0222 8.57131,31.6888 9.5,30.5C 9.44964,31.8476 9.78297,33.3476 10.5,35C 9.90558,35.4643 9.23891,35.631 8.5,35.5 Z"/></g>
<g><path style="opacity:1" fill="#374e72" d="M 35.5,37.5 C 38.1239,39.1978 38.1239,41.0312 35.5,43C 32.0074,44.0037 28.8408,43.5037 26,41.5C 25.2888,39.6332 25.7888,38.1332 27.5,37C 30.367,36.1993 33.0336,36.3659 35.5,37.5 Z"/></g>
<g><path style="opacity:1" fill="#687084" d="M 35.5,37.5 C 35.5,38.8333 35.5,40.1667 35.5,41.5C 32.8333,41.5 30.1667,41.5 27.5,41.5C 27.33,40.1779 27.6634,39.0113 28.5,38C 30.8098,37.5034 33.1432,37.3367 35.5,37.5 Z"/></g>
</svg>
