<svg width="30" height="30" viewBox="0 0 30 30" fill="none" xmlns="http://www.w3.org/2000/svg">
<rect width="30" height="30" rx="10" fill="#FF3737"/>
<path d="M17.2687 17.7211C17.5988 17.7211 17.8665 17.3197 17.8665 16.8244C17.8665 16.3292 17.5988 15.9277 17.2687 15.9277C16.9385 15.9277 16.6709 16.3292 16.6709 16.8244C16.6709 17.3197 16.9385 17.7211 17.2687 17.7211Z" fill="white"/>
<path d="M18.4545 14.7585C18.7481 14.7585 18.9861 14.3998 18.9861 13.9574C18.9861 13.5149 18.7481 13.1562 18.4545 13.1562C18.1608 13.1562 17.9228 13.5149 17.9228 13.9574C17.9228 14.3998 18.1608 14.7585 18.4545 14.7585Z" fill="white"/>
<path d="M20.5786 10.8597L15.169 9.23287C15.1592 9.23042 15.147 9.22797 15.1372 9.22552C15.1274 9.22307 15.1151 9.22062 15.1053 9.21817C15.0343 9.20592 14.9633 9.20592 14.8922 9.21817C14.8824 9.22062 14.8702 9.22307 14.8604 9.22552C14.8506 9.22797 14.8383 9.23042 14.8285 9.23287L13.6207 9.59547L12.6456 9.88947L9.91384 10.7102L9.4214 10.8572C9.1715 10.9332 9 11.1635 9 11.4232V18.5697C9 18.8319 9.1715 19.0597 9.4214 19.1357L14.8285 20.7674C14.8849 20.7845 14.9412 20.7919 15 20.7919C15.0563 20.7919 15.1151 20.7845 15.1715 20.7674L20.5786 19.1406C20.8285 19.0646 21 18.8343 21 18.5746V11.4256C21 11.1659 20.8285 10.9356 20.5786 10.8597ZM10.7199 17.9327C10.4332 17.9327 10.198 17.5824 10.198 17.1512C10.198 16.72 10.4308 16.3697 10.7199 16.3697C11.0065 16.3697 11.2417 16.72 11.2417 17.1512C11.2417 17.5824 11.0065 17.9327 10.7199 17.9327ZM11.9522 15.7057C11.6362 15.7057 11.3789 15.3186 11.3789 14.8433C11.3789 14.368 11.6362 13.9809 11.9522 13.9809C12.2683 13.9809 12.5255 14.368 12.5255 14.8433C12.5255 15.3186 12.2707 15.7057 11.9522 15.7057ZM13.3585 13.4958C13.0278 13.4958 12.7607 13.094 12.7607 12.5991C12.7607 12.1042 13.0278 11.7025 13.3585 11.7025C13.6893 11.7025 13.9563 12.1042 13.9563 12.5991C13.9563 13.094 13.6893 13.4958 13.3585 13.4958ZM19.8167 18.1336L15.5904 19.4052V10.5951L19.8167 11.8666V18.1336Z" fill="white"/>
</svg>
