<svg width="140" height="128" viewBox="0 0 140 128" fill="none" xmlns="http://www.w3.org/2000/svg">
<path fill-rule="evenodd" clip-rule="evenodd" d="M32.9848 128L1.70691 96.7855C0.570913 95.6509 0 94.1673 0 92.672C0 91.1825 0.570913 89.6931 1.70691 88.5586L88.6779 1.70473C89.8139 0.576 91.3053 0 92.7966 0C94.2822 0 95.7794 0.576 96.9154 1.70473L138.108 42.8567C139.25 43.9913 139.815 45.4807 139.815 46.976C139.815 48.4655 139.25 49.9491 138.108 51.0895L72.7681 116.364H104.891V128H32.9848ZM54.2892 116.364L22.3297 84.4451L14.0631 92.672L37.8084 116.364H54.2892ZM56.9456 49.8676L30.5671 76.2124L63.5286 109.137L89.9013 82.7811L56.9456 49.8676Z" fill="white"/>
</svg>
