<svg width="65" height="65" viewBox="0 0 65 65" fill="none" xmlns="http://www.w3.org/2000/svg">
<path d="M65 4.38195C65 1.94445 63.0311 -0.000137329 60.6152 -0.000137329C59.6836 -0.000137329 58.7492 0.295071 57.9448 0.904446C56.1302 2.29382 55.1796 5.17278 53.5763 6.90882C51.4909 9.15132 47.033 8.12486 43.42 4.26007C39.3386 8.11674 33.6836 12.1305 28.6623 13.5415L31.9123 18.1457C33.4263 18.4057 35.6363 17.7855 36.8361 16.6751C36.2023 18.2974 35.0757 19.5297 33.4832 20.2067L34.8996 22.0647C38.1307 26.2815 31.563 26.7961 27.2513 26.7907C22.3059 26.7907 11.6296 25.7317 11.6296 23.0234C11.6296 19.8519 23.5761 18.7009 27.2513 18.7442L23.7711 13.9505C14.3975 14.4624 8.82108 17.0922 6.57317 19.3401C5.78233 20.1336 5.41671 20.8757 5.41671 21.458V27.0615C1.92025 29.9676 -0.00537475 33.3801 4.19141e-05 36.7763C-0.00537475 42.8592 5.609 46.0659 12.3555 46.0659C16.2311 46.0659 20.5563 45.0313 25.9432 42.4557C26.6311 42.9974 27.4896 43.3332 28.4375 43.3332C30.6882 43.3332 32.5 41.5159 32.5 39.2707C32.5 37.0282 30.6882 35.2082 28.443 35.2109C25.8619 35.2109 23.8902 37.5969 24.4807 40.1672C18.8527 42.8024 14.2405 43.5607 10.7548 43.279V29.4015C14.7902 32.1965 25.9052 33.1634 34.8698 32.3076C36.5517 32.1451 37.9167 33.5832 37.9167 35.0024V43.3332C37.9167 44.8282 39.0488 46.0415 40.5465 46.0415C42.0442 46.0415 43.2548 44.8282 43.2548 43.3332V34.5176C43.2548 31.9961 44.5196 30.9236 46.0417 29.4015V54.8328C45.8873 55.5749 39.9859 59.5832 27.1213 59.5832C14.124 59.5832 10.9146 55.5694 10.7548 54.8517V48.8203C9.06483 48.8257 6.73025 48.2407 5.41671 47.5013V54.8517C5.41671 56.558 6.10462 58.2019 7.54817 59.6509C10.679 62.779 17.1925 64.9999 27.1213 64.9999C37.7055 64.9999 45.9307 62.4378 49.4759 58.8926C50.719 57.6522 51.3798 56.2601 51.3798 54.8544V23.6653C53.0617 22.4655 54.6813 21.3632 56.0355 20.5236C53.1998 15.9357 53.6711 11.8028 56.5636 10.4242C58.6436 9.42757 61.5198 9.22715 63.2775 7.88382C64.4069 7.01715 65 5.70632 65 4.38195ZM2.70837 36.7736C2.70567 34.8128 3.67525 32.7328 5.41671 30.7963V41.5728C3.66712 40.3974 2.70567 38.7642 2.70837 36.7736ZM47.3986 21.5717L40.0157 11.9815L43.5121 9.31111L50.9519 19.0151L47.3986 21.5717ZM61.4982 5.55465C60.8644 6.05299 59.9436 5.9257 59.4561 5.28382C58.9577 4.63924 59.085 3.72382 59.7269 3.2309C60.3661 2.73528 61.2923 2.85715 61.7798 3.50174C62.27 4.1409 62.1427 5.06715 61.4982 5.55465Z" fill="white"/>
</svg>
