<svg width="65" height="65" viewBox="0 0 65 65" fill="none" xmlns="http://www.w3.org/2000/svg">
<path d="M24.3751 8.12503H13.5418C12.046 8.12503 10.8335 9.33756 10.8335 10.8333V21.6666C10.8335 23.1624 12.046 24.3749 13.5418 24.3749H24.3751C25.8708 24.3749 27.0834 23.1624 27.0834 21.6666V10.8333C27.0834 9.33756 25.8708 8.12503 24.3751 8.12503ZM21.6668 18.9583H16.2501V13.5416H21.6668V18.9583Z" fill="white"/>
<path d="M62.5583 8.07603C59.5214 3.06164 54.0796 0.0415514 46.056 3.77608e-05C44.1341 -0.00986458 42.8137 1.9296 43.5274 3.71418L48.9441 17.2559C49.3554 18.2841 50.3512 18.9583 51.4588 18.9583H54.1671V43.3333C54.1671 46.328 51.7451 48.75 48.7504 48.75C45.7557 48.75 43.3337 46.328 43.3337 43.3333V24.375C43.3337 19.3241 39.8827 15.084 35.2084 13.8825V2.70833C35.2084 1.21257 33.9959 3.77608e-05 32.5001 3.77608e-05H5.41682C3.92105 3.77608e-05 2.70852 1.21257 2.70852 2.70833V51.4583C1.21264 51.4583 0.000106812 52.671 0.000106812 54.1667V62.2917C0.000106812 63.7875 1.21264 65 2.7084 65H35.2084C36.7042 65 37.9167 63.7875 37.9167 62.2917V54.1667C37.9167 52.671 36.7042 51.4585 35.2084 51.4585V19.6832C36.8279 20.619 37.9169 22.3678 37.9169 24.375V43.3333C37.9169 49.3195 42.7641 54.1666 48.7502 54.1666C54.7365 54.1666 59.5835 49.3194 59.5835 43.3333V18.9583H62.2918C63.7876 18.9583 65.0001 17.7458 65.0001 16.25C65.0004 14.1068 64.3952 11.1091 62.5583 8.07603ZM32.5001 59.5833H5.41682V56.875H32.5001V59.5833ZM8.12511 51.4583V5.41675H29.7918V51.4585L8.12511 51.4583ZM50.199 5.80852C53.9286 6.55691 56.3874 8.34314 57.925 10.8821C58.4378 11.7289 58.824 12.6274 59.0986 13.5417H53.2922L50.199 5.80852Z" fill="white"/>
<path d="M21.6673 29.7918H16.2506C14.7548 29.7918 13.5423 31.0043 13.5423 32.5001C13.5423 33.9958 14.7548 35.2084 16.2506 35.2084H21.6673C23.1631 35.2084 24.3756 33.9958 24.3756 32.5001C24.3756 31.0043 23.1631 29.7918 21.6673 29.7918Z" fill="white"/>
</svg>
