<svg width="141" height="128" viewBox="0 0 141 128" fill="none" xmlns="http://www.w3.org/2000/svg">
<path d="M70.8911 0.000589007L68.2195 9.97442C65.0667 21.7493 60.5591 30.3417 56.7325 37.4343C52.9057 44.5269 49.5351 50.1526 49.5351 56.3677C49.5351 68.1228 59.1227 77.7233 70.8911 77.7233C82.6594 77.7233 92.2474 68.1225 92.2474 56.3677C92.2474 50.1526 88.8767 44.5298 85.0508 37.439C81.2245 30.3479 76.7176 21.7563 73.5629 9.97442L70.8914 0L70.8911 0.000589007ZM70.7757 20.2406C69.2941 34.3297 64.6989 46.8471 65.7501 52.6163C66.8527 58.6649 72.6458 62.6809 78.69 61.588C82.2988 60.9353 85.1801 58.6089 86.6821 55.5533C86.7049 55.8291 86.7176 56.1013 86.7176 56.368C86.7176 65.1602 79.6574 72.2172 70.8911 72.2172C62.125 72.2172 55.0636 65.1599 55.0636 56.3677C55.0636 52.3093 57.752 47.1786 61.6031 40.0409C64.4735 34.7213 67.861 28.2955 70.7763 20.2406H70.7757ZM11.7526 67.8791L0.983887 98.2494L54.2243 117.185C54.1533 114.559 54.6799 111.875 55.8832 109.345C57.9606 104.977 61.667 101.872 65.9166 100.445L58.6846 84.5716L53.0309 100.515L43.2687 79.0882L37.615 95.0325L27.8528 73.6053L21.9488 90.2581L11.7529 67.8794L11.7526 67.8791ZM130.031 67.8791L119.835 90.2578L113.931 73.605L104.168 95.0322L98.5144 79.0879L88.7519 100.515L83.0982 84.5707L73.6398 105.332C72.9653 105.177 72.2842 105.086 71.6053 105.06C67.2373 104.895 62.9507 107.35 60.8807 111.703C58.1204 117.506 60.4712 124.27 66.0507 126.927C71.6304 129.584 78.3314 127.153 81.0911 121.349C81.4254 120.647 81.6828 119.93 81.8707 119.209L140.799 98.2494L130.03 67.8797L130.031 67.8791ZM70.8529 111.268C73.7162 111.268 76.0362 113.58 76.0362 116.431C76.0362 119.282 73.7156 121.594 70.8529 121.594C67.9903 121.594 65.6696 119.283 65.6696 116.431C65.6696 113.579 67.9897 111.268 70.8529 111.268Z" fill="white"/>
</svg>
