<svg width="154" height="128" viewBox="0 0 154 128" fill="none" xmlns="http://www.w3.org/2000/svg">
<path d="M121.799 0.148457C121.639 0.212669 101.352 6.96462 76.733 15.1497C46.0947 25.341 31.5711 30.3106 30.68 30.9152C29.214 31.9019 27.8138 33.7814 27.2077 35.5653L26.7942 36.776L41.7954 36.8715L56.8279 36.967L96.0021 25.4052C117.564 19.0668 135.208 13.8434 135.272 13.8121C135.463 13.6853 133.33 7.12438 132.564 5.49865C131.577 3.36546 129.189 1.23071 127.054 0.530613C125.591 0.0529175 122.692 -0.169487 121.799 0.148457Z" fill="white"/>
<path d="M121.416 31.6485L104.153 36.7763L115.682 36.9361C128.454 37.1272 128.612 37.1585 131.607 39.3246C133.454 40.6934 134.791 42.5087 135.653 44.7703C136.257 46.4587 136.29 47.1917 136.29 64.3261C136.29 74.1353 136.417 82.1621 136.545 82.1621C137.436 82.1621 148.425 78.1808 149.412 77.512C151.864 75.7907 153.489 72.6051 153.489 69.4523C153.489 67.3817 139.825 26.4236 139.156 26.4565C138.902 26.4879 130.907 28.8137 121.416 31.6485Z" fill="white"/>
<path d="M10.6448 45.5341C7.10985 45.6939 6.69637 45.7565 5.07064 46.6806C3.033 47.8271 1.18486 50.0887 0.548979 52.1905C0.231037 53.3683 0.135498 58.7514 0.135498 78.8162V103.977L62.6557 104.073L125.176 104.137L125.08 78.434C124.983 53.0817 124.983 52.6682 124.314 51.2665C123.072 48.5914 121.033 46.7433 118.327 45.8521C117.371 45.5341 106.256 45.4386 65.7756 45.4057C37.5571 45.4057 12.7467 45.4386 10.6448 45.5341ZM33.7355 60.822V66.5543L39.4052 66.6185L45.042 66.7141L45.1376 72.8286L45.2018 78.976H39.4694H33.7371V84.7083V90.4407L27.6226 90.3764L21.4752 90.2809L21.3796 84.6112L21.3154 78.9744H15.5831H9.85073V72.7644V66.5543H15.5831H21.3154V60.822V55.0896H27.5255H33.7355V60.822ZM94.1209 64.1329C95.5869 65.5974 95.6496 67.3499 94.2807 68.8472L93.3566 69.8982H78.4823H63.6095L62.6854 68.8472C61.3166 67.3499 61.3792 65.5989 62.8452 64.1329L63.9274 63.0507H78.4823H93.0371L94.1209 64.1329ZM107.976 79.5163C109.153 80.2164 109.951 81.9048 109.695 83.1155C109.473 84.1664 108.135 85.5995 107.178 85.8548C106.796 85.919 96.8603 85.9503 85.076 85.919L63.6095 85.8235L62.6854 84.7725C61.1255 83.0215 61.6972 80.1538 63.8006 79.2939C64.1514 79.1341 74.0562 79.0073 85.7448 79.0073C105.268 78.976 107.116 79.0073 107.976 79.5163Z" fill="white"/>
<path d="M0.0716543 113.563C-0.0238848 113.85 -0.0238848 115.507 0.0716543 117.258C0.389596 122.321 2.14219 125.22 5.99508 127.035L7.779 127.864L61.732 127.96C121.099 128.055 117.882 128.151 120.844 126.113C122.246 125.158 123.646 123.374 124.475 121.494C124.73 120.952 124.984 118.946 125.079 116.78L125.206 113.054H62.75C5.80401 113.054 0.262733 113.085 0.0716543 113.563Z" fill="white"/>
</svg>
