<svg width="128" height="128" viewBox="0 0 128 128" fill="none" xmlns="http://www.w3.org/2000/svg">
<path d="M104 79.9999C90.7572 79.9999 79.9999 90.7466 79.9999 104C79.9999 117.253 90.7572 128 104 128C117.243 128 128 117.253 128 104C128 90.7466 117.243 79.9999 104 79.9999ZM117.333 106.667H106.667V117.333H101.333V106.667H90.6666V101.333H101.333V90.6666H106.667V101.333H117.333V106.667ZM79.0399 128H0.0266666L0 121.381C0 107.941 1.06133 100.181 16.9493 96.5119C34.896 92.3679 52.6186 88.6559 44.096 72.9493C18.8533 26.3946 36.896 0 63.9999 0C100.005 0 104.032 40.5066 83.4133 72.9546C76.5226 83.7866 69.3333 92.3146 69.3333 104C69.3333 113.317 73.0453 121.765 79.0399 128Z" fill="white"/>
</svg>
