<svg width="136" height="128" viewBox="0 0 136 128" fill="none" xmlns="http://www.w3.org/2000/svg">
<path fill-rule="evenodd" clip-rule="evenodd" d="M2.96701 44.2574L65.3034 0L127.961 44.2574H2.96701ZM113.091 85.8233L111.661 79.2579C117.797 80.4031 127.637 92.9095 130.819 98.5955C132.443 101.497 133.866 104.696 135.028 108.27C137.35 116.918 135.116 125.009 125.742 126.892C119.869 128.077 108.917 128.16 102.744 127.838C96.1013 127.498 85.8283 127.506 83.1426 120.68C78.8141 109.664 86.7465 96.5416 93.9836 88.5069C94.9389 87.4494 95.9262 86.4663 96.94 85.555C99.5726 83.2381 102.412 80.4854 105.801 79.3429L102.526 85.4434L107.282 79.133H109.782L113.091 85.8233ZM110.031 91.0284V92.875C111.247 93.0051 112.292 93.2549 113.16 93.6269C114.033 94.0042 114.79 94.5701 115.44 95.3353C115.952 95.9172 116.348 96.515 116.626 97.1261C116.905 97.7452 117.046 98.3032 117.046 98.816C117.046 99.3872 116.836 99.8841 116.422 100.296C116.005 100.71 115.504 100.92 114.912 100.92C113.795 100.92 113.067 100.315 112.741 99.1083C112.361 97.6868 111.459 96.7382 110.031 96.2706V103.37C111.438 103.755 112.566 104.111 113.399 104.43C114.235 104.746 114.986 105.206 115.644 105.812C116.348 106.436 116.894 107.185 117.279 108.054C117.656 108.928 117.847 109.877 117.847 110.913C117.847 112.213 117.547 113.424 116.937 114.553C116.324 115.691 115.429 116.61 114.248 117.333C113.059 118.05 111.658 118.475 110.031 118.608V122.859C110.031 123.529 109.965 124.02 109.832 124.328C109.702 124.637 109.418 124.788 108.97 124.788C108.564 124.788 108.28 124.666 108.11 124.416C107.945 124.164 107.866 123.773 107.866 123.25V118.642C106.539 118.499 105.377 118.183 104.381 117.704C103.386 117.229 102.553 116.634 101.889 115.922C101.229 115.207 100.732 114.466 100.419 113.703C100.098 112.935 99.9415 112.178 99.9415 111.437C99.9415 110.897 100.151 110.4 100.581 109.965C101.006 109.529 101.536 109.306 102.171 109.306C102.683 109.306 103.113 109.423 103.466 109.662C103.816 109.901 104.06 110.238 104.201 110.669C104.503 111.601 104.771 112.319 104.997 112.813C105.231 113.307 105.573 113.762 106.032 114.171C106.491 114.577 107.104 114.891 107.866 115.109V107.175C106.34 106.75 105.071 106.285 104.05 105.767C103.025 105.246 102.192 104.513 101.56 103.559C100.926 102.602 100.605 101.375 100.605 99.8708C100.605 97.9153 101.229 96.3078 102.473 95.059C103.718 93.8076 105.515 93.0795 107.866 92.875V91.0656C107.866 90.109 108.227 89.6308 108.941 89.6308C109.67 89.6308 110.031 90.0984 110.031 91.0284ZM107.866 102.738V96.2015C106.91 96.4885 106.167 96.8604 105.631 97.3254C105.095 97.7904 104.827 98.5025 104.827 99.4457C104.827 100.341 105.079 101.024 105.578 101.484C106.08 101.946 106.841 102.363 107.866 102.738ZM110.031 107.805V115.281C111.175 115.055 112.062 114.596 112.688 113.902C113.312 113.204 113.625 112.398 113.625 111.474C113.625 110.483 113.322 109.72 112.712 109.178C112.107 108.636 111.21 108.177 110.031 107.805ZM103.805 69.8761C102.723 66.6824 101.746 63.4462 100.926 60.1621C103.991 56.7931 115.851 57.2421 119.259 60.1117L116.103 67.6256C117.802 65.3938 118.372 64.4771 119.386 63.231C119.808 63.5099 120.212 63.8235 120.588 64.1662C121.485 64.9819 122.287 65.88 122.451 67.1314C122.555 67.9445 122.321 68.7734 121.602 69.6157L114.355 78.0623C113.426 77.9081 112.513 77.6876 111.629 77.3714C112.04 76.4043 112.537 75.3389 112.945 74.3717L110.307 77.2227C107.563 76.6408 105.353 76.9862 103.293 78.0782L95.9474 69.249C95.5122 68.7256 95.3158 68.1969 95.3158 67.6734C95.3238 65.5372 98.4978 63.6986 100.164 62.9998L103.805 69.8761ZM0 108.841H7.25033V102.105H11.0533V98.8904H15.1455V60.3375H6.78059V51.0992H104.281C100.963 51.7315 97.9484 52.9909 95.958 54.9544C95.0361 55.8396 94.3649 56.9534 94.0128 58.1827C93.1794 58.73 92.3514 59.3677 91.6163 60.0745L91.3509 60.3375H87.1579V85.3955C83.0046 90.3242 78.8513 96.6771 76.5663 103.458C75.1996 107.512 74.491 111.713 74.7856 115.895H0V108.841ZM115.108 51.0992H123.816V54.5718C121.804 52.9059 118.587 51.7182 115.108 51.0992ZM34.6407 102.105H39.3593V98.8904H43.4515V60.3375H30.5485V98.8904H34.6407V102.105ZM62.9441 102.105H67.6733V98.8904H71.7549V60.3375H58.8518V98.8904H62.9441V102.105ZM44.3114 33.0954L65.3989 16.8984L86.6032 33.0954H44.3114Z" fill="white"/>
</svg>
