<svg width="156" height="128" viewBox="0 0 156 128" fill="none" xmlns="http://www.w3.org/2000/svg">
<path fill-rule="evenodd" clip-rule="evenodd" d="M37.7185 110.981V64.2972H58.721C67.6227 65.8904 76.5244 70.7206 85.4261 76.3221H101.738C109.122 76.7647 112.991 84.2502 105.809 89.1689C100.094 93.3669 92.545 93.1266 84.8066 92.4312C79.4706 92.1656 79.243 99.3351 84.8066 99.3604C86.7412 99.5121 88.8402 99.0569 90.6736 99.0569C100.321 99.0443 108.275 97.1982 113.143 89.5735L115.583 83.8709L139.848 71.846C151.987 67.8503 160.623 80.5454 151.671 89.3839C134.095 102.167 116.076 112.688 97.6407 121.185C84.2502 129.328 70.8597 129.05 57.4818 121.185L37.7185 110.981ZM53.6253 0L143.92 24.1889L131.338 71.1379L41.044 46.949L53.6253 0ZM96.1993 21.7738C103.837 23.8222 108.363 31.6491 106.315 39.2864C104.266 46.9237 96.4395 51.4504 88.8022 49.402C81.165 47.3536 76.6382 39.5267 78.6866 31.8894C80.7224 24.2521 88.5493 19.7254 96.1993 21.7738ZM66.8008 11.1904L126.837 27.2742C125.813 31.0928 128.089 35.0505 131.92 36.0621L126.951 54.6242C123.132 53.6 119.174 55.876 118.163 59.7073L58.1141 43.6235C59.1383 39.8048 56.8623 35.8598 53.031 34.8356L58.0003 16.2735C61.8189 17.2977 65.7766 15.0216 66.8008 11.1904ZM0 59.8084H31.3963V115.672H0V59.8084Z" fill="white"/>
</svg>
