<svg width="128" height="128" viewBox="0 0 128 128" fill="none" xmlns="http://www.w3.org/2000/svg">
<path d="M90.5119 0H37.488L0 37.488V90.5066L37.488 128H90.5066L128 90.5119V37.488L90.5119 0ZM95.4826 62.2239C94.8052 63.9733 86.4426 82.9599 84.3039 87.7492C82.0639 92.7679 77.6959 97.7812 69.6319 97.7812H55.6213C47.1306 97.7759 42.6666 92.7412 42.6666 83.9306V45.488C42.6666 40.3893 49.6906 40.6453 49.6906 45.2533V62.1066C49.6906 63.4933 52.2346 63.4879 52.2346 62.1066V35.024C52.2346 29.7866 60.0853 29.92 60.0853 35.024V60.5973C60.0853 62.0053 62.4426 61.9413 62.4426 60.5706V30.5546C62.4426 25.4506 70.2186 25.3066 70.2186 30.5546L70.2239 60.9119C70.2239 62.2666 72.6719 62.3039 72.6719 60.9119V35.4186C72.6719 30.592 81.1839 30.4426 81.1839 35.4186V64.3093C81.1839 66.0746 82.9279 66.3573 83.5839 65.0079C84.2132 63.7279 86.8106 57.9946 86.8532 57.9306C89.4613 52.4426 98.1972 55.7759 95.4826 62.2239Z" fill="white"/>
</svg>
