<svg width="62" height="67" viewBox="0 0 62 67" fill="none" xmlns="http://www.w3.org/2000/svg">
<path d="M31.9499 63.9472H3V12.1422H33.4735V24.3316H45.663" stroke="white" stroke-width="4.5" stroke-miterlimit="10" stroke-linecap="round" stroke-linejoin="round"/>
<path d="M45.663 24.3316H33.4736V12.1422L45.663 24.3316Z" stroke="white" stroke-width="4.5" stroke-miterlimit="10" stroke-linecap="round" stroke-linejoin="round"/>
<path d="M45.663 30.4262V24.3315H33.4736V12.1421H12.1421V3H42.6156L54.8051 15.1894V33.4735" stroke="white" stroke-width="4.5" stroke-miterlimit="10" stroke-linecap="round" stroke-linejoin="round"/>
<path d="M54.8051 15.1894H42.6157V3L54.8051 15.1894Z" stroke="white" stroke-width="4.5" stroke-miterlimit="10" stroke-linecap="round" stroke-linejoin="round"/>
<path d="M45.663 24.3316H33.4736V12.1422L45.663 24.3316Z" stroke="white" stroke-width="4.5" stroke-miterlimit="10" stroke-linecap="round" stroke-linejoin="round"/>
<path d="M15.1894 30.4262C18.5554 30.4262 21.2841 27.6975 21.2841 24.3315C21.2841 20.9655 18.5554 18.2368 15.1894 18.2368C11.8234 18.2368 9.09473 20.9655 9.09473 24.3315C9.09473 27.6975 11.8234 30.4262 15.1894 30.4262Z" stroke="white" stroke-width="4.5" stroke-miterlimit="10" stroke-linecap="round" stroke-linejoin="round"/>
<path d="M31.9499 53.2814H10.6184" stroke="white" stroke-width="4.5" stroke-miterlimit="10" stroke-linecap="round" stroke-linejoin="round"/>
<path d="M31.9499 45.663H10.6184" stroke="white" stroke-width="4.5" stroke-miterlimit="10" stroke-linecap="round" stroke-linejoin="round"/>
<path d="M24.3315 38.0446H10.6184" stroke="white" stroke-width="4.5" stroke-miterlimit="10" stroke-linecap="round" stroke-linejoin="round"/>
<path d="M59.3759 51.3005C58.9188 58.0047 53.4336 63.4899 46.7294 63.947C39.7205 64.5565 33.7781 59.8331 32.2544 53.2813C32.1021 52.3671 31.9497 51.3005 31.9497 50.2339C31.9497 48.7102 32.2544 47.0342 32.7115 45.6629C34.54 40.33 39.7205 36.5208 45.6628 36.5208C49.1673 36.5208 52.367 37.8921 54.8049 40.0253C57.8522 42.7679 59.6806 46.7295 59.3759 51.3005Z" stroke="white" stroke-width="4.5" stroke-miterlimit="10" stroke-linecap="round" stroke-linejoin="round"/>
<path d="M45.6628 42.6157V44.1394" stroke="white" stroke-width="4.5" stroke-miterlimit="10" stroke-linecap="round" stroke-linejoin="round"/>
<path d="M42.6157 54.8049L43.2252 55.4144C43.8347 56.0239 44.5965 56.3286 45.3583 56.3286H45.6631C47.3391 56.3286 48.7104 54.9573 48.7104 53.2813C48.7104 51.6052 47.3391 50.2339 45.6631 50.2339C43.987 50.2339 42.6157 48.8626 42.6157 47.1866C42.6157 45.5105 43.987 44.1392 45.6631 44.1392H45.9678C46.7297 44.1392 47.4915 44.4439 48.101 45.0534L48.7104 45.6629" stroke="white" stroke-width="4.5" stroke-miterlimit="10" stroke-linecap="round" stroke-linejoin="round"/>
</svg>
