<svg width="106" height="128" viewBox="0 0 106 128" fill="none" xmlns="http://www.w3.org/2000/svg">
<path d="M53 13.9873C61.7344 19.6439 71.7885 19.5642 79.7014 14.2585L90.0788 23.1474C74.9685 42.6638 95.4 62.4034 95.4 81.6858C95.4 97.4435 83.3531 103.855 73.246 106.46C62.7785 109.155 57.9449 110.963 53 114.254C48.0498 110.963 43.2162 109.155 32.754 106.46C22.6469 103.855 10.6 97.4435 10.6 81.6858C10.6 62.3609 31.0527 42.685 15.9212 23.1474L26.3039 14.2532C34.1214 19.4738 44.0854 19.7396 53 13.9873ZM79.5848 0C70.7338 9.16009 64.9833 11.1484 53.0636 0.255185C41.1704 10.7922 35.616 9.51628 26.5106 0.0956944L0.6943 22.2117C9.4446 31.4303 14.2782 34.3596 8.321 50.7606C3.8531 63.0361 0 71.9782 0 81.6858C0 99.0491 10.971 111.83 30.1146 116.758C43.8734 120.299 45.9563 121.814 53 127.593C60.0437 121.814 62.1266 120.299 75.8854 116.758C95.029 111.83 106 99.0437 106 81.6858C106 71.9782 102.147 63.0414 97.6843 50.7606C91.7218 34.3649 96.5501 31.4356 105.306 22.2064C80.0777 0.595432 85.2452 5.07712 79.5848 0ZM66.7747 85.0617L53 77.7943L39.2253 85.0617L41.8435 69.6709L30.7029 58.7777L46.1047 56.5341L53 42.5309L59.89 56.5341L75.2918 58.7777L64.1406 69.6709L66.7747 85.0617Z" fill="white"/>
</svg>
