<svg width="126" height="66" viewBox="0 0 126 66" fill="none" xmlns="http://www.w3.org/2000/svg">
<path d="M121.901 23.0473H103.306L96.3149 4.77156C95.8522 3.5615 94.7008 2.76386 93.4176 2.76386H44.5417C43.4479 2.76386 42.4347 3.34544 41.8743 4.29465L31.9423 21.1162L11.9715 0.927832C11.3892 0.338712 10.5989 0.00793457 9.77504 0.00793457H3.11437C1.39877 0.00793457 0.00790633 1.41395 0.00790633 3.14823C0.00790633 4.88252 1.39877 6.28853 3.11437 6.28853H8.48814L25.0659 23.0468H6.99413C5.45581 23.0468 4.14903 24.1853 3.92205 25.7232L0.0418703 51.982C-0.0915005 52.886 0.171099 53.8033 0.760913 54.4959C1.35114 55.188 2.21018 55.5862 3.11437 55.5862H14.5917C17.173 61.2341 22.8545 65.0079 29.1366 65.0079C35.4166 65.0079 41.0952 61.2337 43.6744 55.5862H83.6202C86.2002 61.2341 91.8805 65.0079 98.1618 65.0079C104.441 65.0079 110.12 61.2337 112.699 55.5862H121.901C123.617 55.5862 125.008 54.1802 125.008 52.4459V26.1871C125.007 24.4533 123.617 23.0473 121.901 23.0473ZM118.794 49.306H110.55C109.166 49.306 107.949 50.2318 107.566 51.5762C106.365 55.7868 102.498 58.7278 98.1618 58.7278C93.8239 58.7278 89.9545 55.7868 88.7525 51.5758C88.369 50.2318 87.1516 49.3064 85.7678 49.3064H41.526C40.1418 49.3064 38.9244 50.2322 38.5409 51.5767C37.3401 55.7876 33.4728 58.7282 29.1366 58.7282C24.7971 58.7282 20.9268 55.7872 19.724 51.5758C19.34 50.2318 18.1231 49.3069 16.7393 49.3069H6.71952L9.67108 29.3287H32.5653C33.6592 29.3287 34.6723 28.7471 35.2327 27.7979L46.305 9.0453H91.2882L98.279 27.321C98.7416 28.5311 99.8931 29.3287 101.176 29.3287H118.794V49.306Z" fill="white"/>
</svg>
