<svg width="100" height="100" viewBox="0 0 100 100" fill="none" xmlns="http://www.w3.org/2000/svg">
<rect width="100" height="100" rx="10" fill="url(#paint0_linear_1_250)"/>
<circle cx="50.5" cy="50.5" r="42.5" fill="url(#paint1_linear_1_250)"/>
<circle cx="33.5" cy="67.5" r="7.5" transform="rotate(-180 33.5 67.5)" fill="black"/>
<circle cx="67.5" cy="67.5" r="7.5" transform="rotate(-180 67.5 67.5)" fill="black"/>
<g filter="url(#filter0_f_1_250)">
<path d="M72.448 62.7022C72.483 62.665 72.483 62.607 72.4476 62.5702C71.5406 61.6296 70.4461 60.9161 69.2447 60.4821C69.1922 60.4632 69.1349 60.4922 69.1184 60.5455C69.1027 60.5963 69.13 60.6503 69.18 60.6683C70.3527 61.0912 71.4212 61.7862 72.3075 62.7026C72.346 62.7423 72.41 62.7424 72.448 62.7022Z" fill="#D9D9D9"/>
</g>
<circle cx="50.5" cy="50.5" r="7.5" transform="rotate(-180 50.5 50.5)" fill="black"/>
<circle cx="33.5" cy="33.5" r="7.5" transform="rotate(-180 33.5 33.5)" fill="black"/>
<circle cx="67.5" cy="33.5" r="7.5" transform="rotate(-180 67.5 33.5)" fill="black"/>
<defs>
<filter id="filter0_f_1_250" x="68.6139" y="59.9763" width="4.36026" height="3.25606" filterUnits="userSpaceOnUse" color-interpolation-filters="sRGB">
<feFlood flood-opacity="0" result="BackgroundImageFix"/>
<feBlend mode="normal" in="SourceGraphic" in2="BackgroundImageFix" result="shape"/>
<feGaussianBlur stdDeviation="0.25" result="effect1_foregroundBlur_1_250"/>
</filter>
<linearGradient id="paint0_linear_1_250" x1="74" y1="21" x2="-2.20537e-06" y2="100" gradientUnits="userSpaceOnUse">
<stop stop-color="#FFF8F8"/>
<stop offset="1" stop-color="#D9D9D9" stop-opacity="0.8"/>
</linearGradient>
<linearGradient id="paint1_linear_1_250" x1="79" y1="23" x2="-32" y2="134" gradientUnits="userSpaceOnUse">
<stop stop-color="#F0E9E9"/>
<stop offset="1" stop-color="white" stop-opacity="0.8"/>
</linearGradient>
</defs>
</svg>
