<svg width="90" height="65" viewBox="0 0 90 65" fill="none" xmlns="http://www.w3.org/2000/svg">
<rect x="0.992584" y="33.7385" width="86.3308" height="28.7769" rx="1" fill="white"/>
<path d="M87.8077 5V59.5C87.8077 61.433 86.2407 63 84.3077 63H5.00001C3.06701 63 1.5 61.433 1.5 59.5V34.1348C1.5 33.2844 1.80959 32.4631 2.37092 31.8244L15.5076 16.8757L28.4 2.64968C29.0634 1.91758 30.0054 1.5 30.9934 1.5H84.3077C86.2407 1.5 87.8077 3.067 87.8077 5Z" stroke="white" stroke-width="3"/>
<path fill-rule="evenodd" clip-rule="evenodd" d="M61.1335 27.8432C61.4014 28.183 61.5229 28.5662 61.5229 28.9421C61.5229 29.8796 60.7638 30.7616 59.6648 30.7616H38.5758C37.4719 30.7616 36.7152 29.8772 36.7152 28.9421C36.7152 28.5638 36.8393 28.1806 37.1097 27.8408C40.094 24.0959 45.1771 17.7217 47.6728 14.5912C48.0251 14.1478 48.5659 13.8924 49.1414 13.8924C49.712 13.8924 50.2553 14.1502 50.6075 14.5937C53.0933 17.7241 58.159 24.1007 61.1335 27.8432Z" fill="white"/>
<path fill-rule="evenodd" clip-rule="evenodd" d="M61.1335 39.6338C61.4014 39.294 61.5229 38.9109 61.5229 38.5349C61.5229 37.5975 60.7638 36.7155 59.6648 36.7155H38.5758C37.4719 36.7155 36.7152 37.5999 36.7152 38.5349C36.7152 38.9133 36.8393 39.2964 37.1097 39.6362C40.094 43.3812 45.1771 49.7554 47.6728 52.8858C48.0251 53.3292 48.5659 53.5847 49.1414 53.5847C49.712 53.5847 50.2553 53.3268 50.6075 52.8834C53.0933 49.753 58.159 43.3764 61.1335 39.6338Z" fill="#3C3C3C"/>
</svg>
