<svg width="142" height="129" viewBox="0 0 142 129" fill="none" xmlns="http://www.w3.org/2000/svg">
<path d="M137.834 73.8001H111.668V59.7955C111.668 59.5147 111.754 59.2327 111.748 58.9511C125.046 57.5641 132.674 48.8145 132.674 34.4583V31.1414C132.674 29.106 131.024 27.4561 128.989 27.4561C126.954 27.4561 125.304 29.106 125.304 31.1414V34.4583C125.304 45.0719 120.603 50.7167 110.962 51.6415C109.285 44.1717 105.192 37.716 98.3758 36.2458C97.3407 28.3572 92.4571 21.6823 85.6294 18.2167C88.4822 15.3142 90.2926 11.3378 90.2926 6.956V3.68531C90.2926 1.64986 88.6422 0 86.6073 0C84.5724 0 82.9214 1.64986 82.9214 3.68531V6.956C82.9214 11.7572 78.9235 15.5707 74.1227 15.5707H67.7653C62.9645 15.5707 58.9665 11.7572 58.9665 6.956V3.68531C58.9665 1.64986 57.3161 0 55.2812 0C53.2464 0 51.5957 1.64986 51.5957 3.68531V6.956C51.5957 11.3378 53.4058 15.3142 56.2589 18.217C49.4314 21.6823 44.5247 28.3575 43.4893 36.2461C36.6634 37.7177 32.5809 44.1888 30.9076 51.6717C21.0236 50.8535 16.2158 45.203 16.2158 34.4583V31.1414C16.2158 29.106 14.5654 27.4561 12.5305 27.4561C10.4956 27.4561 8.84495 29.106 8.84495 31.1414V34.4583C8.84495 48.946 16.4292 57.7227 29.9554 58.9862C29.9493 59.2559 29.8517 59.526 29.8517 59.7955V73.8001H3.68531C1.65041 73.8001 0 75.45 0 77.4854C0 79.5208 1.65041 81.1707 3.68531 81.1707H29.8517V87.528C29.8517 90.4656 30.2578 93.3306 30.849 96.0944C16.7664 97.0485 8.84495 105.892 8.84495 120.697V124.013C8.84495 126.049 10.4954 127.699 12.5303 127.699C14.5652 127.699 16.2156 126.049 16.2156 124.013V120.697C16.2156 109.144 21.7854 103.479 33.2324 103.38C39.438 118.087 54.0045 128.436 70.9437 128.436C87.8807 128.436 102.446 118.09 108.652 103.386C119.852 103.602 125.303 109.268 125.303 120.697V124.013C125.303 126.049 126.954 127.699 128.988 127.699C131.023 127.699 132.674 126.049 132.674 124.013V120.697C132.674 106.02 124.708 97.1986 110.849 96.1184C111.444 93.3474 111.668 90.4739 111.668 87.528V81.1707H137.834C139.869 81.1707 141.519 79.5208 141.519 77.4854C141.519 75.45 139.869 73.8001 137.834 73.8001ZM67.0743 120.841C50.398 118.916 37.2226 104.712 37.2226 87.5283V59.7955C37.2226 54.0482 39.1431 45.8285 43.9898 43.7543C45.8216 48.8313 50.7783 52.4246 56.4789 52.4246H67.0743V120.841ZM56.4786 45.054C53.2779 45.054 50.6741 42.4503 50.6741 39.2495C50.6741 30.2575 57.99 22.9416 66.982 22.9416H67.7651H74.1224H74.9057C83.8977 22.9416 91.2136 30.2575 91.2136 39.2495C91.2136 42.4503 88.6099 45.054 85.4091 45.054H56.4786ZM104.297 87.528C104.297 104.838 91.2982 119.127 74.4449 120.883V52.4246H85.4091C91.1097 52.4246 95.8823 48.8313 97.7138 43.7543C102.561 45.8285 104.297 54.0479 104.297 59.7955V87.528Z" fill="white"/>
</svg>
