<svg width="51" height="65" viewBox="0 0 51 65" fill="none" xmlns="http://www.w3.org/2000/svg">
<path d="M28.3824 23.909C31.0999 23.909 32.7059 25.5046 32.7059 28.2044L32.7028 38.4015C33.1406 38.2864 33.6232 38.2271 34.1471 38.2271C35.3364 38.2271 36.3128 38.5327 37.0349 39.1028C37.7487 38.5319 38.7241 38.2271 39.9118 38.2271C42.1054 38.2271 43.5747 39.2668 44.0598 41.0877L45.6765 41.0907C48.0643 41.0907 50 43.0139 50 45.3862V53.977C50 56.1648 48.9795 59.2064 46.9655 63.2082C46.6095 63.9155 45.7439 64.2022 45.0319 63.8486C44.32 63.4949 44.0315 62.6349 44.3874 61.9276C46.2166 58.293 47.1176 55.6075 47.1176 53.977V45.3862C47.1176 44.5954 46.4724 43.9544 45.6765 43.9544L44.2353 43.9515V48.2498C44.2353 49.0406 43.5901 49.6816 42.7941 49.6816C41.9982 49.6816 41.3529 49.0406 41.3529 48.2498V42.5226C41.3529 41.4042 41.0374 41.0907 39.9118 41.0907C38.8885 41.0907 38.5347 41.3498 38.4788 42.2371L38.4706 42.5226V48.2498C38.4706 49.0406 37.8254 49.6816 37.0294 49.6816C36.2335 49.6816 35.5882 49.0406 35.5882 48.2498V42.5226C35.5882 41.4042 35.2727 41.0907 34.1471 41.0907C33.0214 41.0907 32.7059 41.4042 32.7059 42.5226L32.703 42.5512L32.7059 48.2498C32.7059 49.0406 32.0606 49.6816 31.2647 49.6816C30.4688 49.6816 29.8235 49.0406 29.8235 48.2498V28.2044C29.8235 27.0861 29.508 26.7726 28.3824 26.7726C27.2567 26.7726 26.9412 27.0861 26.9412 28.2044V53.977C26.9412 55.6075 27.8422 58.293 29.6714 61.9276C30.0273 62.6349 29.7388 63.4949 29.0269 63.8486C28.315 64.2022 27.4493 63.9155 27.0933 63.2082C25.0793 59.2064 24.0588 56.1648 24.0588 53.977V28.2044C24.0588 25.5046 25.6648 23.909 28.3824 23.909ZM11.0882 1.00003C11.8842 1.00003 12.5294 1.64107 12.5294 2.43184V8.15909C12.5294 8.84766 13.7688 10.9902 16.044 14.2125C16.2148 14.4544 16.3145 14.5947 16.587 14.9768C16.9325 15.4604 18.0866 17.0633 18.1729 17.1835C18.7787 18.0279 19.2076 18.6361 19.5783 19.1812C20.7109 20.8464 21.1765 21.6847 21.1765 22.4772C21.1765 24.8102 19.4401 26.4704 16.2517 27.5908L18.0521 30.2738C18.5329 30.9904 18.2728 31.9636 17.4975 32.3487L16.4035 32.8921L17.872 34.3511C18.4348 34.9102 18.4348 35.8168 17.872 36.3759L15.4118 38.8202V42.5226C15.4118 44.7451 13.3254 46.818 11.0882 46.818H5.32353L5.02452 46.8169L4.55511 46.8178C3.77381 46.8364 3.88235 47.0072 3.88235 48.2498V53.977C3.88235 54.7678 3.23712 55.4089 2.44118 55.4089C1.64524 55.4089 1 54.7678 1 53.977V48.2498C1 44.8753 2.28593 43.9544 5.32353 43.9544H11.0882C11.7335 43.9544 12.5294 43.1636 12.5294 42.5226V38.2271C12.5294 37.8474 12.6812 37.4832 12.9515 37.2147L14.8148 35.3635L12.9515 33.5123C12.2559 32.8213 12.4462 31.6563 13.3261 31.2192L14.7482 30.5128L12.7715 27.5669C12.2186 26.743 12.6542 25.6237 13.621 25.3836C16.8946 24.5705 18.2941 23.5277 18.2941 22.4772C18.2941 22.441 18.2214 22.3095 18.0127 21.9937L17.8298 21.721C17.3039 20.946 16.2448 19.4454 14.2365 16.6342C13.9601 16.2467 13.8583 16.1035 13.6843 15.857C10.9142 11.9337 9.64706 9.74322 9.64706 8.15909V2.43184C9.64706 1.64107 10.2923 1.00003 11.0882 1.00003ZM3.88235 9.5909C5.47423 9.5909 6.76471 10.873 6.76471 12.4545C6.76471 14.0361 5.47423 15.3181 3.88235 15.3181C2.29047 15.3181 1 14.0361 1 12.4545C1 10.873 2.29047 9.5909 3.88235 9.5909Z" fill="white" stroke="white" stroke-width="1.5"/>
</svg>
