<svg width="93" height="65" viewBox="0 0 93 65" fill="none" xmlns="http://www.w3.org/2000/svg">
<path d="M92.8418 32.5124C92.6607 31.8861 92.2718 30.8044 91.4366 28.7495C90.6064 26.7057 89.2342 23.5575 87.4146 20.1655C82.6229 11.2336 77.2888 5.17731 71.5612 2.16589C65.1042 -1.22896 58.2035 -0.623919 51.6042 3.91654C51.3695 4.07802 51.1484 4.23114 50.9392 4.37591C48.5054 6.06117 48.3595 6.16216 46.4999 6.16216C44.6403 6.16216 44.4946 6.06135 42.0608 4.37609C41.8514 4.23114 41.6303 4.07802 41.3955 3.91654C34.7966 -0.623738 27.896 -1.22896 21.4386 2.16589C15.7108 5.17767 10.3769 11.2336 5.58526 20.1659C3.76577 23.5579 2.39347 26.706 1.56301 28.7499C0.792678 30.6453 0.402515 31.7117 0.204345 32.3576C0.0791952 32.6824 0 33.0671 0 33.4558C0 33.7132 0.0499511 34.0819 0.140771 34.3694C0.422859 35.326 2.75512 42.6906 9.61803 50.0421C13.6417 54.3524 18.4247 57.782 23.8337 60.2352C30.501 63.2593 38.127 64.7926 46.5001 64.7926C54.8764 64.7926 62.505 63.2581 69.1741 60.2318C74.5839 57.7767 79.367 54.3453 83.3907 50.0327C90.2467 42.684 92.573 35.3405 92.8589 34.3704C92.9401 34.1141 93 33.7702 93 33.4558C92.9998 33.0847 92.9079 32.7147 92.8418 32.5124ZM46.4999 58.7274C21.6873 58.7274 11.2601 43.9679 7.62217 36.6699C9.05005 36.673 10.7914 36.6639 12.8234 36.6418C17.3238 36.5933 21.8339 36.4975 22.2713 36.4881C26.9531 36.4939 31.8088 37.813 36.7048 40.4081C39.6946 41.9927 43.0754 42.8299 46.4843 42.8299C46.4948 42.8299 46.5052 42.8299 46.5159 42.8299C49.9244 42.8299 53.306 41.9925 56.2954 40.4081C61.1915 37.813 66.0473 36.4939 70.7289 36.4881C71.1661 36.4974 75.6762 36.5933 80.1766 36.6418C82.2089 36.6636 83.9525 36.6728 85.3776 36.6699C81.7392 43.9679 71.3112 58.7274 46.4999 58.7274ZM29.6588 31.2886C34.0688 28.0823 37.8613 26.3164 40.3398 26.3164C42.2639 26.3164 43.49 27.2711 43.9322 27.686C44.0205 27.8195 44.1204 27.9472 44.2318 28.0682C45.2444 29.1674 46.9075 29.3645 48.1496 28.5328C48.4129 28.3562 48.6451 28.1421 48.8398 27.8994C49.0777 27.6419 50.4103 26.3166 52.6599 26.3166C55.1384 26.3166 58.9308 28.0825 63.3409 31.2888C60.0552 32.0475 56.7499 33.3027 53.4546 35.0495C51.3366 36.172 48.9377 36.7651 46.5157 36.7651C46.5115 36.7651 46.5068 36.7651 46.5025 36.7651C46.4961 36.7649 46.4899 36.7651 46.4839 36.7651C44.0621 36.7651 41.6628 36.1719 39.5451 35.0495C36.25 33.3027 32.9446 32.0475 29.6588 31.2886ZM80.3144 30.5788C80.0142 30.4793 79.6941 30.4233 79.3606 30.4233C74.8449 30.4233 70.5494 29.0339 66.9388 26.4054C61.3298 22.322 56.5255 20.2515 52.6599 20.2515C49.9892 20.2515 47.9238 21.1226 46.4872 22.0424C45.0595 21.129 42.9964 20.2515 40.3399 20.2515C36.4745 20.2515 31.6701 22.322 26.061 26.4054C22.4504 29.0338 18.1553 30.4229 13.6392 30.4229C13.3057 30.4229 12.9853 30.4789 12.6852 30.5784C10.6781 30.5991 8.84752 30.6088 7.35843 30.604C8.34546 28.2117 9.82892 24.9292 11.7676 21.5146C16.3304 13.4779 21.3384 8.34548 26.2508 6.67221C30.0538 5.37675 33.883 6.10949 37.9576 8.9131C38.1871 9.07095 38.4035 9.2208 38.6082 9.36248C41.3628 11.2697 42.7454 12.2271 46.5001 12.2271C50.2546 12.2271 51.6372 11.2697 54.3922 9.3623C54.5971 9.22062 54.8129 9.07095 55.0426 8.9131C59.1166 6.10985 62.946 5.3762 66.7494 6.67221C71.6618 8.34548 76.6698 13.4779 81.2324 21.5148C83.1711 24.9294 84.6547 28.212 85.6416 30.6042C84.1521 30.6089 82.3219 30.5995 80.3144 30.5788Z" fill="white"/>
</svg>
