<svg width="128" height="128" viewBox="0 0 128 128" fill="none" xmlns="http://www.w3.org/2000/svg">
<path d="M124.214 106.974L97.4646 80.4302C102.651 72.3237 105.65 62.7132 105.65 52.4255C105.65 23.5195 81.9533 0 52.8225 0C23.6916 0 0 23.5195 0 52.4255C0 81.3315 23.6916 104.851 52.8278 104.851C62.685 104.851 71.9187 102.158 79.8195 97.4751L106.806 124.253C118.329 135.672 135.743 118.408 124.214 106.974ZM16.3767 52.4255C16.3767 32.4846 32.7319 16.2556 52.8278 16.2556C72.9238 16.2556 89.279 32.4793 89.279 52.4255C89.279 72.3717 72.9238 88.5953 52.8278 88.5953C32.7319 88.5953 16.3767 72.3663 16.3767 52.4255ZM27.1798 43.0177C37.8432 18.4902 73.7461 21.3328 80.5075 47.0123C66.888 31.1513 42.9223 29.4447 27.1798 43.0177Z" fill="white"/>
</svg>
