<svg width="51" height="65" viewBox="0 0 51 65" fill="none" xmlns="http://www.w3.org/2000/svg">
<path d="M19.4251 0.280586C18.8912 0.547218 18.6882 0.839714 16.4895 4.30859L14.1382 8.04477L13.3755 8.38767C12.9689 8.56543 12.3846 8.88313 12.0921 9.06088C11.787 9.25124 11.5203 9.40379 11.4951 9.40379C11.4567 9.40379 11.1774 9.06089 10.8471 8.6543L10.2754 7.89155L12.1179 6.48078C13.1347 5.70543 14.0116 4.95594 14.0878 4.82859C14.1641 4.67604 14.1893 4.21839 14.1256 3.65926C14.062 2.8839 13.9857 2.68094 13.6939 2.38844C13.5035 2.18481 13.2747 2.03293 13.1725 2.03293C13.0837 2.03293 10.9871 2.26176 8.53432 2.52839L4.04866 3.02385L2.15504 4.8412C1.10045 5.83212 0.185142 6.81109 0.0962644 7.00145C-0.157766 7.63686 0.0325909 7.91609 1.37968 8.90767C2.56162 9.78451 2.72677 9.97487 4.09907 11.8937L5.56024 13.9273L4.25228 15.2624C3.5406 15.9867 2.75264 16.8635 2.51121 17.2197L2.07943 17.8551V39.9664V62.0777L2.43494 62.8019C2.84152 63.6277 3.5658 64.3394 4.41744 64.7334L5.00177 65H26.4146H47.8268L48.5511 64.6445C49.3769 64.2379 50.0885 63.5136 50.4825 62.662L50.7492 62.0777V32.5955V3.11339L50.3936 2.38911C49.9745 1.53747 49.2502 0.749512 48.5 0.35553L47.9535 0.0630341L33.9752 0.0252304L19.9969 2.28882e-05L19.4251 0.280586ZM37.9787 4.85512C37.6994 5.30017 37.1144 6.21481 36.67 6.88869L35.8821 8.13431H27.3929C22.7163 8.13431 18.9171 8.08323 18.9423 8.03282C18.9675 7.96915 19.5266 7.05451 20.1879 5.99992L21.395 4.06849H29.9472H38.4867L37.9787 4.85512ZM11.9787 20.7523C12.1949 20.9937 14.1389 23.2428 16.3118 25.7719L20.2383 30.3723H26.4146L32.5777 30.3597L36.7715 25.4674C39.0843 22.7732 41.0668 20.5115 41.1809 20.4478C41.8163 20.1049 42.6805 20.613 42.6805 21.3373C42.6805 21.6676 42.0199 22.5066 38.6141 26.4583L34.5602 31.198L34.5476 39.6487V48.0993L38.6141 52.8264C42.0325 56.804 42.6805 57.6298 42.6805 57.9475C42.6805 58.6466 41.9178 59.1546 41.2446 58.888C41.1431 58.8495 39.1221 56.5626 36.7463 53.8047L32.451 48.7978H26.402H20.353L16.2992 53.5249C14.0752 56.1302 12.0927 58.4171 11.9024 58.6081C11.2544 59.2813 10.1487 58.8621 10.1487 57.9601C10.1487 57.5283 9.86948 57.8712 14.9395 51.9496L18.2817 48.0609V39.6487V31.2365L14.9395 27.3478C9.86881 21.4261 10.1487 21.769 10.1487 21.3373C10.1487 20.8159 10.6442 20.3331 11.1781 20.3331C11.4706 20.3331 11.6862 20.4472 11.9787 20.7523Z" fill="white"/>
<path d="M20.3151 39.6488V46.7649H26.4152H32.5146V39.6488V32.5326H26.4152H20.3151V39.6488Z" fill="white"/>
</svg>
