<svg width="111" height="128" viewBox="0 0 111 128" fill="none" xmlns="http://www.w3.org/2000/svg">
<path d="M73.8763 60.848C68.2862 65.3387 31.6796 94.7573 23.2042 101.573L8.87296 87.1893L49.6189 36.5013L57.1751 44.0853L23.1404 86.4213L23.9906 87.2747L66.3148 53.2587L73.8763 60.848ZM70.0504 15.7653C67.7282 18.096 66.5167 20.512 65.8472 22.6187L87.7558 44.608C89.8388 43.936 92.246 42.7093 94.5734 40.3787C101.333 33.5947 101.333 22.5493 94.5734 15.7653C87.809 8.97067 76.8361 8.95467 70.0504 15.7653ZM102.087 8.224C113.007 19.1893 113.007 36.96 102.087 47.92C94.8232 55.2107 86.7569 55.824 84.185 56.112L54.3748 26.192C54.7255 23.3813 55.3365 15.456 62.5367 8.224C73.4618 -2.74133 91.1673 -2.74133 102.087 8.224ZM76.1187 122.923L68.35 128C60.3527 115.685 55.3365 113.211 49.8315 113.211C41.3188 113.211 37.5886 119.04 29.1662 124.347C19.2826 130.571 8.86764 127.328 3.68672 120.907C-0.829986 115.312 -2.12123 106.283 5.16926 98.736L11.1526 104.555L11.8168 105.221C7.3479 109.867 9.97291 113.92 10.8869 115.051C13.4215 118.187 18.6769 119.968 24.2351 116.469C32.0888 111.52 37.647 103.909 49.8262 103.909C61.4049 103.904 68.7113 111.509 76.1187 122.923Z" fill="white"/>
</svg>
