<svg width="108" height="128" viewBox="0 0 108 128" fill="none" xmlns="http://www.w3.org/2000/svg">
<path d="M69.5605 10.6666V37.3333H96.3146V117.333H10.7016V10.6666H69.5605ZM74.9113 0H0V128H107.016V31.9999L74.9113 0Z" fill="white"/>
<path fill-rule="evenodd" clip-rule="evenodd" d="M76.7951 63.6214C80.4037 66.6113 82.7077 71.1652 82.7077 76.263C82.7077 85.253 75.5372 92.5538 66.7077 92.5538C64.6966 92.5538 62.7717 92.1754 60.997 91.4836L76.7951 63.6214ZM47.4955 84.6966L46.6019 86.2856C43.205 92.2781 35.6703 94.3333 29.7872 90.8746C23.9017 87.4159 21.8832 79.7442 25.2801 73.7542L42.1982 43.6839C44.4899 39.6413 48.6622 37.3907 52.9428 37.4157C55.008 37.4283 57.0979 37.9696 59.013 39.0949C63.5471 41.7591 65.7871 46.9271 65.0216 51.897C64.8517 52.9922 64.5391 54.075 64.0714 55.1226C61.6591 55.4334 59.3723 56.1627 57.2874 57.2354L59.2542 53.709C61.2923 50.115 60.0813 45.511 56.5514 43.4358C53.0216 41.3606 48.4998 42.5962 46.4616 46.1902L38.1613 61.065L47.9533 66.8194C46.5675 69.6665 45.7896 72.872 45.7896 76.2605C45.7896 79.2555 46.3976 82.1102 47.4955 84.6966ZM56.7262 88.9924C53.0585 86.0049 50.7078 81.4109 50.7078 76.263C50.7078 67.273 57.8782 59.9722 66.7077 59.9722C68.768 59.9722 70.7372 60.3682 72.5465 61.0925L56.7262 88.9924Z" fill="white"/>
</svg>
