<svg width="123" height="128" viewBox="0 0 123 128" fill="none" xmlns="http://www.w3.org/2000/svg">
<path fill-rule="evenodd" clip-rule="evenodd" d="M26.5418 37.3333V0H95.5504V53.3333H122.092V128H0V37.3333H26.5418ZM26.5418 122.667V101.333H21.2334V122.667H26.5418ZM69.0086 101.333H53.0836V122.667H69.0086V101.333ZM100.859 101.333H95.5504V122.667H100.859V101.333ZM111.475 63.9999H95.5504V95.9999H106.167V117.333H111.475V63.9999ZM84.9337 10.6667H37.1585V117.333H42.4669V90.6666H79.6253V117.333H84.9337V10.6667ZM15.9251 117.333V95.9999H26.5418V48H10.6167V117.333H15.9251ZM106.167 85.3333H100.859V74.6666H106.167V85.3333ZM15.9251 74.6666H21.2334V85.3333H15.9251V74.6666ZM58.3919 79.9999H47.7752V69.3333H58.3919V79.9999ZM74.317 79.9999H63.7003V69.3333H74.317V79.9999ZM21.2334 58.6666V69.3333H15.9251V58.6666H21.2334ZM58.3919 63.9999H47.7752V53.3333H58.3919V63.9999ZM74.317 63.9999H63.7003V53.3333H74.317V63.9999ZM58.3919 48H47.7752V37.3333H58.3919V48ZM74.317 48H63.7003V37.3333H74.317V48ZM58.3919 32H47.7752V21.3333H58.3919V32ZM74.317 32H63.7003V21.3333H74.317V32Z" fill="white"/>
</svg>
