<svg width="140" height="128" viewBox="0 0 140 128" fill="none" xmlns="http://www.w3.org/2000/svg">
<path fill-rule="evenodd" clip-rule="evenodd" d="M133.821 94.9644L129.621 99.1535C127.745 101.027 124.692 101.027 122.816 99.1535L113.682 90.0306L102.001 101.696L111.136 110.819C113.012 112.692 113.017 115.735 111.136 117.615L106.935 121.804L112.942 128L139.815 100.951L133.821 94.9644ZM38.3968 33.4836L5.82564 0H20.8616L46.7042 25.4371C52.0288 21.4109 60.1206 16.9542 66.4414 17.0007L110.903 61.4051C112.79 63.2844 115.831 63.2844 117.713 61.4051L121.214 57.9142L129.399 66.0887L79.0656 116.364L70.8748 108.189L74.3818 104.692C76.2576 102.813 76.2576 99.7702 74.3818 97.8909L29.9088 53.4807C29.8622 47.168 34.3596 38.8015 38.3968 33.4836ZM81.6988 88.7098L85.7942 92.8058L105.834 72.7855L62.5557 29.5564C54.528 32.9949 45.44 42.0771 42.5097 49.5767L53.0308 60.0844L63.0276 50.0887L67.0706 54.1207L57.068 64.1164L61.2683 68.3113L71.2651 58.3156L75.3081 62.3476L65.2996 72.3375L69.4242 76.4567L79.421 66.4669L83.464 70.4931L73.4613 80.4887L77.6616 84.6778L87.6584 74.688L91.7014 78.72L81.6988 88.7098ZM10.0143 14.8713C16.1079 23.9476 20.0169 29.6262 20.0169 35.1476C20.0169 40.6691 15.5428 45.1433 10.0143 45.1433C4.47992 45.1433 0 40.6691 0 35.1476C0 29.6262 3.92066 23.9476 10.0143 14.8713Z" fill="white"/>
</svg>
