<svg width="55" height="66" viewBox="0 0 55 66" fill="none" xmlns="http://www.w3.org/2000/svg">
<path d="M40.9203 7.43247C40.0107 6.58506 38.8909 6.01866 37.6768 5.79842C37.0758 5.68562 36.4461 5.67249 35.8242 5.74299C35.2023 5.81348 34.576 5.97295 33.9681 6.24035C33.2874 6.53984 32.6912 6.93267 32.1796 7.41885L31.1797 5.14596C30.8268 4.34376 30.3319 3.64754 29.7178 3.07628C28.8082 2.22886 27.6885 1.66246 26.4743 1.44222C25.8733 1.32943 25.2437 1.3163 24.6218 1.38679C23.9998 1.45729 23.3735 1.61676 22.7657 1.88416C22.0119 2.21573 21.3589 2.67712 20.8079 3.23866C20.6226 3.0155 20.4306 2.80984 20.2264 2.60954C19.3168 1.76212 18.197 1.19572 16.9829 0.975482C16.3819 0.862687 15.7522 0.849559 15.1303 0.920055C14.5084 0.990551 13.8821 1.15002 13.2864 1.41207C12.484 1.76504 11.7877 2.25997 11.2162 2.87402C10.3686 3.78366 9.80193 4.90334 9.58148 6.11733C9.46859 6.71825 9.45537 7.34786 9.52578 7.96968C9.5962 8.59151 9.7556 9.21771 10.0229 9.82544L10.1673 10.1536C10.0837 10.1614 10 10.1692 9.91641 10.1769C9.29449 10.2474 8.66818 10.4069 8.06033 10.6743C7.25798 11.0273 6.5616 11.5222 5.99018 12.1363C5.14252 13.0459 4.57588 14.1656 4.35544 15.3796C4.24254 15.9805 4.22932 16.6101 4.29974 17.2319C4.37015 17.8538 4.52955 18.48 4.7969 19.0877L12.4644 36.5173L11.0389 35.157C10.9704 35.1001 10.965 35.0879 10.8965 35.031C10.4273 34.6572 9.90659 34.364 9.37613 34.1476C8.5656 33.8224 7.72199 33.6858 6.89391 33.7164C6.06582 33.747 5.26009 33.9274 4.50636 34.259C3.48518 34.7082 2.55197 35.4234 1.85115 36.37C1.51363 36.8231 1.22716 37.3263 1.02967 37.8339C0.717877 38.6093 0.58793 39.4354 0.632064 40.2283C0.692239 41.0577 0.886139 41.8283 1.20161 42.5455C1.61332 43.4814 2.2142 44.3195 2.93811 45.0746L17.0444 59.7587L17.1183 59.8278C18.4645 61.1069 19.946 62.2976 21.6049 63.2651C22.8413 63.9977 24.1969 64.6055 25.6555 65.0518C27.847 65.7125 30.2786 65.9629 32.9268 65.6829C35.5924 65.4096 38.4798 64.6181 41.6528 63.2223C44.5462 61.9495 47.0676 60.26 49.1266 58.1791C50.6726 56.6141 51.9323 54.8269 52.8744 52.8457C53.5841 51.3585 54.1026 49.7667 54.4355 48.0826C54.9226 45.5618 54.956 42.8343 54.5329 39.9595C54.0802 37.0832 53.183 34.0543 51.7928 30.8941L42.3822 9.50215C42.0293 8.69995 41.5344 8.00374 40.9203 7.43247ZM50.4705 41.9062C50.6579 44.0142 50.5453 45.9351 50.1434 47.6932C49.8525 49.0107 49.4054 50.2374 48.8198 51.3799C47.9448 53.0849 46.7577 54.6081 45.2706 55.9442C43.7781 57.268 41.9856 58.4047 39.9068 59.3192C37.3781 60.4316 35.152 61.0773 33.1822 61.349C31.7088 61.562 30.3765 61.5678 29.158 61.4365C27.3249 61.2275 25.717 60.6727 24.2165 59.8676C22.7511 59.0761 21.3932 58.0342 20.098 56.8052L5.99168 42.121C5.55655 41.6596 5.25758 41.2109 5.09182 40.8341C5.00627 40.6396 4.95573 40.4588 4.92803 40.2969C4.88042 40.0567 4.89066 39.8491 4.94272 39.6376C4.99478 39.4261 5.08331 39.1986 5.28659 38.9351C5.54144 38.5909 5.87553 38.3278 6.24023 38.1674C6.59278 38.0123 6.97061 37.9476 7.31973 37.9826C7.48553 37.9967 7.64988 38.0405 7.80741 38.1018C7.96495 38.163 8.10351 38.2471 8.24062 38.3609L17.0594 46.7976C17.6418 47.5279 18.6804 47.8108 19.5679 47.4204C20.5039 47.0086 20.9947 45.9803 20.7867 45.0128C20.7484 44.8266 20.6857 44.6511 20.5986 44.4863L8.67495 17.3817C8.55197 17.1021 8.49366 16.8376 8.50148 16.5586C8.4923 16.1419 8.61927 15.7379 8.82695 15.3854C8.93687 15.2065 9.07498 15.0587 9.2306 14.9177C9.38622 14.7767 9.57004 14.6668 9.7767 14.5759C10.0563 14.4529 10.3208 14.3946 10.5999 14.4024C11.0167 14.3931 11.4207 14.52 11.7732 14.7276C11.9521 14.8375 12.0999 14.9756 12.2409 15.1311C12.3819 15.2867 12.4918 15.4705 12.5827 15.6771L20.2769 33.1675L20.3357 33.3012C20.8063 34.3708 22.0665 34.8609 23.1364 34.3903C24.1955 33.8953 24.6858 32.6351 24.2153 31.5655L24.1671 31.4562L16.4622 13.9415L13.8957 8.10728C13.7727 7.82772 13.7144 7.56324 13.7222 7.28417C13.713 6.86751 13.84 6.4635 14.0477 6.11102C14.1576 5.9321 14.2957 5.7843 14.4513 5.64331C14.6069 5.50232 14.7907 5.39244 14.9974 5.30152C15.277 5.17852 15.5415 5.12018 15.8206 5.12796C16.2374 5.11872 16.6414 5.24561 16.9939 5.45321C17.1728 5.56309 17.3206 5.70117 17.4616 5.85674C17.6026 6.01232 17.7125 6.1961 17.8034 6.40273L19.2898 9.78169C19.3525 9.9572 19.4152 10.1327 19.4901 10.3029L28.0452 29.7501C28.5157 30.8197 29.776 31.3098 30.8458 30.8392L30.858 30.8338L30.8701 30.8285C31.9399 30.3579 32.4127 29.0909 31.9422 28.0213L23.2962 8.36739C23.235 8.16222 23.1966 7.97601 23.2068 7.76841C23.1976 7.35176 23.3246 6.94774 23.5323 6.59526C23.6422 6.41634 23.7803 6.26854 23.9359 6.12755C24.0916 5.98656 24.2754 5.87668 24.482 5.78577C24.7617 5.66276 25.0262 5.60442 25.3053 5.6122C25.722 5.60296 26.1261 5.72986 26.4786 5.93745C26.6575 6.04733 26.8053 6.18541 26.9463 6.34099C27.0873 6.49656 27.1971 6.68034 27.288 6.88697L30.5496 14.3012C30.591 14.4281 30.6391 14.5375 30.6925 14.6591L36.6811 28.2722C36.9164 28.807 37.3491 29.1969 37.8689 29.3889C38.3765 29.5863 38.9644 29.6033 39.4993 29.368C40.5584 28.8731 41.0487 27.6129 40.5782 26.5433L34.4987 12.7236C34.4374 12.5184 34.3991 12.3322 34.4093 12.1246C34.4001 11.7079 34.5271 11.3039 34.7348 10.9515C34.8447 10.7725 34.9828 10.6247 35.1384 10.4837C35.294 10.3428 35.4778 10.2329 35.6845 10.142C35.9641 10.019 36.2287 9.96061 36.5078 9.96839C36.9245 9.95915 37.3285 10.086 37.681 10.2936C37.8599 10.4035 38.0077 10.5416 38.1487 10.6972C38.2897 10.8528 38.3996 11.0365 38.4905 11.2432L47.8904 32.6108C49.3944 35.9966 50.2103 39.1048 50.4705 41.9062Z" fill="white"/>
</svg>
