<svg width="111" height="128" viewBox="0 0 111 128" fill="none" xmlns="http://www.w3.org/2000/svg">
<path d="M79.04 128H0.0266667L0 121.381C0 107.941 1.06133 100.181 16.9493 96.512C34.896 92.368 52.6187 88.656 44.096 72.9493C18.8533 26.3947 36.896 0 64 0C100.005 0 104.032 40.5067 83.4133 72.9547C76.5227 83.7867 69.3333 92.3147 69.3333 104C69.3333 113.317 73.0453 121.765 79.04 128Z" fill="white"/>
<path d="M90.586 100.388H84.1841C83.3728 100.388 82.7072 99.7278 82.7072 98.9067C82.7072 98.5364 82.847 98.1682 83.1128 97.8866C86.431 94.3912 92.3524 88.1488 95.0641 85.2914C95.4363 84.8976 95.9542 84.677 96.4918 84.677C97.0313 84.677 97.5473 84.8976 97.9195 85.2914C100.631 88.1488 106.555 94.3912 109.869 97.8866C110.137 98.1682 110.276 98.5364 110.276 98.9067C110.276 99.7278 109.613 100.388 108.799 100.388H102.397V118.15C102.397 119.196 101.472 120.123 100.428 120.123H92.5553C91.5116 120.123 90.586 119.196 90.586 118.15V100.388Z" fill="white"/>
</svg>
