<svg width="114" height="128" viewBox="0 0 114 128" fill="none" xmlns="http://www.w3.org/2000/svg">
<path d="M66.4425 0.660957C65.0985 2.00494 64.469 3.66369 64.469 5.97942C64.4402 8.78102 65.0123 9.83896 68.4722 13.4425C71.3025 16.4165 72.1606 17.7605 72.4754 19.704L72.6752 20.8769L71.5598 20.391C68.8144 19.1907 65.7267 18.2176 64.1255 18.0753C62.2956 17.9042 60.1797 18.39 60.3508 18.9046C60.4083 19.0757 61.1802 19.4193 62.067 19.7053C63.9256 20.2774 65.8978 21.364 66.6985 22.2496C67.2131 22.8217 67.2131 22.8217 65.8978 23.1652C64.3828 23.5361 61.9234 25.2811 60.7805 26.7961C59.7226 28.1976 59.0356 30.5995 59.2654 32.2008C59.4378 33.6023 60.4958 35.8031 60.838 35.6032C60.9817 35.517 61.1528 34.7738 61.2664 33.9732C61.495 32.2857 62.2107 30.7132 63.2112 29.7989C64.3841 28.7122 67.7003 27.7979 67.3568 28.6547C66.9271 29.7989 66.5849 32.3144 66.8134 32.7442C67.042 33.1438 67.1857 33.0877 68.0425 32.3432C70.3007 30.3984 72.3605 29.9125 74.2765 30.913C75.8491 31.7136 76.5922 32.6854 76.7921 34.2018C76.9919 35.6881 76.2775 37.2319 75.0197 38.0051C73.7619 38.7784 73.0749 38.7196 71.9321 37.7191C70.703 36.6612 70.5306 36.6324 70.9028 37.6904C71.646 39.8063 73.4471 41.1215 77.7939 42.6941C79.2802 43.2374 80.0247 44.153 80.2245 45.7255C80.5106 47.8989 78.2236 48.757 76.1077 47.2981C75.5356 46.9272 75.021 46.6411 74.9635 46.6973C74.9061 46.7534 75.1346 47.5554 75.4781 48.4697C76.365 50.8141 78.281 52.6727 80.4818 53.331C82.5403 53.9318 85.0859 53.7594 87.0293 52.9026C88.7168 52.1594 88.487 51.7872 86.1712 51.4724C84.0841 51.1864 83.6557 50.6718 83.8268 48.727C83.913 47.9263 84.1128 46.7822 84.3126 46.1252C84.7985 44.6101 84.5412 43.752 83.0549 41.9222C81.1963 39.6064 80.824 38.6621 81.3399 37.3181C81.4823 36.9185 81.5972 36.9185 82.2542 37.2607C82.6826 37.4892 83.3122 38.0613 83.6557 38.5184C83.9992 39.0043 84.9996 39.7188 85.8852 40.1485C87.5439 40.9778 88.5444 41.0066 93.9204 40.4058C95.3218 40.2634 95.4642 40.2908 96.5796 41.2926C97.6375 42.2644 98.2096 43.351 99.5823 47.2681C99.7534 47.7827 99.8684 47.7539 100.754 46.8684C103.041 44.6376 103.185 41.179 101.126 36.8897C100.44 35.4595 99.6398 34.4591 97.6663 32.6005C94.6635 29.7127 93.0061 27.3395 92.72 25.5384C92.6338 24.8239 92.3191 23.9658 92.033 23.6223L91.5184 22.9928L90.6603 23.6223L89.7735 24.2793L88.8017 23.1351C87.7438 21.9061 87.1717 20.361 87.1717 18.761C87.1717 18.1889 87.0568 17.6743 86.9144 17.5881C86.772 17.5019 86.085 17.9316 85.3706 18.5598C84.6561 19.1881 83.9979 19.6178 83.9404 19.5028C83.8829 19.3605 83.6544 18.8171 83.4833 18.2451C82.7976 16.1579 79.881 13.8422 76.2487 12.5269C74.991 12.0698 73.6182 11.4977 73.1898 11.2979C72.0183 10.6683 70.0447 8.41008 69.2728 6.75133C68.5009 5.06384 68.4147 3.89226 68.9868 1.77637C69.359 0.346184 69.359 0.318756 68.7582 0.146347C67.6728 -0.13969 67.1295 -0.0247498 66.4425 0.660957ZM83.3696 24.1643C83.9704 24.6215 84.7136 25.7369 85.4568 27.252C86.0863 28.5672 86.9431 30.0549 87.3441 30.5408C87.7725 31.0554 88.0586 31.4838 88.0024 31.5412C87.4016 32.0846 84.6849 33.1425 83.9417 33.1425C82.1693 33.1425 81.8833 32.4568 81.8833 28.3099C81.8833 25.3934 81.7971 24.5353 81.3687 23.7921L80.8828 22.8491L81.6547 23.1639C82.0831 23.335 82.8838 23.7921 83.3696 24.1643ZM98.0098 36.43C98.7242 36.7735 99.7534 38.5746 99.7534 39.404C99.7534 39.7188 96.5221 38.1462 96.065 37.6029C95.7228 37.2032 95.7502 37.0595 96.1799 36.5737C96.8082 35.8879 96.9806 35.8879 98.0098 36.43Z" fill="white"/>
<path d="M14.0611 16.1575C13.4315 16.4436 14.2034 17.3866 15.9197 18.4732C19.6943 20.8464 21.6953 23.1334 21.6953 25.0782C21.6953 25.6216 21.323 27.2803 20.8372 28.7667C20.38 30.2243 19.9791 31.9692 19.9791 32.6262V33.8553L19.2933 32.826C18.4352 31.5683 16.463 30.2243 14.3759 29.4236C9.02866 27.4501 3.51036 28.4232 1.22336 31.7968C0.42272 32.9984 -0.120621 34.9707 0.0230511 36.3146L0.109254 37.2864L0.909898 36.0848C2.62482 33.4255 8.57282 31.5957 12.0327 32.6249C13.9775 33.197 15.9497 35.2267 16.8366 37.5999L17.1226 38.343L15.7786 37.5424C13.0058 35.9411 12.2613 35.6551 11.5756 35.8275C10.66 36.056 6.82917 39.1149 5.85743 40.3453C4.17124 42.5748 3.82774 43.8339 3.82774 47.8645C3.82774 51.6954 4.31361 54.0973 5.28535 54.8692C5.62886 55.184 5.68633 55.0116 5.68633 53.84C5.71506 46.2058 11.2046 39.9731 15.8936 42.2026C17.0664 42.7459 18.2667 44.4608 19.1536 46.8628C19.4684 47.7209 20.2403 49.0936 20.8698 49.8942C22.6135 52.1812 22.3 53.183 19.5833 53.84L18.7539 54.0398L19.4396 54.7543C20.9547 56.3843 22.8995 56.7565 23.9 55.6411C25.2727 54.126 25.53 52.5822 24.7294 50.3226C24.2722 49.0936 24.1286 47.4348 24.4146 47.4348C24.9579 47.4348 26.3019 48.4066 26.7303 49.0936C27.5884 50.5799 28.8462 50.9522 28.8462 49.7231C28.8462 49.4371 29.1035 48.1218 29.4183 46.8066C30.104 43.8901 30.104 43.9188 29.447 43.5753C26.3307 42.0027 24.8443 40.6875 24.8443 39.5146C24.8443 39.2286 24.587 38.6003 24.2722 38.1419C23.4716 36.9128 23.5578 36.0547 24.8156 33.052C26.2745 29.6496 26.6742 28.0196 26.4743 26.161C26.1883 23.4155 24.6157 21.0998 21.6417 19.0701C18.6351 17.0444 15.119 15.7004 14.0611 16.1575Z" fill="white"/>
<path d="M48.2868 21.9911C46.2284 22.2484 43.6828 23.1065 43.5117 23.5924C43.4542 23.7635 43.7977 24.0782 44.2836 24.2781C44.7407 24.4779 45.1417 24.7065 45.1417 24.8214C45.1417 24.9363 43.8839 25.622 42.3675 26.394C36.7343 29.1394 33.6466 31.3115 32.6749 33.17L32.2752 33.9707L33.5905 34.0569L34.9057 34.1431L33.4468 35.8018C32.6462 36.6887 31.617 38.0039 31.1311 38.7184C30.3304 39.8625 30.3017 40.0049 30.7876 40.0049C31.1023 40.0049 31.8743 39.8338 32.5025 39.6052L33.6466 39.2056L32.0166 42.4081C30.4153 45.5245 29.3574 48.6409 28.8428 51.9296C28.7004 52.8165 28.6429 53.6446 28.7278 53.7882C28.814 53.9032 29.2137 53.7595 29.6434 53.416L30.4153 52.8152L30.5015 53.5009C30.9299 57.1319 32.3314 61.5348 32.846 60.964C32.9884 60.849 33.3031 59.5913 33.5604 58.2199C34.2461 54.3877 34.9044 53.3298 35.2754 55.3608C35.8474 58.5346 38.1632 61.3937 38.9925 59.9922C39.1062 59.8211 39.7932 60.2783 40.6787 61.1077C41.994 62.3654 44.0811 63.4521 44.4534 63.0812C44.5396 62.995 44.3959 62.4516 44.1386 61.8809C43.5953 60.5656 43.6815 60.4219 44.5957 61.109C46.4831 62.5953 49.4571 63.5396 54.6893 64.3115C59.5506 65.0547 61.438 65.7417 62.9818 67.2855C64.6967 68.973 65.4987 70.8891 65.641 73.4621C65.756 75.3494 65.6985 75.7204 65.0977 76.6072C64.2108 77.9512 61.6953 79.1802 59.4932 79.3814C58.0068 79.5238 54.4608 78.9804 52.9457 78.4096C52.2874 78.1523 52.5447 79.0954 53.5752 80.6117C54.1473 81.4411 54.547 82.1556 54.5182 82.1843C53.775 82.8138 52.0301 83.2997 50.2577 83.4133C47.5985 83.5557 44.8543 83.0124 41.4794 81.6122C39.1924 80.6979 39.1062 80.6692 39.306 81.2687C39.3922 81.6122 39.7919 82.3841 40.1928 83.0124L40.9073 84.1278L39.5058 83.9279C38.7627 83.813 36.6468 83.3559 34.8456 82.8987C30.4428 81.812 28.6978 81.6122 26.6681 82.0406C23.4368 82.6989 23.3232 83.1848 26.2684 83.7843C27.1266 83.9554 28.1558 84.2701 28.5554 84.47L29.2699 84.8422L28.4118 85.0421C22.2352 86.4422 19.3761 87.7013 16.632 90.1594L15.002 91.6745L16.0312 92.018L17.0604 92.3615L15.3768 93.9601C13.2897 95.9611 11.9744 98.4492 11.8033 100.794C11.7171 101.737 11.7746 102.652 11.9183 102.881C12.2905 103.395 13.1186 103.081 13.3197 102.366C13.4059 102.051 13.6345 101.737 13.8343 101.652C14.1491 101.537 14.234 102.51 14.3202 106.427C14.4064 111.26 14.4338 111.373 15.3494 113.318C16.4648 115.72 18.9804 120.18 19.896 121.438C20.5529 122.296 21.8969 123.125 22.1829 122.811C22.2404 122.753 22.0967 122.21 21.8682 121.639C21.6109 121.038 21.411 120.238 21.411 119.867C21.411 119.237 21.5247 119.295 22.4977 120.552C24.9859 123.669 30.7902 128.501 31.361 127.958C31.4184 127.901 30.6465 126.843 29.646 125.614C27.4152 122.839 24.8996 119.066 23.7555 116.75C22.4977 114.262 20.7815 108.287 20.6391 105.914C20.3818 102.225 21.9256 97.8223 24.2988 95.4491C26.8719 92.8761 31.1899 90.674 36.1936 89.4162C38.4518 88.8154 39.2812 88.7592 43.9988 88.8441C46.9154 88.9016 50.003 88.9591 50.8611 88.9865L52.4049 89.044L53.2918 87.4714C54.8643 84.6411 58.5528 82.6963 63.0419 82.4102C64.9867 82.2679 65.7298 82.3528 67.9881 83.0398C69.447 83.4682 70.7623 83.6968 70.8759 83.5831C71.5903 82.84 72.391 79.4088 72.5347 76.4348C72.7071 72.5178 72.1637 69.8011 70.5899 66.656C68.0443 61.5922 64.6706 59.1616 55.4351 55.7304C47.7434 52.9001 44.3985 50.4982 42.3688 46.38C41.3396 44.3216 41.2821 44.0068 41.2821 41.6049C41.2821 39.2604 41.3683 38.802 42.1977 37.0583C43.398 34.5415 45.6863 32.2545 48.1157 31.1103C51.1746 29.6801 51.2608 30.0524 48.5728 33.1113C45.4277 36.6848 44.7407 38.2012 44.7133 41.5748C44.7133 43.8906 44.7995 44.349 45.6289 46.0639C46.6581 48.2373 48.4305 50.2957 50.289 51.496C51.0035 51.9532 53.8064 53.0398 56.5218 53.8979C59.2385 54.7561 62.7545 56.1288 64.3846 56.9294C70.7322 60.132 74.3919 65.7078 75.4499 73.9415C75.8509 77.1153 75.4786 80.8325 74.5069 83.5492L73.8499 85.3503L74.6506 86.437C75.079 87.0665 75.5936 88.067 75.7372 88.724C76.3668 91.1546 76.3093 91.1546 78.2254 89.0675C81.0844 86.0086 83.0005 81.2896 83.3727 76.4009C83.5438 73.9702 83.8873 73.5705 84.2021 75.4004C84.2883 75.9725 84.5743 76.7731 84.8316 77.1728L85.2888 77.8872L85.5174 77.0291C85.9458 75.514 86.1182 71.2822 85.8321 70.4241C85.661 69.967 85.2026 68.7366 84.8029 67.6787L84.0597 65.7339L85.1177 66.191C85.6898 66.4483 86.5479 66.7344 87.0337 66.8206L87.8631 66.9629L87.3485 66.1336C85.0903 62.5888 82.6596 60.4154 77.7134 57.5564C75.9122 56.5271 74.3397 55.5554 74.1673 55.4117C74.0236 55.2694 74.4533 55.1544 75.3114 55.1544C76.6554 55.1544 76.6842 55.1257 76.1983 54.6111C75.4551 53.7817 72.4524 52.409 69.5933 51.5796C67.6485 51.0075 65.705 50.7215 61.7305 50.4355C54.5822 49.8921 52.7236 49.2626 49.922 46.4035C46.1186 42.5727 46.4334 38.7406 50.865 34.2515C52.4376 32.6502 53.0097 32.2793 54.4385 31.8496C57.3838 31.0202 57.47 30.9627 58.2981 28.3322C58.8702 26.5886 59.3273 25.7017 60.1279 24.8723L61.2146 23.7569L58.8989 23.0138C56.7255 22.3281 52.5225 21.6698 50.8637 21.7272C50.4601 21.7625 49.316 21.8774 48.2868 21.9911Z" fill="white"/>
<path d="M87.8881 43.7218C87.8019 43.8641 88.3165 44.4075 89.0597 44.9234C92.577 47.354 93.0916 48.2683 94.2919 54.0726C95.8945 61.7917 97.3521 64.5946 100.384 65.8524C101.899 66.5107 104.758 66.4245 106.33 65.71C107.76 65.0805 109.189 63.8227 109.189 63.2507C109.189 62.6786 108.189 62.8222 107.588 63.4792C106.188 65.023 104.158 65.3091 102.499 64.1649C101.927 63.764 101.328 63.4505 101.184 63.4505C100.698 63.4505 99.2394 61.1922 98.3539 59.0763C97.8968 57.9322 97.0099 55.3017 96.3817 53.2433C94.3807 46.6096 92.0075 43.4357 89.0623 43.4357C88.5176 43.4357 87.9743 43.5493 87.8881 43.7218Z" fill="white"/>
<path d="M96.1213 78.1756C94.4064 78.6615 92.3466 79.662 90.9178 80.7199C90.3744 81.1209 89.5738 81.4631 89.1741 81.4631C87.6303 81.4631 86.6586 82.9782 86.1439 86.2382C85.9154 87.782 86.3438 88.4965 88.2886 89.7268C89.0605 90.2414 89.8037 90.8997 89.8899 91.157C90.2334 92.2724 89.0892 93.9312 86.9159 95.5038C85.2009 96.7328 84.4565 96.8477 82.5979 96.1895C80.9391 95.5886 80.367 95.6461 79.2817 96.4755C78.7671 96.8752 78.0814 97.1899 77.7666 97.1899C76.8797 97.1899 75.2223 95.3601 74.8788 93.9874C73.0777 87.0389 70.3322 84.7806 63.7272 84.7519C60.8394 84.7519 60.6396 84.7806 58.9234 85.7236C56.6638 86.954 54.0333 89.7556 52.8043 92.2711C51.2892 95.3588 51.4316 98.5613 53.1478 99.4769C53.6624 99.763 53.7773 99.6768 54.1483 98.82C54.3481 98.3053 54.7203 97.7045 54.9489 97.5047C55.2924 97.2187 55.4348 97.476 55.8357 99.1635C56.2641 101.08 56.9799 102.823 57.7805 103.767C58.2089 104.311 59.468 105.198 59.7828 105.198C59.8964 105.198 59.8964 104.282 59.8115 103.197C59.6692 101.624 59.7541 100.938 60.155 100.052C60.4411 99.4221 60.7559 98.9075 60.8695 98.9075C60.9844 98.9075 61.2979 99.4795 61.5552 100.165C62.2696 102.024 62.7281 102.053 64.5579 100.223C67.0748 97.7346 68.104 97.7346 70.9918 100.194C74.0507 102.796 75.2811 103.082 78.6835 101.995C80.657 101.366 80.657 101.366 81.0854 101.909C81.3427 102.28 81.4289 102.796 81.3427 103.339C80.7994 106.141 80.8281 106.227 81.5425 107.657C82.3144 109.172 84.5165 111.432 86.0029 112.204C86.5175 112.461 87.0034 112.632 87.0608 112.547C87.1183 112.49 86.5462 111.632 85.7456 110.66C83.5148 107.858 83.8295 106.371 86.9172 105.228C87.9751 104.828 88.2324 104.571 88.5759 103.569C88.9194 102.655 89.2042 102.34 89.8624 102.139C90.377 101.996 90.8916 101.567 91.0915 101.11C91.2913 100.681 91.6348 99.9941 91.8347 99.5657C92.378 98.3641 93.8931 97.4786 95.3807 97.4786C96.8671 97.4786 97.3255 97.7072 99.3265 99.3372C100.185 100.023 101.356 100.681 102.101 100.852C104.388 101.424 106.046 103.855 106.361 107C106.59 109.373 106.933 109.859 107.676 108.745C108.076 108.116 108.191 107.401 108.191 105.485C108.191 102.397 107.819 101.397 105.875 99.0511C104.789 97.6784 104.331 96.9065 104.331 96.3057C104.331 94.2473 102.987 93.4466 99.9573 93.6752L98.0413 93.8463L98.4984 92.7309C99.2703 90.8436 100.071 89.7569 100.643 89.7569C100.958 89.7569 101.93 89.4996 102.816 89.1848C103.731 88.87 104.789 88.6127 105.19 88.6127C106.962 88.6415 110.136 90.8436 111.595 93.0731C112.023 93.7588 112.509 94.3309 112.624 94.3309C112.768 94.3309 113.081 94.4171 113.338 94.502C114.254 94.8455 109.736 88.3541 107.962 86.7241C105.447 84.4658 103.56 83.6365 101.014 83.6365C98.5258 83.6365 97.6403 84.1223 96.8684 85.9809C96.5536 86.7241 96.039 87.8683 95.6955 88.554L95.0947 89.783L93.4072 87.9819C91.8921 86.3519 91.7772 86.0946 91.9209 85.1803C92.1494 83.7501 93.0075 82.235 94.1517 81.2345C95.1522 80.3477 96.7535 79.7756 99.8986 79.1761C100.842 79.005 101.872 78.7751 102.158 78.6902C102.701 78.5479 102.701 78.5191 102.187 78.1469C101.468 77.6323 98.0948 77.661 96.1213 78.1756Z" fill="white"/>
</svg>
