<svg width="193" height="128" viewBox="0 0 193 128" fill="none" xmlns="http://www.w3.org/2000/svg">
<path d="M156.245 37.2563C145.06 36.0163 132.629 26.3044 127.844 16.0324H64.3281V56.9362C86.8269 56.9362 77.8853 86.0081 104.501 90.1041C120.487 92.5601 130.699 84.5521 131.688 74.6641C133.28 58.8722 142.39 44.8643 156.245 37.2563ZM82.8949 23.6644H111.529C113.049 23.6644 114.287 24.8884 114.287 26.4084C114.287 27.9204 113.057 29.1444 111.529 29.1444H82.8949V23.6644ZM82.8949 33.9603H111.529C113.049 33.9603 114.287 35.1843 114.287 36.6963C114.287 38.2083 113.057 39.4323 111.529 39.4323H82.8949V33.9603ZM82.8949 49.7283V44.2483H111.529C113.049 44.2483 114.287 45.4723 114.287 46.9923C114.287 48.5043 113.057 49.7283 111.529 49.7283H82.8949ZM108.023 83.7841C85.3956 81.5441 86.7626 55.4242 112.188 59.3282C129.814 62.0482 128.632 85.8241 108.023 83.7841ZM56.2871 16.0324V40.0003H7.92844C7.44598 36.0723 5.11409 31.9523 0 30.7444V16.0324H56.2871ZM24.1231 10.1605H5.65284V1.91249C5.65284 0.4085 7.16455 -0.487495 8.59585 0.280501L24.1231 10.1605ZM143.211 26.7204C141.224 25.2884 139.359 23.6804 137.566 21.7764C141.819 19.4004 145.824 17.8244 151.083 17.4404C153.021 17.2964 153.889 19.6244 151.943 20.4484C148.035 22.1124 145.366 23.7524 143.211 26.7204ZM118.822 69.0642C116.201 73.6241 111.786 78.2321 108.039 78.5361C106.873 78.6321 106.077 77.5521 106.527 76.5121C107.388 74.5361 112.783 70.5522 111.529 64.0962C115.485 64.7362 117.825 66.7442 118.822 69.0642ZM161.359 43.7843C148.839 50.2003 140.477 62.6162 139.343 76.6641C145.591 79.2481 152.779 84.0001 152.779 100.168V119.888C152.779 126.664 155.513 128 162.557 128H182.603C190.564 128 192.984 125.528 192.984 120.008C192.984 107.792 189.8 89.3841 176.927 71.3762C170.638 62.5682 162.429 56.5762 161.359 43.7843ZM156.293 75.5681C153.149 75.5681 150.608 73.0401 150.608 69.9042C150.608 66.7682 153.149 64.2402 156.293 64.2402C159.437 64.2402 161.986 66.7682 161.986 69.9042C161.986 73.0401 159.429 75.5681 156.293 75.5681Z" fill="white"/>
</svg>
