<svg width="109" height="128" viewBox="0 0 109 128" fill="none" xmlns="http://www.w3.org/2000/svg">
<path d="M54.2052 31.7815C63.0719 31.7815 71.7099 34.5951 78.8756 39.8172C86.0413 45.0394 91.3651 52.4006 94.0805 60.8413C96.7959 69.282 96.7629 78.3666 93.9862 86.7873C91.2095 95.2079 85.8323 102.53 78.6288 107.7C71.4253 112.87 62.7671 115.621 53.9006 115.556C45.0342 115.492 36.4169 112.615 29.2893 107.341L54.2052 73.6695V31.7815Z" fill="white"/>
<path d="M62.949 1.2925V10.12C62.9493 10.2898 62.9162 10.4581 62.8513 10.615C62.7865 10.772 62.6913 10.9146 62.5712 11.0347C62.4511 11.1548 62.3085 11.25 62.1515 11.3148C61.9946 11.3797 61.8263 11.4129 61.6565 11.4125H60.6665V15.7025C58.521 15.4585 56.3633 15.3392 54.204 15.345C52.2939 15.3399 50.3848 15.4317 48.484 15.62V11.4125H47.5215C47.3517 11.4129 47.1834 11.3797 47.0264 11.3148C46.8695 11.25 46.7269 11.1548 46.6068 11.0347C46.4867 10.9146 46.3915 10.772 46.3267 10.615C46.2618 10.4581 46.2286 10.2898 46.229 10.12V1.2925C46.2286 1.12267 46.2618 0.954432 46.3267 0.797455C46.3915 0.640478 46.4867 0.49785 46.6068 0.377759C46.7269 0.257667 46.8695 0.162476 47.0264 0.09765C47.1834 0.0328242 47.3517 -0.000359571 47.5215 2.93833e-06H61.6565C61.8263 -0.000359571 61.9946 0.0328242 62.1515 0.09765C62.3085 0.162476 62.4511 0.257667 62.5712 0.377759C62.6913 0.49785 62.7865 0.640478 62.8513 0.797455C62.9162 0.954432 62.9493 1.12267 62.949 1.2925Z" fill="white"/>
<path d="M20.7377 25.9602C18.1324 27.7547 15.6934 29.7795 13.4502 32.0102L11.8552 30.0027L11.4702 30.3327C11.203 30.5453 10.8629 30.6443 10.5233 30.6082C10.1837 30.5722 9.87193 30.4041 9.65522 30.1402L6.74023 26.5927C6.6289 26.463 6.54526 26.3119 6.49444 26.1487C6.44363 25.9855 6.42671 25.8137 6.44474 25.6437C6.46277 25.4737 6.51534 25.3092 6.59926 25.1603C6.68318 25.0114 6.79667 24.8812 6.93273 24.7777L15.0177 18.2327C15.285 18.0202 15.6251 17.9212 15.9647 17.9572C16.3042 17.9932 16.616 18.1613 16.8327 18.4252L19.7477 21.9452C19.859 22.0776 19.9425 22.231 19.9932 22.3963C20.0439 22.5616 20.0608 22.7354 20.0428 22.9074C20.0248 23.0793 19.9724 23.2459 19.8886 23.3972C19.8049 23.5484 19.6915 23.6813 19.5552 23.7877L19.1977 24.0627L20.7377 25.9602Z" fill="white"/>
<path d="M102.385 26.5927L99.4979 30.1402C99.2808 30.4035 98.9691 30.5712 98.6297 30.6071C98.2904 30.6431 97.9504 30.5446 97.6829 30.3327L97.2979 30.0027L95.3729 32.3952C93.1633 30.1818 90.7715 28.158 88.2229 26.3452L89.9279 24.0627L89.5704 23.7877C89.3065 23.565 89.139 23.2487 89.1031 22.9052C89.0672 22.5618 89.1657 22.2177 89.3779 21.9452L92.2929 18.4252C92.5096 18.1613 92.8214 17.9932 93.161 17.9572C93.5006 17.9212 93.8407 18.0202 94.1079 18.2327L102.22 24.7777C102.352 24.8848 102.461 25.0172 102.541 25.1671C102.621 25.317 102.67 25.4813 102.685 25.6505C102.701 25.8196 102.682 25.9901 102.631 26.1519C102.579 26.3137 102.496 26.4636 102.385 26.5927Z" fill="white"/>
<path d="M54.5783 70.3943C53.9298 70.3943 53.296 70.5866 52.7569 70.9469C52.2177 71.3072 51.7976 71.8193 51.5496 72.4185C51.3015 73.0176 51.2368 73.6769 51.3635 74.3128C51.4902 74.9487 51.8027 75.5328 52.2614 75.9912C52.7201 76.4495 53.3044 76.7615 53.9405 76.8876C54.5765 77.0138 55.2357 76.9485 55.8346 76.7C56.4336 76.4514 56.9453 76.0309 57.3052 75.4914C57.665 74.952 57.8569 74.318 57.8563 73.6695C57.8541 72.8011 57.508 71.9689 56.8936 71.355C56.2793 70.7412 55.4467 70.3957 54.5783 70.3943Z" fill="white"/>
<path d="M54.2052 19.4646C43.4845 19.4646 33.0044 22.6437 24.0904 28.5998C15.1764 34.556 8.22881 43.0217 4.12614 52.9264C0.0234795 62.8311 -1.04996 73.7299 1.04156 84.2447C3.13308 94.7595 8.29563 104.418 15.8764 111.999C23.4571 119.579 33.1155 124.742 43.6303 126.833C54.1451 128.925 65.044 127.852 74.9487 123.749C84.8534 119.646 93.3191 112.699 99.2752 103.785C105.231 94.8706 108.41 84.3906 108.41 73.6698C108.41 66.5515 107.008 59.5028 104.284 52.9264C101.56 46.3499 97.5675 40.3744 92.5341 35.3409C87.5007 30.3075 81.5252 26.3148 74.9487 23.5907C68.3722 20.8667 61.3236 19.4646 54.2052 19.4646ZM94.1105 96.7093C94.0967 96.7313 94.072 96.7368 94.0582 96.7588C90.0189 103.699 84.246 109.471 77.3052 113.509C77.2777 113.528 77.2639 113.559 77.2337 113.575C77.2034 113.592 77.1925 113.575 77.176 113.592C70.1962 117.648 62.2671 119.785 54.1942 119.785C46.1213 119.785 38.1923 117.648 31.2125 113.592C31.196 113.592 31.174 113.592 31.1547 113.575C31.1355 113.559 31.1107 113.528 31.0832 113.509C24.1464 109.469 18.3775 103.698 14.3413 96.7588C14.3413 96.7368 14.3028 96.7313 14.289 96.7093C14.2753 96.6873 14.289 96.6598 14.2643 96.635C10.2143 89.6601 8.08111 81.7381 8.08111 73.6726C8.08111 65.6071 10.2143 57.685 14.2643 50.7101C14.2643 50.6853 14.2643 50.6606 14.289 50.6358C14.3138 50.6111 14.3358 50.5918 14.355 50.5616C18.397 43.6294 24.1685 37.8646 31.1052 33.8306C31.1327 33.8113 31.1465 33.7811 31.1768 33.7646C31.207 33.7481 31.2263 33.7646 31.251 33.7398C38.2265 29.6915 46.1483 27.5593 54.2135 27.5593C62.2786 27.5593 70.2004 29.6915 77.176 33.7398C77.2007 33.7398 77.2255 33.7398 77.2502 33.7646C77.275 33.7893 77.2942 33.8113 77.3217 33.8306C84.2497 37.8661 90.0133 43.6287 94.0499 50.5561C94.0692 50.5863 94.0994 50.6001 94.1159 50.6303C94.1324 50.6606 94.116 50.6798 94.1407 50.7046C98.1907 57.6795 100.324 65.6016 100.324 73.667C100.324 81.7325 98.1907 89.6546 94.1407 96.6295C94.1215 96.6625 94.1242 96.6873 94.1105 96.7093Z" fill="white"/>
<path d="M31.6375 60.8311C31.6375 60.1564 31.8368 59.5124 32.2355 58.8991C32.6495 58.2858 33.0942 57.7951 33.5695 57.4271C34.0448 57.0438 34.4818 56.5991 34.8805 56.0931C35.2945 55.5871 35.5015 55.0811 35.5015 54.5751C35.5015 54.0384 35.3175 53.6244 34.9495 53.3331C34.5815 53.0417 34.0678 52.8961 33.4085 52.8961C32.1205 52.8961 31.2082 53.5784 30.6715 54.9431L27.9575 53.3791C28.4175 52.2444 29.1458 51.3704 30.1425 50.7571C31.1545 50.1284 32.2815 49.8141 33.5235 49.8141C34.9188 49.8141 36.1225 50.2204 37.1345 51.0331C38.1618 51.8304 38.6755 52.9344 38.6755 54.3451C38.6755 54.9891 38.5375 55.5871 38.2615 56.1391C38.0008 56.6911 37.6788 57.1664 37.2955 57.5651C36.9275 57.9484 36.5518 58.3164 36.1685 58.6691C35.8005 59.0064 35.4785 59.3591 35.2025 59.7271C34.9418 60.0951 34.8115 60.4631 34.8115 60.8311H31.6375ZM34.6045 65.9601C34.2212 66.3434 33.7612 66.5351 33.2245 66.5351C32.6878 66.5351 32.2278 66.3434 31.8445 65.9601C31.4612 65.5768 31.2695 65.1168 31.2695 64.5801C31.2695 64.0434 31.4612 63.5834 31.8445 63.2001C32.2278 62.8168 32.6878 62.6251 33.2245 62.6251C33.7612 62.6251 34.2212 62.8168 34.6045 63.2001C34.9878 63.5834 35.1795 64.0434 35.1795 64.5801C35.1795 65.1168 34.9878 65.5768 34.6045 65.9601Z" fill="white"/>
</svg>
