<svg width="109" height="128" viewBox="0 0 109 128" fill="none" xmlns="http://www.w3.org/2000/svg">
<path d="M54.2053 31.7815C63.072 31.7815 71.71 34.5951 78.8757 39.8172C86.0414 45.0394 91.3652 52.4006 94.0807 60.8413C96.7961 69.282 96.7631 78.3666 93.9863 86.7873C91.2096 95.2079 85.8324 102.53 78.6289 107.7C71.4254 112.87 62.7672 115.621 53.9007 115.556C45.0343 115.492 36.417 112.615 29.2894 107.341L54.2053 73.6695V31.7815Z" fill="white"/>
<path d="M62.9497 1.2925V10.12C62.9501 10.2898 62.9169 10.4581 62.8521 10.615C62.7872 10.772 62.6921 10.9146 62.572 11.0347C62.4519 11.1548 62.3092 11.25 62.1523 11.3148C61.9953 11.3797 61.827 11.4129 61.6572 11.4125H60.6672V15.7025C58.5218 15.4585 56.364 15.3392 54.2047 15.345C52.2946 15.3399 50.3855 15.4317 48.4847 15.62V11.4125H47.5222C47.3524 11.4129 47.1842 11.3797 47.0272 11.3148C46.8702 11.25 46.7276 11.1548 46.6075 11.0347C46.4874 10.9146 46.3922 10.772 46.3274 10.615C46.2626 10.4581 46.2294 10.2898 46.2297 10.12V1.2925C46.2294 1.12267 46.2626 0.954432 46.3274 0.797455C46.3922 0.640478 46.4874 0.49785 46.6075 0.377759C46.7276 0.257667 46.8702 0.162476 47.0272 0.09765C47.1842 0.0328242 47.3524 -0.000359571 47.5222 2.93833e-06H61.6572C61.827 -0.000359571 61.9953 0.0328242 62.1523 0.09765C62.3092 0.162476 62.4519 0.257667 62.572 0.377759C62.6921 0.49785 62.7872 0.640478 62.8521 0.797455C62.9169 0.954432 62.9501 1.12267 62.9497 1.2925Z" fill="white"/>
<path d="M20.7381 25.9602C18.1327 27.7547 15.6938 29.7795 13.4506 32.0102L11.8556 30.0027L11.4706 30.3327C11.2034 30.5453 10.8632 30.6443 10.5237 30.6082C10.1841 30.5722 9.87229 30.4041 9.65559 30.1402L6.7406 26.5927C6.62926 26.463 6.54562 26.3119 6.49481 26.1487C6.44399 25.9855 6.42708 25.8137 6.4451 25.6437C6.46313 25.4737 6.51571 25.3092 6.59963 25.1603C6.68355 25.0114 6.79703 24.8812 6.9331 24.7777L15.0181 18.2327C15.2853 18.0202 15.6255 17.9212 15.965 17.9572C16.3046 17.9932 16.6164 18.1613 16.8331 18.4252L19.7481 21.9452C19.8594 22.0776 19.9429 22.231 19.9936 22.3963C20.0443 22.5616 20.0611 22.7354 20.0432 22.9074C20.0252 23.0793 19.9728 23.2459 19.889 23.3972C19.8052 23.5484 19.6918 23.6813 19.5556 23.7877L19.1981 24.0627L20.7381 25.9602Z" fill="white"/>
<path d="M102.386 26.5927L99.4984 30.1402C99.2813 30.4035 98.9696 30.5712 98.6302 30.6071C98.2909 30.6431 97.9509 30.5446 97.6834 30.3327L97.2984 30.0027L95.3734 32.3952C93.1637 30.1818 90.772 28.158 88.2234 26.3452L89.9284 24.0627L89.5709 23.7877C89.307 23.565 89.1395 23.2487 89.1036 22.9052C89.0677 22.5618 89.1662 22.2177 89.3784 21.9452L92.2934 18.4252C92.5101 18.1613 92.8219 17.9932 93.1615 17.9572C93.501 17.9212 93.8411 18.0202 94.1084 18.2327L102.221 24.7777C102.353 24.8848 102.462 25.0172 102.542 25.1671C102.621 25.317 102.67 25.4813 102.686 25.6505C102.701 25.8196 102.683 25.9901 102.631 26.1519C102.58 26.3137 102.496 26.4636 102.386 26.5927Z" fill="white"/>
<path d="M54.5785 70.3943C53.9301 70.3943 53.2962 70.5866 52.7571 70.9469C52.218 71.3072 51.7978 71.8193 51.5498 72.4185C51.3018 73.0176 51.237 73.6769 51.3637 74.3128C51.4904 74.9487 51.8029 75.5328 52.2616 75.9912C52.7203 76.4495 53.3047 76.7615 53.9407 76.8876C54.5768 77.0138 55.236 76.9485 55.8349 76.7C56.4338 76.4514 56.9456 76.0309 57.3054 75.4914C57.6653 74.952 57.8571 74.318 57.8566 73.6695C57.8544 72.8011 57.5082 71.9689 56.8939 71.355C56.2795 70.7412 55.447 70.3957 54.5785 70.3943Z" fill="white"/>
<path d="M54.2054 19.4646C43.4846 19.4646 33.0046 22.6437 24.0906 28.5998C15.1766 34.556 8.22893 43.0217 4.12627 52.9264C0.0236016 62.8311 -1.04983 73.7299 1.04169 84.2447C3.13321 94.7595 8.29575 104.418 15.8765 111.999C23.4572 119.579 33.1157 124.742 43.6304 126.833C54.1452 128.925 65.0441 127.852 74.9488 123.749C84.8535 119.646 93.3192 112.699 99.2753 103.785C105.231 94.8706 108.411 84.3906 108.411 73.6698C108.411 66.5515 107.008 59.5028 104.284 52.9264C101.56 46.3499 97.5676 40.3744 92.5342 35.3409C87.5008 30.3075 81.5253 26.3148 74.9488 23.5907C68.3723 20.8667 61.3237 19.4646 54.2054 19.4646ZM94.1106 96.7093C94.0968 96.7313 94.0721 96.7368 94.0583 96.7588C90.019 103.699 84.2462 109.471 77.3053 113.509C77.2778 113.528 77.2641 113.559 77.2338 113.575C77.2036 113.592 77.1926 113.575 77.1761 113.592C70.1963 117.648 62.2672 119.785 54.1943 119.785C46.1215 119.785 38.1924 117.648 31.2126 113.592C31.1961 113.592 31.1741 113.592 31.1549 113.575C31.1356 113.559 31.1109 113.528 31.0834 113.509C24.1466 109.469 18.3776 103.698 14.3414 96.7588C14.3414 96.7368 14.3029 96.7313 14.2891 96.7093C14.2754 96.6873 14.2891 96.6598 14.2644 96.635C10.2144 89.6601 8.08123 81.7381 8.08123 73.6726C8.08123 65.6071 10.2144 57.685 14.2644 50.7101C14.2644 50.6853 14.2644 50.6606 14.2891 50.6358C14.3139 50.6111 14.3359 50.5918 14.3551 50.5616C18.3971 43.6294 24.1686 37.8646 31.1054 33.8306C31.1329 33.8113 31.1466 33.7811 31.1769 33.7646C31.2071 33.7481 31.2264 33.7646 31.2511 33.7398C38.2266 29.6915 46.1484 27.5593 54.2136 27.5593C62.2788 27.5593 70.2006 29.6915 77.1761 33.7398C77.2008 33.7398 77.2256 33.7398 77.2504 33.7646C77.2751 33.7893 77.2943 33.8113 77.3218 33.8306C84.2499 37.8661 90.0134 43.6287 94.0501 50.5561C94.0693 50.5863 94.0996 50.6001 94.1161 50.6303C94.1326 50.6606 94.1161 50.6798 94.1408 50.7046C98.1908 57.6795 100.324 65.6016 100.324 73.667C100.324 81.7325 98.1908 89.6546 94.1408 96.6295C94.1216 96.6625 94.1243 96.6873 94.1106 96.7093Z" fill="white"/>
<path d="M26.4706 65.8243H20.978C20.2819 65.8243 19.7108 66.4113 19.7108 67.1419C19.7108 67.4713 19.8308 67.7989 20.0589 68.0495C22.9057 71.1594 27.9861 76.7136 30.3125 79.2558C30.6318 79.6063 31.0762 79.8025 31.5374 79.8025C32.0003 79.8025 32.443 79.6063 32.7623 79.2558C35.0888 76.7136 40.1708 71.1594 43.0143 68.0495C43.244 67.7989 43.364 67.4713 43.364 67.1419C43.364 66.4113 42.7946 65.8243 42.0969 65.8243H36.6043V50.0205C36.6043 49.0901 35.8102 48.2649 34.9147 48.2649H28.1601C27.2646 48.2649 26.4706 49.0901 26.4706 50.0205V65.8243Z" fill="white"/>
</svg>
