<svg width="128" height="128" viewBox="0 0 128 128" fill="none" xmlns="http://www.w3.org/2000/svg">
<path d="M108.117 128C102.821 128 97.84 125.936 94.096 122.192L46.8533 74.9493C44.736 72.832 41.7173 71.696 38.736 71.9467C28.2347 72.7573 17.9147 68.96 10.4533 61.4933C2.352 53.3867 0 43.9893 0 35.8613C0 27.0667 2.75733 19.7653 3.96267 17.216L27.3707 40.624C30.3467 40.3893 34.4587 37.744 37.344 34.1707C39.2373 31.824 40.4107 29.3227 40.5707 27.4133L17.1573 4C22.448 1.74933 29.6587 0 36.0373 0C45.6427 0 54.672 3.728 61.4507 10.5013C68.9013 17.9627 72.7093 28.272 71.8933 38.7893C71.664 41.8027 72.7573 44.7627 74.896 46.9013L122.144 94.1493C126.048 98.0587 128 103.115 128 108.176C128 113.157 126.107 118.144 122.293 122.037C118.533 125.883 113.499 128 108.117 128ZM39.536 61.2587C45.0613 61.2587 50.4747 63.504 54.3893 67.4133L101.632 114.656C105.131 118.155 111.227 118.117 114.683 114.587C116.421 112.811 117.349 110.459 117.296 107.968C117.243 105.6 116.288 103.36 114.608 101.68L67.3653 54.4373C63.024 50.1067 60.8053 44.1013 61.2693 37.9733C61.8453 30.5547 59.1627 23.296 53.9147 18.0427C49.8667 13.9947 44.672 11.488 39.056 10.8267L50.592 22.3627C51.824 28.0427 51.3227 33.8133 45.6373 40.8587C39.744 48.1653 31.824 52.7093 22.3147 50.6347L10.784 39.104C11.4507 44.6453 13.9253 49.8933 17.9947 53.9627C23.248 59.2213 30.512 61.9147 37.92 61.3227L39.536 61.2587ZM112.848 108C112.848 110.704 110.661 112.891 107.957 112.891C105.259 112.891 103.067 110.699 103.067 108C103.067 105.301 105.253 103.109 107.957 103.109C110.661 103.115 112.848 105.301 112.848 108Z" fill="white"/>
</svg>
