<svg width="134" height="128" viewBox="0 0 134 128" fill="none" xmlns="http://www.w3.org/2000/svg">
<path d="M84.3984 87.1968H103.831L116.28 116.254H17.6277L30.0769 87.1968H49.5092V75.5584H22.4138L0 127.892H133.908L111.494 75.5584H84.3984V87.1968ZM78.5922 40.6953C78.5922 34.2615 73.3876 29.0569 66.9538 29.0569C60.5199 29.0569 55.3153 34.2615 55.3153 40.6953C55.3153 47.1292 60.5199 52.3338 66.9538 52.3338C73.3876 52.3338 78.5922 47.1292 78.5922 40.6953ZM32.0646 40.6953H26.2584C26.2584 49.143 28.7692 57.1984 32.2738 64.5476C37.583 75.5845 45.2723 85.1307 51.6276 92.0353C58.0092 98.9399 63.083 103.177 63.2138 103.281L66.9276 106.394L70.6415 103.281C70.8246 103.125 79.7953 95.6707 88.8968 84.2676C93.4476 78.5661 98.0507 71.8969 101.581 64.5215C105.112 57.1723 107.597 49.0907 107.597 40.6692C107.597 29.1877 103.046 18.9354 95.6445 11.6385C88.3215 4.36769 78.0953 0 66.9538 0C55.8123 0 45.5861 4.36769 38.2107 11.6646C30.8092 18.9615 26.2584 29.2138 26.2584 40.6953H32.0646H37.8707C37.8707 32.3 41.14 25.1338 46.3707 19.9292C51.6276 14.7508 58.8461 11.6385 66.9538 11.6123C75.0615 11.6123 82.2799 14.7508 87.5368 19.9292C92.7676 25.1077 96.0107 32.3 96.0368 40.6953C96.0368 46.7892 94.1799 53.2492 91.1461 59.5261C86.6476 68.9415 79.6122 77.7815 73.7276 84.163C70.7722 87.3538 68.1307 89.943 66.2215 91.6953C65.2799 92.5845 64.4953 93.2645 63.9984 93.7091L63.423 94.2061L63.2661 94.3368L66.9799 98.8091L70.6938 94.3368L70.6415 94.2845C69.8046 93.5784 61.3569 86.3076 53.3015 76.0292C49.2738 70.903 45.3507 65.0184 42.5261 58.9246C39.6754 52.8307 37.923 46.58 37.923 40.6692H32.0646V40.6953Z" fill="white"/>
</svg>
