<svg width="128" height="128" viewBox="0 0 128 128" fill="none" xmlns="http://www.w3.org/2000/svg">
<path d="M128 75.664V52.336C116.544 48.2507 113.461 48.0587 111.856 44.1813C110.24 40.2933 112.299 37.9467 117.504 26.992L101.008 10.496C90.2027 15.632 87.7387 17.7707 83.8133 16.144C79.936 14.5333 79.7173 11.4027 75.6693 0H52.336C48.2613 11.4347 48.0693 14.5333 44.1813 16.144C40.1707 17.8133 37.7653 15.6107 26.992 10.496L10.496 26.992C15.7067 37.952 17.76 40.288 16.144 44.1867C14.5333 48.064 11.4453 48.2613 0 52.336V75.6693C11.408 79.7227 14.5333 79.936 16.144 83.8187C17.7653 87.7333 15.712 90.0427 10.496 101.008L26.992 117.504C37.6533 112.437 40.1653 110.181 44.1813 111.856C48.064 113.467 48.256 116.549 52.336 128H75.664C79.7067 116.635 79.9253 113.477 83.8613 111.835C87.8347 110.192 90.1867 112.363 101.008 117.499L117.504 101.003C112.304 90.0693 110.24 87.712 111.856 83.8133C113.456 79.9413 116.549 79.744 128 75.664ZM102 79.7387C98.9227 87.1733 101.637 92.848 104.603 98.8213L98.8213 104.603C92.992 101.707 87.296 98.864 79.7653 101.989C72.32 105.088 70.2187 111.019 68.096 117.333H59.9147C57.792 111.013 55.696 105.083 48.272 102C40.704 98.864 34.9013 101.76 29.184 104.603L23.408 98.8213C26.3787 92.8587 29.0933 87.1947 26.0053 79.728C22.9173 72.3093 16.9867 70.2133 10.6667 68.0907V59.9147C16.9867 57.792 22.9173 55.696 26 48.2667C29.0827 40.832 26.3627 35.152 23.3973 29.1787L29.1787 23.3973C34.9493 26.2667 40.7093 29.1413 48.272 26C55.696 22.9227 57.792 16.9867 59.9147 10.6667H68.096C70.2187 16.9867 72.32 22.9173 79.744 26C87.312 29.136 93.1093 26.24 98.832 23.3973L104.613 29.1787C101.648 35.1573 98.9333 40.8427 102.011 48.272C105.088 55.6907 111.019 57.7867 117.344 59.9147V68.096C111.008 70.2187 105.067 72.3147 102 79.7387ZM64 48C72.8213 48 80 55.1787 80 64C80 72.8213 72.8213 80 64 80C55.1787 80 48 72.8213 48 64C48 55.1787 55.1787 48 64 48ZM64 37.3333C49.2693 37.3333 37.3333 49.2693 37.3333 64C37.3333 78.7307 49.2693 90.6667 64 90.6667C78.7307 90.6667 90.6667 78.7307 90.6667 64C90.6667 49.2693 78.7307 37.3333 64 37.3333Z" fill="white"/>
</svg>
