<svg width="124" height="65" viewBox="0 0 124 65" fill="none" xmlns="http://www.w3.org/2000/svg">
<path d="M121.119 23.5471H114.236V14.2645C114.236 13.1833 113.34 12.2867 112.259 12.2867H101.104V2.97781C101.104 1.89661 100.207 1 99.126 1H85.9933C84.9121 1 84.0155 1.89661 84.0155 2.97781V23.5471H39.7388V2.97781C39.7388 1.89661 38.8422 1 37.761 1H24.6283C23.5471 1 22.6505 1.89661 22.6505 2.97781V12.2604H11.4956C10.4144 12.2604 9.51779 13.157 9.51779 14.2382V23.5207H2.97781C1.89661 23.5207 1 24.4173 1 25.4985V39.1586C1 40.2398 1.89661 41.1365 2.97781 41.1365H9.54416V50.7618C9.54416 51.843 10.4408 52.7396 11.522 52.7396H22.6769V62.0222C22.6769 63.1034 23.5735 64 24.6547 64H37.7874C38.8686 64 39.7652 63.1034 39.7652 62.0222V41.1101H84.0418V62.0222C84.0418 63.1034 84.9385 64 86.0197 64H99.1524C100.234 64 101.13 63.1034 101.13 62.0222V52.7396H112.285C113.366 52.7396 114.263 51.843 114.263 50.7618V41.1365H121.146C122.227 41.1365 123.123 40.2398 123.123 39.1586V25.4985C123.097 24.4173 122.2 23.5471 121.119 23.5471ZM9.54416 37.2072H4.95563V37.1808V27.5027H9.54416V37.2072ZM22.6769 48.8104H13.4998V16.2424H22.6769V48.8104ZM35.7832 60.0707H26.6061V4.95563H35.7832V60.0707ZM84.0155 37.2072H39.7388V37.1808V27.5027H84.0155V37.2072ZM97.1482 60.0707H87.9711V4.95563H97.1482V60.0707ZM110.281 48.8104H101.104V16.2424H110.281V48.8104ZM119.141 37.1808H114.236V27.5027H119.141V37.1808Z" fill="white" stroke="white"/>
</svg>
