<svg width="64" height="64" viewBox="0 0 64 64" fill="none" xmlns="http://www.w3.org/2000/svg">
<path fill-rule="evenodd" clip-rule="evenodd" d="M43.354 45.9481L43.3555 45.9461C43.7864 45.4073 44.1679 44.8272 44.4931 44.2127C45.3086 42.6719 45.7705 40.9151 45.7705 39.0505C45.7705 32.9475 40.823 28 34.72 28C28.617 28 23.6695 32.9475 23.6695 39.0505C23.6695 45.1534 28.617 50.1009 34.72 50.1009C35.4084 50.1009 36.0821 50.038 36.7356 49.9176C38.0036 49.6839 39.1957 49.2337 40.2723 48.6069C40.744 48.3322 41.1936 48.0236 41.6176 47.6844L42.9529 49.0197L43.819 49.8859L47.0009 53.0678L48.5734 54.6404C49.0529 55.1199 49.8304 55.1199 50.3099 54.6404C50.7894 54.1609 50.7894 53.3834 50.3099 52.9039L47.9206 50.5146L44.6892 47.2833L43.356 45.9502L43.354 45.9481ZM34.72 47.6576C29.9664 47.6576 26.1128 43.8041 26.1128 39.0505C26.1128 34.2969 29.9664 30.4433 34.72 30.4433C39.4736 30.4433 43.3271 34.2969 43.3271 39.0505C43.3271 40.0208 43.1665 40.9536 42.8705 41.8238C41.9809 44.4391 39.8679 46.4888 37.2134 47.2909C36.4242 47.5294 35.587 47.6576 34.72 47.6576Z" fill="white"/>
<path d="M30.3965 26.667H18.9423C20.5968 27.722 22.5617 28.3333 24.6694 28.3333C25.8849 28.3333 27.0529 28.13 28.1413 27.7556C28.7944 27.3756 29.4836 27.0508 30.2026 26.7878C30.2677 26.7482 30.3323 26.708 30.3965 26.667Z" fill="white"/>
<path fill-rule="evenodd" clip-rule="evenodd" d="M30.3965 26.667C30.3323 26.708 30.2677 26.7482 30.2026 26.7878C29.4836 27.0508 28.7944 27.3756 28.1413 27.7556C27.0529 28.13 25.8849 28.3333 24.6694 28.3333C22.5617 28.3333 20.5968 27.722 18.9423 26.667H30.3965ZM40.2723 48.6069C40.744 48.3322 41.1936 48.0236 41.6176 47.6844L42.9529 49.0197L43.819 49.8859L47.0009 53.0678L48.5734 54.6404C49.0529 55.1199 49.8304 55.1199 50.3099 54.6404C50.7894 54.1609 50.7894 53.3834 50.3099 52.9039L47.9206 50.5146L44.6892 47.2833L43.356 45.9502L43.3555 45.9461C43.7864 45.4073 44.1679 44.8272 44.4931 44.2127C45.3086 42.6719 45.7705 40.9151 45.7705 39.0505C45.7705 32.9475 40.823 28 34.72 28C28.617 28 23.6695 32.9475 23.6695 39.0505C23.6695 45.1534 28.617 50.1009 34.72 50.1009C35.4084 50.1009 36.0821 50.038 36.7356 49.9176C38.0036 49.6839 39.1957 49.2337 40.2723 48.6069ZM42.8705 41.8238C41.9809 44.4391 39.8679 46.4888 37.2134 47.2909C36.4242 47.5294 35.587 47.6576 34.72 47.6576C29.9664 47.6576 26.1128 43.8041 26.1128 39.0505C26.1128 34.2969 29.9664 30.4433 34.72 30.4433C39.4736 30.4433 43.3271 34.2969 43.3271 39.0505C43.3271 40.0208 43.1665 40.9536 42.8705 41.8238Z" fill="white"/>
<path d="M35.3361 17.6667C35.3361 11.7756 30.5604 7 24.6694 7C18.7784 7 14.0028 11.7756 14.0028 17.6667C14.0028 21.45 15.9725 24.7733 18.9423 26.667H30.3965C33.3664 24.7733 35.3361 21.45 35.3361 17.6667Z" fill="white"/>
<path d="M12.0032 30.2105V42.139C12.0032 44.535 12.0031 46.5329 12.2163 48.119C12.4414 49.7932 12.9365 51.3046 14.1511 52.5193C15.3657 53.7337 16.8772 54.2289 18.5513 54.454C20.1374 54.6673 22.1353 54.6673 24.5313 54.667H24.8086C27.2046 54.6673 29.2025 54.6673 30.7886 54.454C32.4628 54.2289 33.974 53.7337 35.1886 52.5193C35.3683 52.3396 35.5323 52.1534 35.6819 51.9612C35.3478 51.9869 35.0102 52 34.6695 52C27.4898 52 21.6695 46.1797 21.6695 39C21.6695 34.1998 24.2711 30.0073 28.1413 27.7556C27.0529 28.13 25.8849 28.3333 24.6694 28.3333C22.5617 28.3333 20.5968 27.722 18.9423 26.667H14.2286C12.3431 26.667 11.9594 29.0294 12.0032 30.2105Z" fill="white"/>
</svg>
