<svg width="140" height="128" viewBox="0 0 140 128" fill="none" xmlns="http://www.w3.org/2000/svg">
<path d="M104.067 59.104C103.744 69.392 92.0956 75.776 58.9051 75.776C25.6448 75.776 14.0173 69.36 13.7434 59.0347C21.8424 59.0347 37.2614 48.592 58.9051 48.592C79.9955 48.5867 97.2728 59.104 104.067 59.104ZM58.9104 80.9173C47.8362 80.9173 38.8243 80.2187 31.6384 78.8C31.9714 81.76 34.1572 96.5173 44.5762 96.5173C53.8191 96.5173 53.5613 89.4987 59.1897 89.4987C64.8128 89.4987 65.468 96.5173 74.5067 96.5173C85.7314 96.5173 87.7185 80.1813 87.9011 78.4427C80.452 80.1013 70.8816 80.9173 58.9104 80.9173ZM93.3093 76.9653C93.0945 88.544 89.4586 102.4 81.0643 111.296C75.4359 117.264 68.2983 120.293 59.8557 120.293C51.3969 120.293 44.2916 117.451 38.7437 111.856C29.9037 102.933 26.3805 88.6827 25.8757 77.3973C23.0669 76.5547 20.4514 75.5467 17.9057 74.048C17.8197 87.232 21.6866 105.739 33.0562 117.216C40.1508 124.368 49.1681 128 59.8557 128C70.4465 128 79.7914 124.027 86.886 116.517C98.3308 104.395 101.709 86.2293 101.177 73.2587C98.7122 74.9013 96.1074 76.0373 93.3093 76.9653ZM59.8127 18.384L58.1317 21.7067L54.3669 22.24L57.0898 24.8267L56.4507 28.48L59.8127 26.752L63.1801 28.48L62.5356 24.8267L65.2585 22.24L61.4991 21.7067L59.8127 18.384ZM98.5403 17.2853C98.5403 17.2853 84.915 13.6267 59.0769 0C33.2335 13.6267 19.6135 17.2853 19.6135 17.2853C19.6135 17.2853 12.6586 30.0853 0 44.0373L12.1698 54.2133C20.403 53.3333 37.0896 43.1093 59.0769 43.1093C81.0643 43.1093 97.7508 53.3333 105.984 54.2187L118.154 44.0373C105.495 30.0853 98.5403 17.2853 98.5403 17.2853ZM64.4637 34.4267C61.6387 35.1253 61.2144 35.4293 59.7644 36.5707C58.3197 35.4293 57.89 35.1253 55.0651 34.4267C51.1391 33.4507 48.8835 30.928 48.8835 27.4987C48.8835 25.584 49.673 23.8133 50.5913 21.3867C51.6225 18.6507 51.0371 17.7867 49.9522 16.6827L49.0338 15.744L54.3347 11.376C54.861 11.8987 55.5968 12.8587 56.9448 12.8587C58.2767 12.8587 59.179 11.9253 59.7805 11.4133C60.3283 11.8933 61.2198 12.8587 62.5893 12.8587C63.9212 12.8587 64.6355 11.9467 65.2209 11.36L70.5003 15.7493L69.5765 16.688C68.4916 17.792 67.9062 18.656 68.9374 21.392C69.8504 23.8187 70.6453 25.584 70.6453 27.504C70.6453 30.9227 68.3896 33.4507 64.4637 34.4267Z" fill="white"/>
<path d="M106.339 96.4922H139.815V106.338H106.339V96.4922Z" fill="white"/>
</svg>
